<svg xmlns="http://www.w3.org/2000/svg" width="72" height="60" viewBox="0 0 72 60" fill="none">
  <path d="M35.3313 24.8087L21.1489 24.8141L30.9937 14.9694L35.2355 19.2112L35.3313 24.8087Z" fill="#8BBFE4" />
  <path d="M45.8388 24.9913L27.124 24.9984L40.1149 12.0073L45.7126 17.605L45.8388 24.9913Z" fill="#0178B5" />
  <path
    d="M29.104 43.8233C28.6903 43.8233 28.3547 43.4879 28.3547 43.074V37.7164C28.3547 34.5108 25.7468 31.9028 22.541 31.9028H11.4237C8.218 31.9028 5.61002 34.5108 5.61002 37.7164V43.074C5.61002 43.4879 5.27441 43.8233 4.86074 43.8233C4.44678 43.8233 4.11145 43.4879 4.11145 43.074V37.7164C4.11145 33.6846 7.39179 30.4042 11.4237 30.4042H22.541C26.573 30.4042 29.8533 33.6846 29.8533 37.7164V43.074C29.8533 43.4879 29.5177 43.8233 29.104 43.8233Z"
    fill="#333333" />
  <path
    d="M53.3578 43.8233C52.9442 43.8233 52.6085 43.4879 52.6085 43.074V37.7164C52.6085 34.5108 50.0006 31.9028 46.7946 31.9028H35.6778C32.4718 31.9028 29.8638 34.5108 29.8638 37.7164C29.8638 38.1304 29.5282 38.4657 29.1145 38.4657C28.7006 38.4657 28.3652 38.1304 28.3652 37.7164C28.3652 33.6846 31.6456 30.4042 35.6778 30.4042H46.7946C50.8268 30.4042 54.1071 33.6846 54.1071 37.7164V43.074C54.1071 43.4879 53.7715 43.8233 53.3578 43.8233Z"
    fill="#333333" />
  <path
    d="M1.97227 53.5278H8.04605V47.0016C8.04605 45.3272 6.68366 43.9648 5.00902 43.9648C3.33466 43.9648 1.97227 45.3272 1.97227 47.0016V53.5278ZM8.79538 55.0264H1.22298C0.809306 55.0264 0.473694 54.6908 0.473694 54.2771V47.0016C0.473694 44.501 2.50817 42.4662 5.00902 42.4662C7.50987 42.4662 9.54467 44.501 9.54467 47.0016V54.2771C9.54467 54.6908 9.20898 55.0264 8.79538 55.0264Z"
    fill="#333333" />
  <path
    d="M50.3755 53.5278H56.4493V47.0016C56.4493 45.3272 55.0869 43.9648 53.4122 43.9648C51.7379 43.9648 50.3755 45.3272 50.3755 47.0016V53.5278ZM57.1986 55.0264H49.6262C49.2125 55.0264 48.8769 54.6908 48.8769 54.2771V47.0016C48.8769 44.501 50.9114 42.4662 53.4122 42.4662C55.9131 42.4662 57.9478 44.501 57.9478 47.0016V54.2771C57.9478 54.6908 57.6122 55.0264 57.1986 55.0264Z"
    fill="#333333" />
  <path
    d="M62.4954 53.3793H68.3822C68.0475 52.0659 66.8549 51.0915 65.4387 51.0915C64.0227 51.0915 62.8298 52.0659 62.4954 53.3793ZM69.225 54.8779H61.6526C61.2389 54.8779 60.9033 54.5422 60.9033 54.1286C60.9033 51.6277 62.9378 49.5933 65.4387 49.5933C67.9395 49.5933 69.9743 51.6277 69.9743 54.1286C69.9743 54.5422 69.6387 54.8779 69.225 54.8779Z"
    fill="#333333" />
  <path
    d="M49.6261 47.6811C49.2124 47.6811 48.8768 47.3457 48.8768 46.9318C48.8768 45.2572 47.5144 43.8948 45.8398 43.8948H12.5817C10.907 43.8948 9.54463 45.2572 9.54463 46.9318C9.54463 47.3457 9.20902 47.6811 8.79534 47.6811C8.38142 47.6811 8.04608 47.3457 8.04608 46.9318C8.04608 44.4309 10.0808 42.3962 12.5817 42.3962H45.8398C48.3406 42.3962 50.3754 44.4309 50.3754 46.9318C50.3754 47.3457 50.0398 47.6811 49.6261 47.6811Z"
    fill="#333333" />
  <path
    d="M49.4034 51.797H9.09237C8.67868 51.797 8.34308 51.4616 8.34308 51.0477C8.34308 50.634 8.67868 50.2984 9.09237 50.2984H49.4034C49.8171 50.2984 50.1527 50.634 50.1527 51.0477C50.1527 51.4616 49.8171 51.797 49.4034 51.797Z"
    fill="#333333" />
  <path
    d="M13.3306 24.0926H44.7938V6.73482H13.3306V24.0926ZM45.543 25.591H12.5813C12.1676 25.591 11.8322 25.2556 11.8322 24.8417V5.98525C11.8322 5.57158 12.1676 5.23596 12.5813 5.23596H45.543C45.9567 5.23596 46.2923 5.57158 46.2923 5.98525V24.8417C46.2923 25.2556 45.9567 25.591 45.543 25.591Z"
    fill="#333333" />
  <path
    d="M65.4389 51.0915C65.0252 51.0915 64.6896 50.7562 64.6896 50.3422V24.6929C64.6896 24.2793 65.0252 23.944 65.4389 23.944C65.8525 23.944 66.1881 24.2793 66.1881 24.6929V50.3422C66.1881 50.7562 65.8525 51.0915 65.4389 51.0915Z"
    fill="#333333" />
  <path d="M71.5262 24.6933H59.3514L61.6009 11.3602H69.2767L71.5262 24.6933Z" fill="#618365" />
</svg>