<svg xmlns="http://www.w3.org/2000/svg" width="54" height="54" viewBox="0 0 54 54" fill="none">
  <g clip-path="url(#clip0_1_1076)">
    <path
      d="M49.7583 1.58826H4.23531C2.77339 1.58826 1.58826 2.76044 1.58826 4.2064V49.7937C1.58826 51.2396 2.77339 52.4118 4.23531 52.4118H49.7583C51.2203 52.4118 52.4054 51.2396 52.4054 49.7937V4.2064C52.4054 2.76044 51.2203 1.58826 49.7583 1.58826Z"
      stroke="#E2E2E2" stroke-width="1.98529" stroke-miterlimit="10" stroke-linecap="round" />
    <path d="M27.3572 1.77753V52.3866" stroke="#E2E2E2" stroke-width="1.98529" stroke-miterlimit="10"
      stroke-linecap="round" />
    <path d="M1.90717 26.6341H52.4118" stroke="#E2E2E2" stroke-width="1.98529" stroke-miterlimit="10"
      stroke-linecap="round" />
    <path d="M15.0276 8.6792V21.5113" stroke="#E2E2E2" stroke-width="1.98529" stroke-miterlimit="10"
      stroke-linecap="round" />
    <path d="M8.43872 15.0953H21.4125" stroke="#E2E2E2" stroke-width="1.98529" stroke-miterlimit="10"
      stroke-linecap="round" />
    <path d="M19.5819 35.2518L10.4097 44.3239" stroke="#E2E2E2" stroke-width="1.98529" stroke-miterlimit="10"
      stroke-linecap="round" />
    <path d="M10.3395 35.1761L19.5117 44.2545" stroke="#E2E2E2" stroke-width="1.98529" stroke-miterlimit="10"
      stroke-linecap="round" />
    <path d="M33.3849 15.0953H46.3586" stroke="#E2E2E2" stroke-width="1.98529" stroke-miterlimit="10"
      stroke-linecap="round" />
    <path d="M33.2955 39.3777H46.2693" stroke="#E2E2E2" stroke-width="1.98529" stroke-miterlimit="10"
      stroke-linecap="round" />
    <path d="M39.3487 35.9205H40.2162" stroke="#E2E2E2" stroke-width="1.98529" stroke-miterlimit="10"
      stroke-linecap="round" />
    <path d="M39.3487 43.2325H40.2162" stroke="#E2E2E2" stroke-width="1.98529" stroke-miterlimit="10"
      stroke-linecap="round" />
  </g>
  <defs>
    <clipPath id="clip0_1_1076">
      <rect width="54" height="54" fill="white" />
    </clipPath>
  </defs>
</svg>