<svg xmlns="http://www.w3.org/2000/svg" width="72" height="60" viewBox="0 0 72 60" fill="none">
  <path d="M30.0613 18.6281H8.42017V3.30316H30.0613V18.6281Z" fill="#618365" />
  <path
    d="M30.3831 56.8785C30.001 56.8785 29.6909 56.5687 29.6909 56.1863V3.62593C29.6909 3.24351 30.001 2.93372 30.3831 2.93372C30.7652 2.93372 31.0753 3.24351 31.0753 3.62593V56.1863C31.0753 56.5687 30.7652 56.8785 30.3831 56.8785Z"
    fill="#333333" />
  <path
    d="M46.5152 19.0781C46.1331 19.0781 45.823 18.7683 45.823 18.3859V3.26588C45.823 2.88377 46.1331 2.57367 46.5152 2.57367C46.8973 2.57367 47.2071 2.88377 47.2071 3.26588V18.3859C47.2071 18.7683 46.8973 19.0781 46.5152 19.0781Z"
    fill="#333333" />
  <path
    d="M46.5833 57.2384C46.2012 57.2384 45.8911 56.9286 45.8911 56.5462V37.4662C45.8911 37.0841 46.2012 36.774 46.5833 36.774C46.9654 36.774 47.2755 37.0841 47.2755 37.4662V56.5462C47.2755 56.9286 46.9654 57.2384 46.5833 57.2384Z"
    fill="#333333" />
  <path
    d="M46.5833 47.674H9.56018C9.17808 47.674 8.86829 47.3642 8.86829 46.9818C8.86829 46.5996 9.17808 46.2899 9.56018 46.2899H46.5833C46.9654 46.2899 47.2756 46.5996 47.2756 46.9818C47.2756 47.3642 46.9654 47.674 46.5833 47.674Z"
    fill="#333333" />
  <path
    d="M9.67353 17.6941H61.9601L62.1811 17.6268V3.97683H9.67353V17.6941ZM9.67353 56.4844H62.1811V37.7985H9.67353V56.4844ZM62.8733 57.8685H8.98132C8.59921 57.8685 8.28943 57.5587 8.28943 57.1766V3.28462C8.28943 2.90251 8.59921 2.59241 8.98132 2.59241H62.8733C63.2557 2.59241 63.5655 2.90251 63.5655 3.28462V18.1394C63.5655 18.4438 63.3663 18.7125 63.0751 18.8013L62.2651 19.0482C62.1997 19.0681 62.1315 19.0782 62.0633 19.0782H9.67353V36.4141H62.4233C62.5342 36.4141 62.6434 36.4409 62.742 36.4918L63.1919 36.7252C63.4212 36.8442 63.5655 37.081 63.5655 37.3397V57.1766C63.5655 57.5587 63.2557 57.8685 62.8733 57.8685Z"
    fill="#333333" />
  <path d="M54.0098 9.28406H56.7224V11.9998H54.0098V9.28406Z" fill="black" />
  <path
    d="M56.7236 10.6419C56.7236 11.3912 56.116 11.9988 55.3666 11.9988C54.6173 11.9988 54.01 11.3912 54.01 10.6419C54.01 9.89249 54.6173 9.28491 55.3666 9.28491C56.116 9.28491 56.7236 9.89249 56.7236 10.6419Z"
    fill="#0178B5" />
  <path d="M37.2792 9.55872H39.9919V12.2745H37.2792V9.55872Z" fill="black" />
  <path
    d="M39.9919 10.9162C39.9919 11.6656 39.3843 12.2732 38.635 12.2732C37.8856 12.2732 37.2783 11.6656 37.2783 10.9162C37.2783 10.1668 37.8856 9.55927 38.635 9.55927C39.3843 9.55927 39.9919 10.1668 39.9919 10.9162Z"
    fill="#0178B5" />
  <path d="M15.6125 41.395H23.8057V42.8372H15.6125V41.395Z" fill="#FEC666" />
  <path d="M15.6125 51.5439H23.8057V52.9861H15.6125V51.5439Z" fill="#FEC666" />
  <path
    d="M51.2525 37.0535C50.8704 37.0535 50.5603 36.7437 50.5603 36.3613V34.6263C50.5603 34.2442 50.8704 33.9344 51.2525 33.9344C51.6346 33.9344 51.9444 34.2442 51.9444 34.6263V36.3613C51.9444 36.7437 51.6346 37.0535 51.2525 37.0535Z"
    fill="#333333" />
  <path
    d="M57.6913 37.0535C57.3092 37.0535 56.9994 36.7437 56.9994 36.3613V34.6263C56.9994 34.2442 57.3092 33.9344 57.6913 33.9344C58.0734 33.9344 58.3835 34.2442 58.3835 34.6263V36.3613C58.3835 36.7437 58.0734 37.0535 57.6913 37.0535Z"
    fill="#333333" />
  <path
    d="M57.4655 34.3744H50.7679C48.7036 34.3744 47.0245 32.695 47.0245 30.631V28.5623C47.0245 28.1798 47.3343 27.8701 47.7164 27.8701C48.0989 27.8701 48.4086 28.1798 48.4086 28.5623V30.631C48.4086 31.9321 49.4669 32.9903 50.7679 32.9903H57.4655C58.7662 32.9903 59.8247 31.9321 59.8247 30.631V28.5623C59.8247 28.1798 60.1345 27.8701 60.5166 27.8701C60.8991 27.8701 61.2088 28.1798 61.2088 28.5623V30.631C61.2088 32.695 59.5295 34.3744 57.4655 34.3744Z"
    fill="#333333" />
</svg>