<svg width="78" height="83" viewBox="0 0 78 83" fill="none" xmlns="http://www.w3.org/2000/svg">
  <path d="M76.333 6.55859H1.66663V27.2795H76.333V6.55859Z" fill="#618365" />
  <path d="M76.333 21.3491H1.66663V27.2796H76.333V21.3491Z" fill="#F6C775" />
  <path d="M12.6344 2V12.5748" stroke="#333333" stroke-width="2.5" stroke-linecap="round" stroke-linejoin="round" />
  <path d="M66.101 2V12.5748" stroke="#333333" stroke-width="2.5" stroke-linecap="round" stroke-linejoin="round" />
  <path d="M75.94 27.2795H2.44537" stroke="#333333" stroke-width="2.5" stroke-linecap="round" stroke-linejoin="round" />
  <path
    d="M31.1264 43.416C31.169 43.3733 31.2224 43.3413 31.2864 43.32C31.3717 43.2773 31.4677 43.256 31.5744 43.256H32.5664C32.7584 43.256 32.8544 43.352 32.8544 43.544V58.552C32.8544 58.7227 32.929 58.808 33.0784 58.808H36.3424C36.5557 58.808 36.6624 58.8827 36.6624 59.032V59.832C36.6624 60.0453 36.5557 60.152 36.3424 60.152H33.1104C32.9397 60.152 32.8544 60.248 32.8544 60.44V66.712C32.8544 66.904 32.7477 67 32.5344 67H31.6384C31.4677 67 31.3824 66.904 31.3824 66.712V60.344C31.3824 60.216 31.297 60.152 31.1264 60.152H20.3104C20.0757 60.152 19.9584 60.0453 19.9584 59.832V58.84C19.9584 58.7333 19.9797 58.6267 20.0224 58.52C20.065 58.4133 20.1397 58.2853 20.2464 58.136L31.1264 43.416ZM30.9664 58.808C31.1584 58.808 31.2544 58.7333 31.2544 58.584V46.2C31.2544 45.9653 31.2117 45.8373 31.1264 45.816C31.0624 45.7947 30.9557 45.88 30.8064 46.072L21.6864 58.392C21.473 58.6693 21.5477 58.808 21.9104 58.808H30.9664ZM48.9279 42.936C50.0799 42.936 51.1572 43.192 52.1599 43.704C53.1625 44.1947 54.0372 44.952 54.7839 45.976C55.5519 46.9787 56.1385 48.248 56.5439 49.784C56.9705 51.32 57.1839 53.1227 57.1839 55.192C57.1839 57.944 56.8105 60.216 56.0639 62.008C55.3385 63.8 54.3465 65.1333 53.0879 66.008C51.8505 66.8827 50.4532 67.32 48.8959 67.32C47.3385 67.32 45.9305 66.8827 44.6719 66.008C43.4345 65.1333 42.4532 63.8107 41.7279 62.04C41.0025 60.248 40.6399 57.9867 40.6399 55.256C40.6399 53.1653 40.8532 51.352 41.2799 49.816C41.7065 48.28 42.2932 47 43.0399 45.976C43.8079 44.952 44.6932 44.1947 45.6959 43.704C46.6985 43.192 47.7759 42.936 48.9279 42.936ZM48.9599 65.976C50.2825 65.976 51.4452 65.6027 52.4479 64.856C53.4505 64.1093 54.2292 62.9467 54.7839 61.368C55.3599 59.768 55.6479 57.7093 55.6479 55.192C55.6479 52.632 55.3599 50.552 54.7839 48.952C54.2079 47.352 53.4079 46.1787 52.3839 45.432C51.3812 44.664 50.2292 44.28 48.9279 44.28C47.6265 44.28 46.4639 44.664 45.4399 45.432C44.4372 46.1787 43.6372 47.3627 43.0399 48.984C42.4639 50.584 42.1759 52.6533 42.1759 55.192C42.1759 57.7093 42.4639 59.768 43.0399 61.368C43.6372 62.9467 44.4479 64.1093 45.4719 64.856C46.4959 65.6027 47.6585 65.976 48.9599 65.976Z"
    fill="black" />
  <path d="M76.326 6.95172H2.05237V81.225H76.326V6.95172Z" stroke="#333333" stroke-width="2.5" stroke-linecap="round"
    stroke-linejoin="round" />
</svg>