<svg xmlns="http://www.w3.org/2000/svg" xmlns:xlink="http://www.w3.org/1999/xlink" version="1.1" width="1000"
	height="1000" viewBox="0 0 1000 1000" xml:space="preserve">
	<desc>Created with Fabric.js 3.5.0</desc>
	<defs>
	</defs>
	<rect x="0" y="0" width="100%" height="100%" fill="#ffffff" />
	<g transform="matrix(9.6316 0 0 9.6316 499.9971 684.1802)" id="975431">
		<g style="" vector-effect="non-scaling-stroke">
			<g transform="matrix(1 0 0 1 0 0)" clip-path="url(#CLIPPATH_1)">
				<clipPath id="CLIPPATH_1">
					<rect transform="matrix(1 0 0 1 0 0)" id="clip0_1_1193" x="-115" y="-102" rx="0" ry="0" width="230"
						height="204" />
				</clipPath>
				<path
					style="stroke: none; stroke-width: 1; stroke-dasharray: none; stroke-linecap: butt; stroke-dashoffset: 0; stroke-linejoin: miter; stroke-miterlimit: 4; is-custom-font: none; font-file-url: none; fill: rgb(255,255,255); fill-rule: nonzero; opacity: 1;"
					transform=" translate(-115, -102)" d="M 230 0 H 0 V 204 H 230 V 0 Z" stroke-linecap="round" />
			</g>
			<g transform="matrix(1 0 0 1 0 -20.0675)" clip-path="url(#CLIPPATH_2)">
				<clipPath id="CLIPPATH_2">
					<rect transform="matrix(1 0 0 1 0 20.0675)" id="clip0_1_1193" x="-115" y="-102" rx="0" ry="0" width="230"
						height="204" />
				</clipPath>
				<path
					style="stroke: rgb(51,51,51); stroke-width: 2.5; stroke-dasharray: none; stroke-linecap: butt; stroke-dashoffset: 0; stroke-linejoin: miter; stroke-miterlimit: 10; is-custom-font: none; font-file-url: none; fill: none; fill-rule: nonzero; opacity: 1;"
					transform=" translate(-115, -81.9325)"
					d="M 164.909 82.412 C 164.929 82.3731 164.942 82.3342 164.955 82.2954 C 164.968 82.2565 164.974 82.2112 164.981 82.1723 C 164.987 82.1334 165 82.0946 165 82.0557 C 165 82.0168 165 81.9715 165 81.9326 C 165 81.8938 165 81.8484 165 81.8096 C 165 81.7707 164.987 81.7318 164.981 81.693 C 164.974 81.6541 164.968 81.6088 164.955 81.5699 C 164.942 81.531 164.922 81.4922 164.909 81.4533 C 164.89 81.4144 164.877 81.3756 164.857 81.3432 C 164.832 81.3043 164.806 81.2655 164.773 81.2266 C 164.754 81.2007 164.741 81.1748 164.721 81.1489 C 148.307 61.807 131.582 52 115 52 C 98.4175 52 81.6926 61.807 65.2785 81.1489 C 65.2591 81.1748 65.2461 81.2007 65.2267 81.2266 C 65.2008 81.2655 65.1684 81.3043 65.1425 81.3432 C 65.1231 81.382 65.1101 81.4209 65.0907 81.4533 C 65.0713 81.4922 65.0583 81.531 65.0453 81.5699 C 65.0324 81.6088 65.0259 81.6541 65.0194 81.693 C 65.013 81.7318 65 81.7707 65 81.8096 C 65 81.8484 65 81.8938 65 81.9326 C 65 81.9715 65 82.0168 65 82.0557 C 65 82.0946 65.013 82.1334 65.0194 82.1723 C 65.0259 82.2112 65.0324 82.2565 65.0453 82.2954 C 65.0583 82.3342 65.0777 82.3731 65.0907 82.412 C 65.1101 82.4508 65.1231 82.4897 65.1425 82.5221 C 65.1684 82.561 65.1943 82.5998 65.2267 82.6387 C 65.2461 82.6646 65.2591 82.6905 65.2785 82.7164 C 81.6926 102.058 98.4175 111.865 115 111.865 C 131.582 111.865 148.307 102.058 164.721 82.7164 C 164.741 82.6905 164.754 82.6646 164.773 82.6387 C 164.799 82.5998 164.832 82.561 164.857 82.5221 C 164.877 82.4832 164.89 82.4444 164.909 82.412 Z"
					stroke-linecap="round" />
			</g>
			<g transform="matrix(1 0 0 1 -0.0002 -20.0672)" clip-path="url(#CLIPPATH_3)">
				<clipPath id="CLIPPATH_3">
					<rect transform="matrix(1 0 0 1 0.0002 20.0672)" id="clip0_1_1193" x="-115" y="-102" rx="0" ry="0" width="230"
						height="204" />
				</clipPath>
				<path
					style="stroke: rgb(51,51,51); stroke-width: 2.5; stroke-dasharray: none; stroke-linecap: butt; stroke-dashoffset: 0; stroke-linejoin: miter; stroke-miterlimit: 10; is-custom-font: none; font-file-url: none; fill: rgb(97,131,101); fill-rule: nonzero; opacity: 1;"
					transform=" translate(-114.9998, -81.9328)"
					d="M 115 111.723 C 131.567 111.723 144.997 98.3853 144.997 81.9327 C 144.997 65.4801 131.567 52.1426 115 52.1426 C 98.4329 52.1426 85.0026 65.4801 85.0026 81.9327 C 85.0026 98.3853 98.4329 111.723 115 111.723 Z"
					stroke-linecap="round" />
			</g>
			<g transform="matrix(1 0 0 1 -0.396 -17.7804)" clip-path="url(#CLIPPATH_4)">
				<clipPath id="CLIPPATH_4">
					<rect transform="matrix(1 0 0 1 0.396 17.7804)" id="clip0_1_1193" x="-115" y="-102" rx="0" ry="0" width="230"
						height="204" />
				</clipPath>
				<path
					style="stroke: none; stroke-width: 1; stroke-dasharray: none; stroke-linecap: butt; stroke-dashoffset: 0; stroke-linejoin: miter; stroke-miterlimit: 4; is-custom-font: none; font-file-url: none; fill: rgb(255,255,255); fill-rule: nonzero; opacity: 1;"
					transform=" translate(-114.604, -84.2196)"
					d="M 123.082 74.0496 H 116.548 C 117.304 74.4816 117.886 75.0036 118.294 75.6156 C 118.702 76.2156 118.972 76.8936 119.104 77.6496 H 123.082 V 80.4036 H 119.068 C 118.816 81.6516 118.222 82.7436 117.286 83.6796 C 116.362 84.6156 115.138 85.3056 113.614 85.7496 C 114.19 86.0496 114.676 86.4936 115.072 87.0816 L 122.344 97.1436 H 118.924 C 118.252 97.1436 117.748 96.8736 117.412 96.3336 L 111.04 87.3696 C 110.836 87.0696 110.614 86.8596 110.374 86.7396 C 110.134 86.6076 109.768 86.5416 109.276 86.5416 H 106.162 V 83.8956 H 109.6 C 111.208 83.8956 112.492 83.5776 113.452 82.9416 C 114.424 82.2936 115.066 81.4476 115.378 80.4036 H 106.126 V 77.6496 H 115.468 C 115.216 76.5336 114.61 75.6756 113.65 75.0756 C 112.702 74.4636 111.394 74.1576 109.726 74.1576 H 106.162 V 71.2956 H 123.082 V 74.0496 Z"
					stroke-linecap="round" />
			</g>
		</g>
	</g>
</svg>