<svg xmlns="http://www.w3.org/2000/svg" width="230" height="204" viewBox="0 0 230 204" fill="none">
  <g clip-path="url(#clip0_1_1193)">
    <path d="M230 0H0V204H230V0Z" fill="white" />
    <path
      d="M164.909 82.412C164.929 82.3731 164.942 82.3342 164.955 82.2954C164.968 82.2565 164.974 82.2112 164.981 82.1723C164.987 82.1334 165 82.0946 165 82.0557C165 82.0168 165 81.9715 165 81.9326C165 81.8938 165 81.8484 165 81.8096C165 81.7707 164.987 81.7318 164.981 81.693C164.974 81.6541 164.968 81.6088 164.955 81.5699C164.942 81.531 164.922 81.4922 164.909 81.4533C164.89 81.4144 164.877 81.3756 164.857 81.3432C164.832 81.3043 164.806 81.2655 164.773 81.2266C164.754 81.2007 164.741 81.1748 164.721 81.1489C148.307 61.807 131.582 52 115 52C98.4175 52 81.6926 61.807 65.2785 81.1489C65.2591 81.1748 65.2461 81.2007 65.2267 81.2266C65.2008 81.2655 65.1684 81.3043 65.1425 81.3432C65.1231 81.382 65.1101 81.4209 65.0907 81.4533C65.0713 81.4922 65.0583 81.531 65.0453 81.5699C65.0324 81.6088 65.0259 81.6541 65.0194 81.693C65.013 81.7318 65 81.7707 65 81.8096C65 81.8484 65 81.8938 65 81.9326C65 81.9715 65 82.0168 65 82.0557C65 82.0946 65.013 82.1334 65.0194 82.1723C65.0259 82.2112 65.0324 82.2565 65.0453 82.2954C65.0583 82.3342 65.0777 82.3731 65.0907 82.412C65.1101 82.4508 65.1231 82.4897 65.1425 82.5221C65.1684 82.561 65.1943 82.5998 65.2267 82.6387C65.2461 82.6646 65.2591 82.6905 65.2785 82.7164C81.6926 102.058 98.4175 111.865 115 111.865C131.582 111.865 148.307 102.058 164.721 82.7164C164.741 82.6905 164.754 82.6646 164.773 82.6387C164.799 82.5998 164.832 82.561 164.857 82.5221C164.877 82.4832 164.89 82.4444 164.909 82.412Z"
      stroke="#333333" stroke-width="2.5" stroke-miterlimit="10" />
    <path
      d="M115 111.723C131.567 111.723 144.997 98.3853 144.997 81.9327C144.997 65.4801 131.567 52.1426 115 52.1426C98.4329 52.1426 85.0026 65.4801 85.0026 81.9327C85.0026 98.3853 98.4329 111.723 115 111.723Z"
      fill="#618365" stroke="#333333" stroke-width="2.5" stroke-miterlimit="10" />
    <path
      d="M123.082 74.0496H116.548C117.304 74.4816 117.886 75.0036 118.294 75.6156C118.702 76.2156 118.972 76.8936 119.104 77.6496H123.082V80.4036H119.068C118.816 81.6516 118.222 82.7436 117.286 83.6796C116.362 84.6156 115.138 85.3056 113.614 85.7496C114.19 86.0496 114.676 86.4936 115.072 87.0816L122.344 97.1436H118.924C118.252 97.1436 117.748 96.8736 117.412 96.3336L111.04 87.3696C110.836 87.0696 110.614 86.8596 110.374 86.7396C110.134 86.6076 109.768 86.5416 109.276 86.5416H106.162V83.8956H109.6C111.208 83.8956 112.492 83.5776 113.452 82.9416C114.424 82.2936 115.066 81.4476 115.378 80.4036H106.126V77.6496H115.468C115.216 76.5336 114.61 75.6756 113.65 75.0756C112.702 74.4636 111.394 74.1576 109.726 74.1576H106.162V71.2956H123.082V74.0496Z"
      fill="white" />

  </g>
  <defs>
    <clipPath id="clip0_1_1193">
      <rect width="230" height="204" fill="white" />
    </clipPath>
  </defs>
</svg>