<svg xmlns="http://www.w3.org/2000/svg" width="230" height="204" viewBox="0 0 230 204" fill="none">
  <g clip-path="url(#clip0_1_1229)">
    <path d="M230 0H0V204H230V0Z" fill="white" />
    <path d="M143.473 115.864H85.1815V109.533H143.473V113.15V115.864Z" fill="#618365" />
    <path d="M85.1815 109.533H143.473" stroke="#333333" stroke-width="2.5" stroke-linecap="round"
      stroke-linejoin="round" />
    <path d="M143.473 115.864H85.1815" stroke="#333333" stroke-width="2.5" stroke-linecap="round"
      stroke-linejoin="round" />
    <path
      d="M143.976 101.359C143.976 85.1092 130.802 71.9351 114.553 71.9351C98.303 71.9351 85.1288 85.1092 85.1288 101.359"
      fill="#95BEE0" />
    <path
      d="M143.976 101.359C143.976 85.1092 130.802 71.9351 114.553 71.9351C98.303 71.9351 85.1288 85.1092 85.1288 101.359"
      stroke="#333333" stroke-width="2.5" stroke-linecap="round" stroke-linejoin="round" />
    <path d="M144.074 102.231H84.8882V123H144.074V102.231Z" stroke="#333333" stroke-width="2.5" stroke-linecap="round"
      stroke-linejoin="round" />
    <path d="M145.014 102.366L156.068 112.533L145.014 122.699" stroke="#333333" stroke-width="2.5"
      stroke-linecap="round" stroke-linejoin="round" />
    <path
      d="M84.6852 102.231H81.5044C77.3612 102.231 74 105.592 74 109.736V115.496C74 119.639 77.3612 123 81.5044 123H84.6852"
      stroke="#333333" stroke-width="2.5" stroke-linecap="round" stroke-linejoin="round" />
    <path
      d="M114.553 71.6795C123.024 71.6795 129.892 64.8117 129.892 56.3398C129.892 47.8678 123.024 41 114.553 41C106.081 41 99.2128 47.8678 99.2128 56.3398C99.2128 64.8117 106.081 71.6795 114.553 71.6795Z"
      stroke="#333333" stroke-width="2.5" stroke-linecap="round" stroke-linejoin="round" />

  </g>
  <defs>
    <clipPath id="clip0_1_1229">
      <rect width="230" height="204" fill="white" />
    </clipPath>
  </defs>
</svg>