<svg xmlns="http://www.w3.org/2000/svg" width="230" height="204" viewBox="0 0 230 204" fill="none">
  <g clip-path="url(#clip0_1_1229)">
    <path d="M230 0H0V204H230V0Z" fill="white" />
    <path d="M143.473 115.864H85.1815V109.533H143.473V113.15V115.864Z" fill="#618365" />
    <path d="M85.1815 109.533H143.473" stroke="#333333" stroke-width="2.5" stroke-linecap="round"
      stroke-linejoin="round" />
    <path d="M143.473 115.864H85.1815" stroke="#333333" stroke-width="2.5" stroke-linecap="round"
      stroke-linejoin="round" />
    <path
      d="M143.976 101.359C143.976 85.1092 130.802 71.9351 114.553 71.9351C98.303 71.9351 85.1288 85.1092 85.1288 101.359"
      fill="#95BEE0" />
    <path
      d="M143.976 101.359C143.976 85.1092 130.802 71.9351 114.553 71.9351C98.303 71.9351 85.1288 85.1092 85.1288 101.359"
      stroke="#333333" stroke-width="2.5" stroke-linecap="round" stroke-linejoin="round" />
    <path d="M144.074 102.231H84.8882V123H144.074V102.231Z" stroke="#333333" stroke-width="2.5" stroke-linecap="round"
      stroke-linejoin="round" />
    <path d="M145.014 102.366L156.068 112.533L145.014 122.699" stroke="#333333" stroke-width="2.5"
      stroke-linecap="round" stroke-linejoin="round" />
    <path
      d="M84.6852 102.231H81.5044C77.3612 102.231 74 105.592 74 109.736V115.496C74 119.639 77.3612 123 81.5044 123H84.6852"
      stroke="#333333" stroke-width="2.5" stroke-linecap="round" stroke-linejoin="round" />
    <path
      d="M114.553 71.6795C123.024 71.6795 129.892 64.8117 129.892 56.3398C129.892 47.8678 123.024 41 114.553 41C106.081 41 99.2128 47.8678 99.2128 56.3398C99.2128 64.8117 106.081 71.6795 114.553 71.6795Z"
      stroke="#333333" stroke-width="2.5" stroke-linecap="round" stroke-linejoin="round" />
    <path
      d="M99.7335 158.139C99.3159 158.133 98.8983 158.053 98.4806 157.901C98.063 157.748 97.6819 157.491 97.3372 157.13C96.9925 156.765 96.7157 156.273 96.5069 155.653C96.2981 155.03 96.1937 154.248 96.1937 153.307C96.1937 152.405 96.2782 151.607 96.4473 150.911C96.6163 150.211 96.8616 149.623 97.1831 149.146C97.5046 148.665 97.8923 148.3 98.3464 148.052C98.8038 147.803 99.3192 147.679 99.8926 147.679C100.463 147.679 100.97 147.793 101.414 148.022C101.861 148.247 102.226 148.562 102.508 148.967C102.789 149.371 102.972 149.837 103.055 150.364H101.841C101.729 149.906 101.51 149.527 101.185 149.225C100.86 148.924 100.43 148.773 99.8926 148.773C99.1038 148.773 98.4823 149.116 98.0282 149.802C97.5775 150.488 97.3504 151.451 97.3471 152.69H97.4267C97.6123 152.409 97.8327 152.168 98.0879 151.969C98.3464 151.767 98.6315 151.612 98.943 151.502C99.2546 151.393 99.5844 151.338 99.9324 151.338C100.516 151.338 101.049 151.484 101.533 151.776C102.017 152.064 102.405 152.463 102.697 152.974C102.988 153.481 103.134 154.062 103.134 154.719C103.134 155.348 102.993 155.925 102.711 156.449C102.43 156.969 102.034 157.384 101.523 157.692C101.016 157.997 100.42 158.146 99.7335 158.139ZM99.7335 157.045C100.151 157.045 100.526 156.941 100.857 156.732C101.192 156.523 101.455 156.243 101.648 155.892C101.843 155.541 101.941 155.15 101.941 154.719C101.941 154.298 101.846 153.915 101.657 153.57C101.472 153.222 101.215 152.946 100.887 152.74C100.562 152.535 100.191 152.432 99.7733 152.432C99.4584 152.432 99.1651 152.495 98.8933 152.621C98.6215 152.743 98.3829 152.912 98.1774 153.128C97.9752 153.343 97.8162 153.59 97.7001 153.869C97.5841 154.144 97.5261 154.434 97.5261 154.739C97.5261 155.143 97.6206 155.521 97.8095 155.872C98.0017 156.223 98.2636 156.507 98.595 156.722C98.9297 156.938 99.3092 157.045 99.7335 157.045ZM108.41 158.139C107.661 158.139 107.023 157.935 106.496 157.528C105.969 157.117 105.566 156.522 105.288 155.743C105.01 154.961 104.87 154.016 104.87 152.909C104.87 151.809 105.01 150.869 105.288 150.09C105.57 149.308 105.974 148.711 106.501 148.3C107.031 147.886 107.668 147.679 108.41 147.679C109.153 147.679 109.787 147.886 110.314 148.3C110.845 148.711 111.249 149.308 111.527 150.09C111.809 150.869 111.95 151.809 111.95 152.909C111.95 154.016 111.811 154.961 111.532 155.743C111.254 156.522 110.851 157.117 110.324 157.528C109.797 157.935 109.159 158.139 108.41 158.139ZM108.41 157.045C109.153 157.045 109.729 156.687 110.14 155.972C110.551 155.256 110.757 154.235 110.757 152.909C110.757 152.027 110.662 151.277 110.473 150.657C110.288 150.037 110.019 149.565 109.668 149.24C109.32 148.915 108.901 148.753 108.41 148.753C107.674 148.753 107.099 149.116 106.685 149.842C106.271 150.564 106.064 151.587 106.064 152.909C106.064 153.791 106.156 154.54 106.342 155.156C106.528 155.773 106.794 156.242 107.142 156.563C107.494 156.885 107.916 157.045 108.41 157.045ZM117.16 158.139C116.411 158.139 115.773 157.935 115.246 157.528C114.719 157.117 114.316 156.522 114.038 155.743C113.76 154.961 113.62 154.016 113.62 152.909C113.62 151.809 113.76 150.869 114.038 150.09C114.32 149.308 114.724 148.711 115.251 148.3C115.781 147.886 116.418 147.679 117.16 147.679C117.903 147.679 118.537 147.886 119.064 148.3C119.595 148.711 119.999 149.308 120.277 150.09C120.559 150.869 120.7 151.809 120.7 152.909C120.7 154.016 120.561 154.961 120.282 155.743C120.004 156.522 119.601 157.117 119.074 157.528C118.547 157.935 117.909 158.139 117.16 158.139ZM117.16 157.045C117.903 157.045 118.479 156.687 118.89 155.972C119.301 155.256 119.507 154.235 119.507 152.909C119.507 152.027 119.412 151.277 119.223 150.657C119.038 150.037 118.769 149.565 118.418 149.24C118.07 148.915 117.651 148.753 117.16 148.753C116.424 148.753 115.849 149.116 115.435 149.842C115.021 150.564 114.814 151.587 114.814 152.909C114.814 153.791 114.906 154.54 115.092 155.156C115.278 155.773 115.544 156.242 115.892 156.563C116.244 156.885 116.666 157.045 117.16 157.045ZM125.592 156.21V149.648H126.706V156.21H125.592ZM122.868 153.486V152.372H129.43V153.486H122.868ZM52.0528 164.818V175H50.8199V164.818H52.0528ZM55.5392 170.406V175H54.3659V167.364H55.4994V168.557H55.5988C55.7778 168.169 56.0496 167.857 56.4142 167.622C56.7787 167.384 57.2494 167.264 57.8261 167.264C58.3431 167.264 58.7955 167.37 59.1833 167.582C59.5711 167.791 59.8727 168.109 60.0882 168.537C60.3036 168.961 60.4113 169.498 60.4113 170.148V175H59.238V170.227C59.238 169.627 59.0822 169.16 58.7707 168.825C58.4591 168.487 58.0316 168.318 57.488 168.318C57.1135 168.318 56.7787 168.399 56.4838 168.562C56.1921 168.724 55.9617 168.961 55.7927 169.273C55.6237 169.584 55.5392 169.962 55.5392 170.406ZM66.9303 170.088V171.182H62.4758V170.088H66.9303ZM69.1539 175V164.818H70.3868V169.352H75.8158V164.818H77.0487V175H75.8158V170.446H70.3868V175H69.1539ZM82.4603 175.159C81.7709 175.159 81.166 174.995 80.6457 174.667C80.1286 174.339 79.7243 173.88 79.4326 173.29C79.1443 172.7 79.0001 172.01 79.0001 171.222C79.0001 170.426 79.1443 169.732 79.4326 169.138C79.7243 168.545 80.1286 168.085 80.6457 167.756C81.166 167.428 81.7709 167.264 82.4603 167.264C83.1497 167.264 83.7529 167.428 84.27 167.756C84.7903 168.085 85.1947 168.545 85.483 169.138C85.7747 169.732 85.9205 170.426 85.9205 171.222C85.9205 172.01 85.7747 172.7 85.483 173.29C85.1947 173.88 84.7903 174.339 84.27 174.667C83.7529 174.995 83.1497 175.159 82.4603 175.159ZM82.4603 174.105C82.984 174.105 83.4149 173.971 83.7529 173.702C84.091 173.434 84.3412 173.081 84.5036 172.643C84.666 172.206 84.7472 171.732 84.7472 171.222C84.7472 170.711 84.666 170.236 84.5036 169.795C84.3412 169.354 84.091 168.998 83.7529 168.726C83.4149 168.454 82.984 168.318 82.4603 168.318C81.9366 168.318 81.5058 168.454 81.1677 168.726C80.8296 168.998 80.5794 169.354 80.417 169.795C80.2546 170.236 80.1734 170.711 80.1734 171.222C80.1734 171.732 80.2546 172.206 80.417 172.643C80.5794 173.081 80.8296 173.434 81.1677 173.702C81.5058 173.971 81.9366 174.105 82.4603 174.105ZM92.5241 171.878V167.364H93.6974V175H92.5241V173.707H92.4445C92.2655 174.095 91.9871 174.425 91.6093 174.697C91.2314 174.965 90.7542 175.099 90.1775 175.099C89.7002 175.099 89.276 174.995 88.9047 174.786C88.5335 174.574 88.2419 174.256 88.0297 173.832C87.8176 173.404 87.7116 172.866 87.7116 172.216V167.364H88.8849V172.136C88.8849 172.693 89.0406 173.137 89.3522 173.469C89.6671 173.8 90.0681 173.966 90.5553 173.966C90.847 173.966 91.1436 173.891 91.4452 173.742C91.7501 173.593 92.0054 173.364 92.2108 173.056C92.4197 172.748 92.5241 172.355 92.5241 171.878ZM101.255 169.074L100.201 169.372C100.135 169.196 100.037 169.026 99.9081 168.86C99.7822 168.691 99.6098 168.552 99.3911 168.442C99.1723 168.333 98.8923 168.278 98.5509 168.278C98.0835 168.278 97.6941 168.386 97.3825 168.602C97.0743 168.814 96.9202 169.084 96.9202 169.412C96.9202 169.704 97.0262 169.934 97.2384 170.103C97.4506 170.272 97.7819 170.413 98.2327 170.526L99.3662 170.804C100.049 170.97 100.558 171.223 100.892 171.565C101.227 171.903 101.395 172.339 101.395 172.872C101.395 173.31 101.269 173.701 101.017 174.045C100.768 174.39 100.42 174.662 99.9727 174.861C99.5253 175.06 99.0049 175.159 98.4117 175.159C97.6328 175.159 96.9881 174.99 96.4777 174.652C95.9673 174.314 95.6441 173.82 95.5083 173.17L96.6219 172.892C96.728 173.303 96.9286 173.611 97.2235 173.817C97.5219 174.022 97.9112 174.125 98.3918 174.125C98.9387 174.125 99.3728 174.009 99.6943 173.777C100.019 173.542 100.182 173.26 100.182 172.932C100.182 172.667 100.089 172.445 99.9031 172.266C99.7175 172.083 99.4325 171.947 99.048 171.858L97.7753 171.56C97.076 171.394 96.5622 171.137 96.2341 170.789C95.9093 170.438 95.7469 169.999 95.7469 169.472C95.7469 169.041 95.8679 168.66 96.1098 168.328C96.3551 167.997 96.6882 167.737 97.1091 167.548C97.5334 167.359 98.014 167.264 98.5509 167.264C99.3066 167.264 99.8998 167.43 100.331 167.761C100.765 168.093 101.073 168.53 101.255 169.074ZM106.362 175.159C105.627 175.159 104.992 174.997 104.458 174.672C103.928 174.344 103.519 173.886 103.23 173.3C102.945 172.71 102.803 172.024 102.803 171.241C102.803 170.459 102.945 169.77 103.23 169.173C103.519 168.573 103.92 168.106 104.434 167.771C104.951 167.433 105.554 167.264 106.243 167.264C106.641 167.264 107.034 167.33 107.421 167.463C107.809 167.596 108.162 167.811 108.48 168.109C108.799 168.404 109.052 168.795 109.241 169.283C109.43 169.77 109.524 170.37 109.524 171.082V171.58H103.638V170.565H108.331C108.331 170.134 108.245 169.75 108.073 169.412C107.904 169.074 107.662 168.807 107.347 168.612C107.035 168.416 106.667 168.318 106.243 168.318C105.776 168.318 105.371 168.434 105.03 168.666C104.692 168.895 104.432 169.193 104.25 169.561C104.067 169.929 103.976 170.323 103.976 170.744V171.42C103.976 171.997 104.076 172.486 104.274 172.887C104.477 173.285 104.757 173.588 105.115 173.797C105.473 174.002 105.889 174.105 106.362 174.105C106.671 174.105 106.949 174.062 107.198 173.976C107.45 173.886 107.667 173.754 107.849 173.578C108.031 173.399 108.172 173.177 108.272 172.912L109.405 173.23C109.286 173.615 109.085 173.953 108.804 174.244C108.522 174.533 108.174 174.758 107.759 174.92C107.345 175.08 106.88 175.159 106.362 175.159ZM118.548 175H115.406V164.818H118.687C119.675 164.818 120.52 165.022 121.223 165.43C121.925 165.834 122.464 166.416 122.838 167.175C123.213 167.93 123.4 168.835 123.4 169.889C123.4 170.95 123.211 171.863 122.833 172.629C122.456 173.391 121.905 173.978 121.183 174.388C120.46 174.796 119.582 175 118.548 175ZM116.639 173.906H118.468C119.31 173.906 120.008 173.744 120.561 173.419C121.115 173.094 121.527 172.632 121.799 172.032C122.071 171.432 122.207 170.718 122.207 169.889C122.207 169.067 122.073 168.36 121.804 167.766C121.536 167.17 121.135 166.712 120.601 166.394C120.068 166.073 119.403 165.912 118.608 165.912H116.639V173.906ZM128.511 175.159C127.775 175.159 127.14 174.997 126.607 174.672C126.076 174.344 125.667 173.886 125.379 173.3C125.094 172.71 124.951 172.024 124.951 171.241C124.951 170.459 125.094 169.77 125.379 169.173C125.667 168.573 126.068 168.106 126.582 167.771C127.099 167.433 127.702 167.264 128.392 167.264C128.789 167.264 129.182 167.33 129.57 167.463C129.958 167.596 130.311 167.811 130.629 168.109C130.947 168.404 131.201 168.795 131.389 169.283C131.578 169.77 131.673 170.37 131.673 171.082V171.58H125.786V170.565H130.48C130.48 170.134 130.393 169.75 130.221 169.412C130.052 169.074 129.81 168.807 129.495 168.612C129.184 168.416 128.816 168.318 128.392 168.318C127.924 168.318 127.52 168.434 127.179 168.666C126.84 168.895 126.58 169.193 126.398 169.561C126.216 169.929 126.125 170.323 126.125 170.744V171.42C126.125 171.997 126.224 172.486 126.423 172.887C126.625 173.285 126.905 173.588 127.263 173.797C127.621 174.002 128.037 174.105 128.511 174.105C128.819 174.105 129.098 174.062 129.346 173.976C129.598 173.886 129.815 173.754 129.997 173.578C130.18 173.399 130.321 173.177 130.42 172.912L131.554 173.23C131.434 173.615 131.234 173.953 130.952 174.244C130.67 174.533 130.322 174.758 129.908 174.92C129.494 175.08 129.028 175.159 128.511 175.159ZM138.867 169.074L137.813 169.372C137.746 169.196 137.649 169.026 137.519 168.86C137.393 168.691 137.221 168.552 137.002 168.442C136.784 168.333 136.504 168.278 136.162 168.278C135.695 168.278 135.305 168.386 134.994 168.602C134.686 168.814 134.532 169.084 134.532 169.412C134.532 169.704 134.638 169.934 134.85 170.103C135.062 170.272 135.393 170.413 135.844 170.526L136.978 170.804C137.66 170.97 138.169 171.223 138.504 171.565C138.839 171.903 139.006 172.339 139.006 172.872C139.006 173.31 138.88 173.701 138.628 174.045C138.38 174.39 138.032 174.662 137.584 174.861C137.137 175.06 136.616 175.159 136.023 175.159C135.244 175.159 134.599 174.99 134.089 174.652C133.579 174.314 133.255 173.82 133.12 173.17L134.233 172.892C134.339 173.303 134.54 173.611 134.835 173.817C135.133 174.022 135.523 174.125 136.003 174.125C136.55 174.125 136.984 174.009 137.306 173.777C137.63 173.542 137.793 173.26 137.793 172.932C137.793 172.667 137.7 172.445 137.514 172.266C137.329 172.083 137.044 171.947 136.659 171.858L135.387 171.56C134.687 171.394 134.174 171.137 133.845 170.789C133.521 170.438 133.358 169.999 133.358 169.472C133.358 169.041 133.479 168.66 133.721 168.328C133.966 167.997 134.3 167.737 134.72 167.548C135.145 167.359 135.625 167.264 136.162 167.264C136.918 167.264 137.511 167.43 137.942 167.761C138.376 168.093 138.684 168.53 138.867 169.074ZM140.772 175V167.364H141.945V175H140.772ZM141.369 166.091C141.14 166.091 140.943 166.013 140.777 165.857C140.615 165.701 140.533 165.514 140.533 165.295C140.533 165.077 140.615 164.889 140.777 164.734C140.943 164.578 141.14 164.5 141.369 164.5C141.597 164.5 141.793 164.578 141.955 164.734C142.121 164.889 142.204 165.077 142.204 165.295C142.204 165.514 142.121 165.701 141.955 165.857C141.793 166.013 141.597 166.091 141.369 166.091ZM147.177 178.023C146.61 178.023 146.123 177.95 145.715 177.804C145.307 177.661 144.968 177.473 144.696 177.237C144.427 177.005 144.214 176.757 144.055 176.491L144.989 175.835C145.095 175.974 145.23 176.134 145.392 176.312C145.554 176.495 145.776 176.652 146.058 176.785C146.343 176.921 146.716 176.989 147.177 176.989C147.793 176.989 148.302 176.839 148.703 176.541C149.104 176.243 149.305 175.776 149.305 175.139V173.588H149.205C149.119 173.727 148.996 173.9 148.837 174.105C148.681 174.307 148.456 174.488 148.161 174.647C147.869 174.803 147.475 174.881 146.978 174.881C146.361 174.881 145.808 174.735 145.317 174.443C144.83 174.152 144.444 173.727 144.159 173.17C143.877 172.614 143.736 171.937 143.736 171.142C143.736 170.36 143.874 169.679 144.149 169.099C144.424 168.515 144.807 168.065 145.297 167.746C145.788 167.425 146.355 167.264 146.998 167.264C147.495 167.264 147.889 167.347 148.181 167.513C148.476 167.675 148.701 167.861 148.857 168.07C149.016 168.275 149.139 168.444 149.225 168.577H149.344V167.364H150.478V175.219C150.478 175.875 150.329 176.409 150.03 176.82C149.735 177.234 149.338 177.537 148.837 177.729C148.34 177.925 147.787 178.023 147.177 178.023ZM147.137 173.827C147.608 173.827 148.005 173.719 148.33 173.504C148.655 173.288 148.902 172.978 149.071 172.574C149.24 172.17 149.324 171.686 149.324 171.122C149.324 170.572 149.242 170.086 149.076 169.665C148.91 169.245 148.665 168.915 148.34 168.676C148.015 168.437 147.614 168.318 147.137 168.318C146.64 168.318 146.226 168.444 145.894 168.696C145.566 168.948 145.319 169.286 145.153 169.71C144.991 170.134 144.91 170.605 144.91 171.122C144.91 171.652 144.993 172.121 145.158 172.529C145.327 172.933 145.576 173.252 145.904 173.484C146.235 173.712 146.646 173.827 147.137 173.827ZM153.799 170.406V175H152.626V167.364H153.759V168.557H153.859C154.038 168.169 154.309 167.857 154.674 167.622C155.039 167.384 155.509 167.264 156.086 167.264C156.603 167.264 157.055 167.37 157.443 167.582C157.831 167.791 158.132 168.109 158.348 168.537C158.563 168.961 158.671 169.498 158.671 170.148V175H157.498V170.227C157.498 169.627 157.342 169.16 157.03 168.825C156.719 168.487 156.291 168.318 155.748 168.318C155.373 168.318 155.039 168.399 154.744 168.562C154.452 168.724 154.222 168.961 154.052 169.273C153.883 169.584 153.799 169.962 153.799 170.406ZM164.017 175.159C163.281 175.159 162.646 174.997 162.113 174.672C161.582 174.344 161.173 173.886 160.885 173.3C160.6 172.71 160.457 172.024 160.457 171.241C160.457 170.459 160.6 169.77 160.885 169.173C161.173 168.573 161.574 168.106 162.088 167.771C162.605 167.433 163.208 167.264 163.897 167.264C164.295 167.264 164.688 167.33 165.076 167.463C165.464 167.596 165.816 167.811 166.135 168.109C166.453 168.404 166.706 168.795 166.895 169.283C167.084 169.77 167.179 170.37 167.179 171.082V171.58H161.292V170.565H165.986C165.986 170.134 165.899 169.75 165.727 169.412C165.558 169.074 165.316 168.807 165.001 168.612C164.69 168.416 164.322 168.318 163.897 168.318C163.43 168.318 163.026 168.434 162.684 168.666C162.346 168.895 162.086 169.193 161.904 169.561C161.722 169.929 161.63 170.323 161.63 170.744V171.42C161.63 171.997 161.73 172.486 161.929 172.887C162.131 173.285 162.411 173.588 162.769 173.797C163.127 174.002 163.543 174.105 164.017 174.105C164.325 174.105 164.603 174.062 164.852 173.976C165.104 173.886 165.321 173.754 165.503 173.578C165.686 173.399 165.826 173.177 165.926 172.912L167.059 173.23C166.94 173.615 166.74 173.953 166.458 174.244C166.176 174.533 165.828 174.758 165.414 174.92C164.999 175.08 164.534 175.159 164.017 175.159ZM168.964 175V167.364H170.097V168.517H170.177C170.316 168.139 170.568 167.833 170.932 167.597C171.297 167.362 171.708 167.244 172.165 167.244C172.251 167.244 172.359 167.246 172.488 167.249C172.618 167.253 172.715 167.258 172.782 167.264V168.457C172.742 168.447 172.651 168.433 172.508 168.413C172.369 168.389 172.222 168.378 172.066 168.378C171.695 168.378 171.363 168.456 171.071 168.612C170.783 168.764 170.554 168.976 170.385 169.248C170.22 169.516 170.137 169.823 170.137 170.168V175H168.964ZM179.582 169.074L178.528 169.372C178.461 169.196 178.364 169.026 178.234 168.86C178.108 168.691 177.936 168.552 177.717 168.442C177.498 168.333 177.218 168.278 176.877 168.278C176.41 168.278 176.02 168.386 175.709 168.602C175.4 168.814 175.246 169.084 175.246 169.412C175.246 169.704 175.352 169.934 175.565 170.103C175.777 170.272 176.108 170.413 176.559 170.526L177.692 170.804C178.375 170.97 178.884 171.223 179.219 171.565C179.553 171.903 179.721 172.339 179.721 172.872C179.721 173.31 179.595 173.701 179.343 174.045C179.094 174.39 178.746 174.662 178.299 174.861C177.851 175.06 177.331 175.159 176.738 175.159C175.959 175.159 175.314 174.99 174.804 174.652C174.293 174.314 173.97 173.82 173.834 173.17L174.948 172.892C175.054 173.303 175.255 173.611 175.55 173.817C175.848 174.022 176.237 174.125 176.718 174.125C177.265 174.125 177.699 174.009 178.021 173.777C178.345 173.542 178.508 173.26 178.508 172.932C178.508 172.667 178.415 172.445 178.229 172.266C178.044 172.083 177.759 171.947 177.374 171.858L176.101 171.56C175.402 171.394 174.888 171.137 174.56 170.789C174.235 170.438 174.073 169.999 174.073 169.472C174.073 169.041 174.194 168.66 174.436 168.328C174.681 167.997 175.014 167.737 175.435 167.548C175.86 167.359 176.34 167.264 176.877 167.264C177.633 167.264 178.226 167.43 178.657 167.761C179.091 168.093 179.399 168.53 179.582 169.074Z"
      fill="black" />
  </g>
  <defs>
    <clipPath id="clip0_1_1229">
      <rect width="230" height="204" fill="white" />
    </clipPath>
  </defs>
</svg>