<svg xmlns="http://www.w3.org/2000/svg" xmlns:xlink="http://www.w3.org/1999/xlink" version="1.1" width="1000" height="1000" viewBox="0 0 1000 1000" xml:space="preserve">
<desc>Created with Fabric.js 3.5.0</desc>
<defs>
</defs>
<rect x="0" y="0" width="100%" height="100%" fill="#ffffff"/>
<g transform="matrix(10.7147 0 0 10.7147 500.0047 729.9432)" id="225579">
<g style="" vector-effect="non-scaling-stroke">
		<g transform="matrix(1 0 0 1 0 0)" clip-path="url(#CLIPPATH_1)">
<clipPath id="CLIPPATH_1">
	<rect transform="matrix(1 0 0 1 0 0)" id="clip0_1_1209" x="-115" y="-102" rx="0" ry="0" width="230" height="204"/>
</clipPath>
<path style="stroke: none; stroke-width: 1; stroke-dasharray: none; stroke-linecap: butt; stroke-dashoffset: 0; stroke-linejoin: miter; stroke-miterlimit: 4; is-custom-font: none; font-file-url: none; fill: rgb(255,255,255); fill-rule: nonzero; opacity: 1;" transform=" translate(-115, -102)" d="M 230 0 H 0 V 204 H 230 V 0 Z" stroke-linecap="round"/>
</g>
		<g transform="matrix(1 0 0 1 -11.7005 -20.225)" clip-path="url(#CLIPPATH_2)">
<clipPath id="CLIPPATH_2">
	<rect transform="matrix(1 0 0 1 11.7005 20.225)" id="clip0_1_1209" x="-115" y="-102" rx="0" ry="0" width="230" height="204"/>
</clipPath>
<path style="stroke: rgb(51,51,51); stroke-width: 2.5; stroke-dasharray: none; stroke-linecap: butt; stroke-dashoffset: 0; stroke-linejoin: miter; stroke-miterlimit: 10; is-custom-font: none; font-file-url: none; fill: rgb(255,255,255); fill-rule: nonzero; opacity: 1;" transform=" translate(-103.2995, -81.775)" d="M 129.604 41 H 76.9956 C 74.2366 41 72 43.2366 72 45.9956 V 117.554 C 72 120.313 74.2366 122.55 76.9956 122.55 H 129.604 C 132.363 122.55 134.599 120.313 134.599 117.554 V 45.9956 C 134.599 43.2366 132.363 41 129.604 41 Z" stroke-linecap="round"/>
</g>
		<g transform="matrix(1 0 0 1 -11.7036 -43.8308)" clip-path="url(#CLIPPATH_3)">
<clipPath id="CLIPPATH_3">
	<rect transform="matrix(1 0 0 1 11.7036 43.8308)" id="clip0_1_1209" x="-115" y="-102" rx="0" ry="0" width="230" height="204"/>
</clipPath>
<path style="stroke: rgb(51,51,51); stroke-width: 2.5; stroke-dasharray: none; stroke-linecap: butt; stroke-dashoffset: 0; stroke-linejoin: miter; stroke-miterlimit: 10; is-custom-font: none; font-file-url: none; fill: rgb(149,190,224); fill-rule: nonzero; opacity: 1;" transform=" translate(-103.2964, -58.1692)" d="M 124.902 49.5505 H 81.6903 C 80.6848 49.5505 79.8698 50.3656 79.8698 51.371 V 64.9675 C 79.8698 65.9729 80.6848 66.788 81.6903 66.788 H 124.902 C 125.908 66.788 126.723 65.9729 126.723 64.9675 V 51.371 C 126.723 50.3656 125.908 49.5505 124.902 49.5505 Z" stroke-linecap="round"/>
</g>
		<g transform="matrix(1 0 0 1 -28.4001 -24.6794)" clip-path="url(#CLIPPATH_4)">
<clipPath id="CLIPPATH_4">
	<rect transform="matrix(1 0 0 1 28.4001 24.6794)" id="clip0_1_1209" x="-115" y="-102" rx="0" ry="0" width="230" height="204"/>
</clipPath>
<path style="stroke: rgb(51,51,51); stroke-width: 2.5; stroke-dasharray: none; stroke-linecap: butt; stroke-dashoffset: 0; stroke-linejoin: miter; stroke-miterlimit: 10; is-custom-font: none; font-file-url: none; fill: rgb(255,255,255); fill-rule: nonzero; opacity: 1;" transform=" translate(-86.5999, -77.3206)" d="M 90.9935 73.375 H 82.2063 C 81.9451 73.375 81.7333 73.5868 81.7333 73.848 V 80.7932 C 81.7333 81.0544 81.9451 81.2662 82.2063 81.2662 H 90.9935 C 91.2547 81.2662 91.4665 81.0544 91.4665 80.7932 V 73.848 C 91.4665 73.5868 91.2547 73.375 90.9935 73.375 Z" stroke-linecap="round"/>
</g>
		<g transform="matrix(1 0 0 1 -12.5746 -24.6794)" clip-path="url(#CLIPPATH_5)">
<clipPath id="CLIPPATH_5">
	<rect transform="matrix(1 0 0 1 12.5746 24.6794)" id="clip0_1_1209" x="-115" y="-102" rx="0" ry="0" width="230" height="204"/>
</clipPath>
<path style="stroke: rgb(51,51,51); stroke-width: 2.5; stroke-dasharray: none; stroke-linecap: butt; stroke-dashoffset: 0; stroke-linejoin: miter; stroke-miterlimit: 10; is-custom-font: none; font-file-url: none; fill: rgb(255,255,255); fill-rule: nonzero; opacity: 1;" transform=" translate(-102.4254, -77.3206)" d="M 106.819 73.375 H 98.0317 C 97.7705 73.375 97.5587 73.5868 97.5587 73.848 V 80.7932 C 97.5587 81.0544 97.7705 81.2662 98.0317 81.2662 H 106.819 C 107.08 81.2662 107.292 81.0544 107.292 80.7932 V 73.848 C 107.292 73.5868 107.08 73.375 106.819 73.375 Z" stroke-linecap="round"/>
</g>
		<g transform="matrix(1 0 0 1 3.2505 -24.6794)" clip-path="url(#CLIPPATH_6)">
<clipPath id="CLIPPATH_6">
	<rect transform="matrix(1 0 0 1 -3.2505 24.6794)" id="clip0_1_1209" x="-115" y="-102" rx="0" ry="0" width="230" height="204"/>
</clipPath>
<path style="stroke: rgb(51,51,51); stroke-width: 2.5; stroke-dasharray: none; stroke-linecap: butt; stroke-dashoffset: 0; stroke-linejoin: miter; stroke-miterlimit: 10; is-custom-font: none; font-file-url: none; fill: rgb(255,255,255); fill-rule: nonzero; opacity: 1;" transform=" translate(-118.2505, -77.3206)" d="M 122.644 73.375 H 113.857 C 113.596 73.375 113.384 73.5868 113.384 73.848 V 80.7932 C 113.384 81.0544 113.596 81.2662 113.857 81.2662 H 122.644 C 122.906 81.2662 123.117 81.0544 123.117 80.7932 V 73.848 C 123.117 73.5868 122.906 73.375 122.644 73.375 Z" stroke-linecap="round"/>
</g>
		<g transform="matrix(1 0 0 1 -28.4001 -9.1552)" clip-path="url(#CLIPPATH_7)">
<clipPath id="CLIPPATH_7">
	<rect transform="matrix(1 0 0 1 28.4001 9.1552)" id="clip0_1_1209" x="-115" y="-102" rx="0" ry="0" width="230" height="204"/>
</clipPath>
<path style="stroke: rgb(51,51,51); stroke-width: 2.5; stroke-dasharray: none; stroke-linecap: butt; stroke-dashoffset: 0; stroke-linejoin: miter; stroke-miterlimit: 10; is-custom-font: none; font-file-url: none; fill: rgb(255,255,255); fill-rule: nonzero; opacity: 1;" transform=" translate(-86.5999, -92.8448)" d="M 90.9935 88.8992 H 82.2063 C 81.9451 88.8992 81.7333 89.111 81.7333 89.3722 V 96.3174 C 81.7333 96.5786 81.9451 96.7904 82.2063 96.7904 H 90.9935 C 91.2547 96.7904 91.4665 96.5786 91.4665 96.3174 V 89.3722 C 91.4665 89.111 91.2547 88.8992 90.9935 88.8992 Z" stroke-linecap="round"/>
</g>
		<g transform="matrix(1 0 0 1 -12.5746 -9.1552)" clip-path="url(#CLIPPATH_8)">
<clipPath id="CLIPPATH_8">
	<rect transform="matrix(1 0 0 1 12.5746 9.1552)" id="clip0_1_1209" x="-115" y="-102" rx="0" ry="0" width="230" height="204"/>
</clipPath>
<path style="stroke: rgb(51,51,51); stroke-width: 2.5; stroke-dasharray: none; stroke-linecap: butt; stroke-dashoffset: 0; stroke-linejoin: miter; stroke-miterlimit: 10; is-custom-font: none; font-file-url: none; fill: rgb(255,255,255); fill-rule: nonzero; opacity: 1;" transform=" translate(-102.4254, -92.8448)" d="M 106.819 88.8992 H 98.0317 C 97.7705 88.8992 97.5587 89.111 97.5587 89.3722 V 96.3174 C 97.5587 96.5786 97.7705 96.7904 98.0317 96.7904 H 106.819 C 107.08 96.7904 107.292 96.5786 107.292 96.3174 V 89.3722 C 107.292 89.111 107.08 88.8992 106.819 88.8992 Z" stroke-linecap="round"/>
</g>
		<g transform="matrix(1 0 0 1 3.2505 -9.1552)" clip-path="url(#CLIPPATH_9)">
<clipPath id="CLIPPATH_9">
	<rect transform="matrix(1 0 0 1 -3.2505 9.1552)" id="clip0_1_1209" x="-115" y="-102" rx="0" ry="0" width="230" height="204"/>
</clipPath>
<path style="stroke: rgb(51,51,51); stroke-width: 2.5; stroke-dasharray: none; stroke-linecap: butt; stroke-dashoffset: 0; stroke-linejoin: miter; stroke-miterlimit: 10; is-custom-font: none; font-file-url: none; fill: rgb(255,255,255); fill-rule: nonzero; opacity: 1;" transform=" translate(-118.2505, -92.8448)" d="M 122.644 88.8992 H 113.857 C 113.596 88.8992 113.384 89.111 113.384 89.3722 V 96.3174 C 113.384 96.5786 113.596 96.7904 113.857 96.7904 H 122.644 C 122.906 96.7904 123.117 96.5786 123.117 96.3174 V 89.3722 C 123.117 89.111 122.906 88.8992 122.644 88.8992 Z" stroke-linecap="round"/>
</g>
		<g transform="matrix(1 0 0 1 -28.4001 6.3695)" clip-path="url(#CLIPPATH_10)">
<clipPath id="CLIPPATH_10">
	<rect transform="matrix(1 0 0 1 28.4001 -6.3695)" id="clip0_1_1209" x="-115" y="-102" rx="0" ry="0" width="230" height="204"/>
</clipPath>
<path style="stroke: rgb(51,51,51); stroke-width: 2.5; stroke-dasharray: none; stroke-linecap: butt; stroke-dashoffset: 0; stroke-linejoin: miter; stroke-miterlimit: 10; is-custom-font: none; font-file-url: none; fill: rgb(255,255,255); fill-rule: nonzero; opacity: 1;" transform=" translate(-86.5999, -108.3695)" d="M 90.9935 104.424 H 82.2063 C 81.9451 104.424 81.7333 104.636 81.7333 104.897 V 111.842 C 81.7333 112.103 81.9451 112.315 82.2063 112.315 H 90.9935 C 91.2547 112.315 91.4665 112.103 91.4665 111.842 V 104.897 C 91.4665 104.636 91.2547 104.424 90.9935 104.424 Z" stroke-linecap="round"/>
</g>
		<g transform="matrix(1 0 0 1 -12.5746 6.3695)" clip-path="url(#CLIPPATH_11)">
<clipPath id="CLIPPATH_11">
	<rect transform="matrix(1 0 0 1 12.5746 -6.3695)" id="clip0_1_1209" x="-115" y="-102" rx="0" ry="0" width="230" height="204"/>
</clipPath>
<path style="stroke: rgb(51,51,51); stroke-width: 2.5; stroke-dasharray: none; stroke-linecap: butt; stroke-dashoffset: 0; stroke-linejoin: miter; stroke-miterlimit: 10; is-custom-font: none; font-file-url: none; fill: rgb(255,255,255); fill-rule: nonzero; opacity: 1;" transform=" translate(-102.4254, -108.3695)" d="M 106.819 104.424 H 98.0317 C 97.7705 104.424 97.5587 104.636 97.5587 104.897 V 111.842 C 97.5587 112.103 97.7705 112.315 98.0317 112.315 H 106.819 C 107.08 112.315 107.292 112.103 107.292 111.842 V 104.897 C 107.292 104.636 107.08 104.424 106.819 104.424 Z" stroke-linecap="round"/>
</g>
		<g transform="matrix(1 0 0 1 3.2505 6.3695)" clip-path="url(#CLIPPATH_12)">
<clipPath id="CLIPPATH_12">
	<rect transform="matrix(1 0 0 1 -3.2505 -6.3695)" id="clip0_1_1209" x="-115" y="-102" rx="0" ry="0" width="230" height="204"/>
</clipPath>
<path style="stroke: rgb(51,51,51); stroke-width: 2.5; stroke-dasharray: none; stroke-linecap: butt; stroke-dashoffset: 0; stroke-linejoin: miter; stroke-miterlimit: 10; is-custom-font: none; font-file-url: none; fill: rgb(255,255,255); fill-rule: nonzero; opacity: 1;" transform=" translate(-118.2505, -108.3695)" d="M 122.644 104.424 H 113.857 C 113.596 104.424 113.384 104.636 113.384 104.897 V 111.842 C 113.384 112.103 113.596 112.315 113.857 112.315 H 122.644 C 122.906 112.315 123.117 112.103 123.117 111.842 V 104.897 C 123.117 104.636 122.906 104.424 122.644 104.424 Z" stroke-linecap="round"/>
</g>
		<g transform="matrix(1 0 0 1 19.177 -3.7332)" clip-path="url(#CLIPPATH_13)">
<clipPath id="CLIPPATH_13">
	<rect transform="matrix(1 0 0 1 -19.177 3.7332)" id="clip0_1_1209" x="-115" y="-102" rx="0" ry="0" width="230" height="204"/>
</clipPath>
<path style="stroke: none; stroke-width: 1; stroke-dasharray: none; stroke-linecap: butt; stroke-dashoffset: 0; stroke-linejoin: miter; stroke-miterlimit: 4; is-custom-font: none; font-file-url: none; fill: rgb(255,255,255); fill-rule: nonzero; opacity: 1;" transform=" translate(-134.177, -98.2668)" d="M 159.492 98.267 C 159.492 100.095 156.453 101.557 156.066 103.263 C 155.679 104.968 157.757 107.656 156.99 109.254 C 156.223 110.853 152.84 110.874 151.729 112.265 C 150.618 113.655 151.357 116.945 149.959 118.063 C 148.561 119.181 145.537 117.719 143.917 118.5 C 142.297 119.282 141.573 122.557 139.81 122.958 C 138.047 123.36 136.004 120.722 134.177 120.722 C 132.349 120.722 130.249 123.345 128.543 122.958 C 126.837 122.571 126.027 119.274 124.436 118.5 C 122.845 117.726 119.785 119.174 118.394 118.063 C 117.004 116.952 117.742 113.662 116.624 112.265 C 115.506 110.867 112.144 110.874 111.363 109.254 C 110.582 107.635 112.689 105.033 112.288 103.263 C 111.886 101.492 108.862 100.095 108.862 98.267 C 108.862 96.4393 111.901 94.9772 112.288 93.2713 C 112.675 91.5655 110.596 88.8778 111.363 87.2794 C 112.13 85.6811 115.513 85.6596 116.624 84.2692 C 117.735 82.8787 116.997 79.5889 118.394 78.4708 C 119.792 77.3527 122.816 78.8148 124.436 78.0336 C 126.056 77.2523 126.78 73.9769 128.543 73.5755 C 130.306 73.1741 132.349 75.8117 134.177 75.8117 C 136.004 75.8117 138.104 73.1885 139.81 73.5755 C 141.516 73.9625 142.326 77.2595 143.917 78.0336 C 145.508 78.8077 148.569 77.3599 149.959 78.4708 C 151.35 79.5817 150.611 82.8715 151.729 84.2692 C 152.847 85.6668 156.209 85.6596 156.99 87.2794 C 157.771 88.8993 155.664 91.501 156.066 93.2713 C 156.467 95.0417 159.492 96.4393 159.492 98.267 Z" stroke-linecap="round"/>
</g>
		<g transform="matrix(1 0 0 1 19.177 -3.7332)" clip-path="url(#CLIPPATH_14)">
<clipPath id="CLIPPATH_14">
	<rect transform="matrix(1 0 0 1 -19.177 3.7332)" id="clip0_1_1209" x="-115" y="-102" rx="0" ry="0" width="230" height="204"/>
</clipPath>
<path style="stroke: rgb(51,51,51); stroke-width: 2.5; stroke-dasharray: none; stroke-linecap: butt; stroke-dashoffset: 0; stroke-linejoin: miter; stroke-miterlimit: 10; is-custom-font: none; font-file-url: none; fill: none; fill-rule: nonzero; opacity: 1;" transform=" translate(-134.177, -98.2668)" d="M 159.492 98.267 C 159.492 100.095 156.453 101.557 156.066 103.263 C 155.679 104.968 157.757 107.656 156.99 109.254 C 156.223 110.853 152.84 110.874 151.729 112.265 C 150.618 113.655 151.357 116.945 149.959 118.063 C 148.561 119.181 145.537 117.719 143.917 118.5 C 142.297 119.282 141.573 122.557 139.81 122.958 C 138.047 123.36 136.004 120.722 134.177 120.722 C 132.349 120.722 130.249 123.345 128.543 122.958 C 126.837 122.571 126.027 119.274 124.436 118.5 C 122.845 117.726 119.785 119.174 118.394 118.063 C 117.004 116.952 117.742 113.662 116.624 112.265 C 115.506 110.867 112.144 110.874 111.363 109.254 C 110.582 107.635 112.689 105.033 112.288 103.263 C 111.886 101.492 108.862 100.095 108.862 98.267 C 108.862 96.4393 111.901 94.9772 112.288 93.2713 C 112.675 91.5655 110.596 88.8778 111.363 87.2794 C 112.13 85.6811 115.513 85.6596 116.624 84.2692 C 117.735 82.8787 116.997 79.5889 118.394 78.4708 C 119.792 77.3527 122.816 78.8148 124.436 78.0336 C 126.056 77.2523 126.78 73.9769 128.543 73.5755 C 130.306 73.1741 132.349 75.8117 134.177 75.8117 C 136.004 75.8117 138.104 73.1885 139.81 73.5755 C 141.516 73.9625 142.326 77.2595 143.917 78.0336 C 145.508 78.8077 148.569 77.3599 149.959 78.4708 C 151.35 79.5817 150.611 82.8715 151.729 84.2692 C 152.847 85.6668 156.209 85.6596 156.99 87.2794 C 157.771 88.8993 155.664 91.501 156.066 93.2713 C 156.467 95.0417 159.492 96.4393 159.492 98.267 Z" stroke-linecap="round"/>
</g>
		<g transform="matrix(1 0 0 1 12.425 -10.6567)" clip-path="url(#CLIPPATH_15)">
<clipPath id="CLIPPATH_15">
	<rect transform="matrix(1 0 0 1 -12.425 10.6567)" id="clip0_1_1209" x="-115" y="-102" rx="0" ry="0" width="230" height="204"/>
</clipPath>
<path style="stroke: none; stroke-width: 1; stroke-dasharray: none; stroke-linecap: butt; stroke-dashoffset: 0; stroke-linejoin: miter; stroke-miterlimit: 4; is-custom-font: none; font-file-url: none; fill: rgb(97,131,101); fill-rule: nonzero; opacity: 1;" transform=" translate(-127.425, -91.3433)" d="M 127.425 94.5758 C 129.21 94.5758 130.657 93.1286 130.657 91.3433 C 130.657 89.5581 129.21 88.1108 127.425 88.1108 C 125.64 88.1108 124.193 89.5581 124.193 91.3433 C 124.193 93.1286 125.64 94.5758 127.425 94.5758 Z" stroke-linecap="round"/>
</g>
		<g transform="matrix(1 0 0 1 19.7 -2.9412)" clip-path="url(#CLIPPATH_16)">
<clipPath id="CLIPPATH_16">
	<rect transform="matrix(1 0 0 1 -19.7 2.9411)" id="clip0_1_1209" x="-115" y="-102" rx="0" ry="0" width="230" height="204"/>
</clipPath>
<path style="stroke: rgb(97,131,101); stroke-width: 2.5; stroke-dasharray: none; stroke-linecap: round; stroke-dashoffset: 0; stroke-linejoin: miter; stroke-miterlimit: 10; is-custom-font: none; font-file-url: none; fill: none; fill-rule: nonzero; opacity: 1;" transform=" translate(-134.7, -99.0589)" d="M 124.587 109.326 L 144.813 88.7917" stroke-linecap="round"/>
</g>
		<g transform="matrix(1 0 0 1 24.2435 5.1835)" clip-path="url(#CLIPPATH_17)">
<clipPath id="CLIPPATH_17">
	<rect transform="matrix(1 0 0 1 -24.2435 -5.1835)" id="clip0_1_1209" x="-115" y="-102" rx="0" ry="0" width="230" height="204"/>
</clipPath>
<path style="stroke: none; stroke-width: 1; stroke-dasharray: none; stroke-linecap: butt; stroke-dashoffset: 0; stroke-linejoin: miter; stroke-miterlimit: 4; is-custom-font: none; font-file-url: none; fill: rgb(97,131,101); fill-rule: nonzero; opacity: 1;" transform=" translate(-139.2435, -107.1835)" d="M 139.244 110.416 C 141.029 110.416 142.476 108.968 142.476 107.183 C 142.476 105.398 141.029 103.951 139.244 103.951 C 137.459 103.951 136.011 105.398 136.011 107.183 C 136.011 108.968 137.459 110.416 139.244 110.416 Z" stroke-linecap="round"/>
</g>
		<g transform="matrix(1 0 0 1 33.5725 55.185)" clip-path="url(#CLIPPATH_18)">
<clipPath id="CLIPPATH_18">
	<rect transform="matrix(1 0 0 1 -33.5725 -55.185)" id="clip0_1_1209" x="-115" y="-102" rx="0" ry="0" width="230" height="204"/>
</clipPath>
<path style="stroke: none; stroke-width: 1; stroke-dasharray: none; stroke-linecap: butt; stroke-dashoffset: 0; stroke-linejoin: miter; stroke-miterlimit: 4; is-custom-font: none; font-file-url: none; fill: rgb(255,255,255); fill-rule: nonzero; opacity: 1;" transform=" translate(-148.5725, -157.185)" d="M 144.717 158.08 C 144.472 158.08 144.261 157.992 144.086 157.816 C 143.91 157.64 143.822 157.43 143.822 157.185 C 143.822 156.939 143.91 156.729 144.086 156.553 C 144.261 156.378 144.472 156.29 144.717 156.29 C 144.962 156.29 145.173 156.378 145.348 156.553 C 145.524 156.729 145.612 156.939 145.612 157.185 C 145.612 157.347 145.571 157.496 145.488 157.632 C 145.408 157.768 145.3 157.877 145.165 157.96 C 145.032 158.04 144.883 158.08 144.717 158.08 Z M 148.573 158.08 C 148.327 158.08 148.117 157.992 147.941 157.816 C 147.765 157.64 147.678 157.43 147.678 157.185 C 147.678 156.939 147.765 156.729 147.941 156.553 C 148.117 156.378 148.327 156.29 148.573 156.29 C 148.818 156.29 149.028 156.378 149.204 156.553 C 149.38 156.729 149.467 156.939 149.467 157.185 C 149.467 157.347 149.426 157.496 149.343 157.632 C 149.264 157.768 149.156 157.877 149.02 157.96 C 148.887 158.04 148.738 158.08 148.573 158.08 Z M 152.428 158.08 C 152.183 158.08 151.972 157.992 151.797 157.816 C 151.621 157.64 151.533 157.43 151.533 157.185 C 151.533 156.939 151.621 156.729 151.797 156.553 C 151.972 156.378 152.183 156.29 152.428 156.29 C 152.673 156.29 152.884 156.378 153.059 156.553 C 153.235 156.729 153.323 156.939 153.323 157.185 C 153.323 157.347 153.281 157.496 153.199 157.632 C 153.119 157.768 153.011 157.877 152.875 157.96 C 152.743 158.04 152.594 158.08 152.428 158.08 Z" stroke-linecap="round"/>
</g>
</g>
</g>
</svg>