<svg xmlns="http://www.w3.org/2000/svg" width="230" height="204" viewBox="0 0 230 204" fill="none">
  <g clip-path="url(#clip0_1_1209)">
    <path d="M230 0H0V204H230V0Z" fill="white" />
    <path
      d="M129.604 41H76.9956C74.2366 41 72 43.2366 72 45.9956V117.554C72 120.313 74.2366 122.55 76.9956 122.55H129.604C132.363 122.55 134.599 120.313 134.599 117.554V45.9956C134.599 43.2366 132.363 41 129.604 41Z"
      fill="white" stroke="#333333" stroke-width="2.5" stroke-miterlimit="10" />
    <path
      d="M124.902 49.5505H81.6903C80.6848 49.5505 79.8698 50.3656 79.8698 51.371V64.9675C79.8698 65.9729 80.6848 66.788 81.6903 66.788H124.902C125.908 66.788 126.723 65.9729 126.723 64.9675V51.371C126.723 50.3656 125.908 49.5505 124.902 49.5505Z"
      fill="#95BEE0" stroke="#333333" stroke-width="2.5" stroke-miterlimit="10" />
    <path
      d="M90.9935 73.375H82.2063C81.9451 73.375 81.7333 73.5868 81.7333 73.848V80.7932C81.7333 81.0544 81.9451 81.2662 82.2063 81.2662H90.9935C91.2547 81.2662 91.4665 81.0544 91.4665 80.7932V73.848C91.4665 73.5868 91.2547 73.375 90.9935 73.375Z"
      fill="white" stroke="#333333" stroke-width="2.5" stroke-miterlimit="10" />
    <path
      d="M106.819 73.375H98.0317C97.7705 73.375 97.5587 73.5868 97.5587 73.848V80.7932C97.5587 81.0544 97.7705 81.2662 98.0317 81.2662H106.819C107.08 81.2662 107.292 81.0544 107.292 80.7932V73.848C107.292 73.5868 107.08 73.375 106.819 73.375Z"
      fill="white" stroke="#333333" stroke-width="2.5" stroke-miterlimit="10" />
    <path
      d="M122.644 73.375H113.857C113.596 73.375 113.384 73.5868 113.384 73.848V80.7932C113.384 81.0544 113.596 81.2662 113.857 81.2662H122.644C122.906 81.2662 123.117 81.0544 123.117 80.7932V73.848C123.117 73.5868 122.906 73.375 122.644 73.375Z"
      fill="white" stroke="#333333" stroke-width="2.5" stroke-miterlimit="10" />
    <path
      d="M90.9935 88.8992H82.2063C81.9451 88.8992 81.7333 89.111 81.7333 89.3722V96.3174C81.7333 96.5786 81.9451 96.7904 82.2063 96.7904H90.9935C91.2547 96.7904 91.4665 96.5786 91.4665 96.3174V89.3722C91.4665 89.111 91.2547 88.8992 90.9935 88.8992Z"
      fill="white" stroke="#333333" stroke-width="2.5" stroke-miterlimit="10" />
    <path
      d="M106.819 88.8992H98.0317C97.7705 88.8992 97.5587 89.111 97.5587 89.3722V96.3174C97.5587 96.5786 97.7705 96.7904 98.0317 96.7904H106.819C107.08 96.7904 107.292 96.5786 107.292 96.3174V89.3722C107.292 89.111 107.08 88.8992 106.819 88.8992Z"
      fill="white" stroke="#333333" stroke-width="2.5" stroke-miterlimit="10" />
    <path
      d="M122.644 88.8992H113.857C113.596 88.8992 113.384 89.111 113.384 89.3722V96.3174C113.384 96.5786 113.596 96.7904 113.857 96.7904H122.644C122.906 96.7904 123.117 96.5786 123.117 96.3174V89.3722C123.117 89.111 122.906 88.8992 122.644 88.8992Z"
      fill="white" stroke="#333333" stroke-width="2.5" stroke-miterlimit="10" />
    <path
      d="M90.9935 104.424H82.2063C81.9451 104.424 81.7333 104.636 81.7333 104.897V111.842C81.7333 112.103 81.9451 112.315 82.2063 112.315H90.9935C91.2547 112.315 91.4665 112.103 91.4665 111.842V104.897C91.4665 104.636 91.2547 104.424 90.9935 104.424Z"
      fill="white" stroke="#333333" stroke-width="2.5" stroke-miterlimit="10" />
    <path
      d="M106.819 104.424H98.0317C97.7705 104.424 97.5587 104.636 97.5587 104.897V111.842C97.5587 112.103 97.7705 112.315 98.0317 112.315H106.819C107.08 112.315 107.292 112.103 107.292 111.842V104.897C107.292 104.636 107.08 104.424 106.819 104.424Z"
      fill="white" stroke="#333333" stroke-width="2.5" stroke-miterlimit="10" />
    <path
      d="M122.644 104.424H113.857C113.596 104.424 113.384 104.636 113.384 104.897V111.842C113.384 112.103 113.596 112.315 113.857 112.315H122.644C122.906 112.315 123.117 112.103 123.117 111.842V104.897C123.117 104.636 122.906 104.424 122.644 104.424Z"
      fill="white" stroke="#333333" stroke-width="2.5" stroke-miterlimit="10" />
    <path
      d="M159.492 98.267C159.492 100.095 156.453 101.557 156.066 103.263C155.679 104.968 157.757 107.656 156.99 109.254C156.223 110.853 152.84 110.874 151.729 112.265C150.618 113.655 151.357 116.945 149.959 118.063C148.561 119.181 145.537 117.719 143.917 118.5C142.297 119.282 141.573 122.557 139.81 122.958C138.047 123.36 136.004 120.722 134.177 120.722C132.349 120.722 130.249 123.345 128.543 122.958C126.837 122.571 126.027 119.274 124.436 118.5C122.845 117.726 119.785 119.174 118.394 118.063C117.004 116.952 117.742 113.662 116.624 112.265C115.506 110.867 112.144 110.874 111.363 109.254C110.582 107.635 112.689 105.033 112.288 103.263C111.886 101.492 108.862 100.095 108.862 98.267C108.862 96.4393 111.901 94.9772 112.288 93.2713C112.675 91.5655 110.596 88.8778 111.363 87.2794C112.13 85.6811 115.513 85.6596 116.624 84.2692C117.735 82.8787 116.997 79.5889 118.394 78.4708C119.792 77.3527 122.816 78.8148 124.436 78.0336C126.056 77.2523 126.78 73.9769 128.543 73.5755C130.306 73.1741 132.349 75.8117 134.177 75.8117C136.004 75.8117 138.104 73.1885 139.81 73.5755C141.516 73.9625 142.326 77.2595 143.917 78.0336C145.508 78.8077 148.569 77.3599 149.959 78.4708C151.35 79.5817 150.611 82.8715 151.729 84.2692C152.847 85.6668 156.209 85.6596 156.99 87.2794C157.771 88.8993 155.664 91.501 156.066 93.2713C156.467 95.0417 159.492 96.4393 159.492 98.267Z"
      fill="white" />
    <path
      d="M159.492 98.267C159.492 100.095 156.453 101.557 156.066 103.263C155.679 104.968 157.757 107.656 156.99 109.254C156.223 110.853 152.84 110.874 151.729 112.265C150.618 113.655 151.357 116.945 149.959 118.063C148.561 119.181 145.537 117.719 143.917 118.5C142.297 119.282 141.573 122.557 139.81 122.958C138.047 123.36 136.004 120.722 134.177 120.722C132.349 120.722 130.249 123.345 128.543 122.958C126.837 122.571 126.027 119.274 124.436 118.5C122.845 117.726 119.785 119.174 118.394 118.063C117.004 116.952 117.742 113.662 116.624 112.265C115.506 110.867 112.144 110.874 111.363 109.254C110.582 107.635 112.689 105.033 112.288 103.263C111.886 101.492 108.862 100.095 108.862 98.267C108.862 96.4393 111.901 94.9772 112.288 93.2713C112.675 91.5655 110.596 88.8778 111.363 87.2794C112.13 85.6811 115.513 85.6596 116.624 84.2692C117.735 82.8787 116.997 79.5889 118.394 78.4708C119.792 77.3527 122.816 78.8148 124.436 78.0336C126.056 77.2523 126.78 73.9769 128.543 73.5755C130.306 73.1741 132.349 75.8117 134.177 75.8117C136.004 75.8117 138.104 73.1885 139.81 73.5755C141.516 73.9625 142.326 77.2595 143.917 78.0336C145.508 78.8077 148.569 77.3599 149.959 78.4708C151.35 79.5817 150.611 82.8715 151.729 84.2692C152.847 85.6668 156.209 85.6596 156.99 87.2794C157.771 88.8993 155.664 91.501 156.066 93.2713C156.467 95.0417 159.492 96.4393 159.492 98.267Z"
      stroke="#333333" stroke-width="2.5" stroke-miterlimit="10" />
    <path
      d="M127.425 94.5758C129.21 94.5758 130.657 93.1286 130.657 91.3433C130.657 89.5581 129.21 88.1108 127.425 88.1108C125.64 88.1108 124.193 89.5581 124.193 91.3433C124.193 93.1286 125.64 94.5758 127.425 94.5758Z"
      fill="#618365" />
    <path d="M124.587 109.326L144.813 88.7917" stroke="#618365" stroke-width="2.5" stroke-miterlimit="10"
      stroke-linecap="round" />
    <path
      d="M139.244 110.416C141.029 110.416 142.476 108.968 142.476 107.183C142.476 105.398 141.029 103.951 139.244 103.951C137.459 103.951 136.011 105.398 136.011 107.183C136.011 108.968 137.459 110.416 139.244 110.416Z"
      fill="#618365" />
    <path
      d="M76.8785 158V147.818H83.0233V148.912H78.1114V152.352H82.7052V153.446H78.1114V156.906H83.1029V158H76.8785ZM87.3337 158.179C86.8498 158.179 86.4107 158.088 86.0162 157.906C85.6218 157.72 85.3086 157.453 85.0766 157.105C84.8446 156.754 84.7286 156.33 84.7286 155.832C84.7286 155.395 84.8148 155.04 84.9871 154.768C85.1595 154.493 85.3898 154.278 85.6782 154.122C85.9665 153.966 86.2847 153.85 86.6327 153.774C86.984 153.695 87.337 153.632 87.6917 153.585C88.1557 153.526 88.5319 153.481 88.8202 153.451C89.1119 153.418 89.324 153.363 89.4566 153.287C89.5925 153.211 89.6604 153.078 89.6604 152.889V152.849C89.6604 152.359 89.5262 151.978 89.2577 151.706C88.9926 151.434 88.5899 151.298 88.0496 151.298C87.4895 151.298 87.0503 151.421 86.7322 151.666C86.414 151.911 86.1903 152.173 86.061 152.452L84.9474 152.054C85.1462 151.59 85.4114 151.229 85.7428 150.97C86.0776 150.708 86.4421 150.526 86.8366 150.423C87.2343 150.317 87.6254 150.264 88.0099 150.264C88.2551 150.264 88.5368 150.294 88.855 150.354C89.1765 150.41 89.4864 150.528 89.7847 150.707C90.0863 150.886 90.3366 151.156 90.5354 151.517C90.7343 151.878 90.8337 152.362 90.8337 152.969V158H89.6604V156.966H89.6008C89.5212 157.132 89.3886 157.309 89.203 157.498C89.0174 157.687 88.7705 157.848 88.4623 157.98C88.154 158.113 87.7778 158.179 87.3337 158.179ZM87.5127 157.125C87.9767 157.125 88.3678 157.034 88.686 156.852C89.0075 156.669 89.2494 156.434 89.4118 156.146C89.5776 155.857 89.6604 155.554 89.6604 155.236V154.162C89.6107 154.222 89.5013 154.276 89.3323 154.326C89.1666 154.372 88.9743 154.414 88.7556 154.45C88.5402 154.483 88.3297 154.513 88.1242 154.54C87.922 154.563 87.758 154.583 87.632 154.599C87.3271 154.639 87.0421 154.704 86.7769 154.793C86.5151 154.879 86.3029 155.01 86.1405 155.186C85.9814 155.358 85.9019 155.594 85.9019 155.892C85.9019 156.3 86.0527 156.608 86.3543 156.817C86.6592 157.022 87.0454 157.125 87.5127 157.125ZM98.3843 152.074L97.3303 152.372C97.2641 152.196 97.1663 152.026 97.037 151.86C96.9111 151.691 96.7387 151.552 96.52 151.442C96.3012 151.333 96.0212 151.278 95.6798 151.278C95.2124 151.278 94.823 151.386 94.5115 151.602C94.2032 151.814 94.0491 152.084 94.0491 152.412C94.0491 152.704 94.1552 152.934 94.3673 153.103C94.5794 153.272 94.9108 153.413 95.3616 153.526L96.4951 153.804C97.1779 153.97 97.6866 154.223 98.0214 154.565C98.3561 154.903 98.5235 155.339 98.5235 155.872C98.5235 156.31 98.3976 156.701 98.1457 157.045C97.8971 157.39 97.5491 157.662 97.1017 157.861C96.6542 158.06 96.1338 158.159 95.5406 158.159C94.7617 158.159 94.117 157.99 93.6066 157.652C93.0962 157.314 92.7731 156.82 92.6372 156.17L93.7508 155.892C93.8569 156.303 94.0574 156.611 94.3524 156.817C94.6507 157.022 95.0401 157.125 95.5207 157.125C96.0676 157.125 96.5017 157.009 96.8232 156.777C97.1481 156.542 97.3105 156.26 97.3105 155.932C97.3105 155.667 97.2177 155.445 97.032 155.266C96.8464 155.083 96.5614 154.947 96.1769 154.858L94.9042 154.56C94.2049 154.394 93.6911 154.137 93.363 153.789C93.0382 153.438 92.8758 152.999 92.8758 152.472C92.8758 152.041 92.9968 151.66 93.2387 151.328C93.484 150.997 93.8171 150.737 94.238 150.548C94.6623 150.359 95.1428 150.264 95.6798 150.264C96.4355 150.264 97.0287 150.43 97.4596 150.761C97.8938 151.093 98.202 151.53 98.3843 152.074ZM101.045 160.864C100.847 160.864 100.669 160.847 100.513 160.814C100.358 160.784 100.25 160.754 100.19 160.724L100.489 159.69C100.774 159.763 101.025 159.79 101.244 159.77C101.463 159.75 101.657 159.652 101.826 159.477C101.998 159.304 102.156 159.024 102.298 158.636L102.517 158.04L99.6931 150.364H100.966L103.074 156.449H103.153L105.261 150.364H106.534L103.293 159.114C103.147 159.508 102.966 159.835 102.751 160.093C102.535 160.355 102.285 160.549 102 160.675C101.718 160.801 101.4 160.864 101.045 160.864ZM112.179 158V147.818H118.324V148.912H113.412V152.352H118.006V153.446H113.412V156.906H118.404V158H112.179ZM120.546 147.818H122.018L125.478 156.27H125.598L129.058 147.818H130.529V158H129.376V150.264H129.277L126.095 158H124.981L121.799 150.264H121.7V158H120.546V147.818ZM134.234 147.818V158H133.002V147.818H134.234ZM141.957 152.074L140.903 152.372C140.836 152.196 140.739 152.026 140.609 151.86C140.483 151.691 140.311 151.552 140.092 151.442C139.873 151.333 139.593 151.278 139.252 151.278C138.785 151.278 138.395 151.386 138.084 151.602C137.775 151.814 137.621 152.084 137.621 152.412C137.621 152.704 137.727 152.934 137.94 153.103C138.152 153.272 138.483 153.413 138.934 153.526L140.067 153.804C140.75 153.97 141.259 154.223 141.594 154.565C141.928 154.903 142.096 155.339 142.096 155.872C142.096 156.31 141.97 156.701 141.718 157.045C141.469 157.39 141.121 157.662 140.674 157.861C140.226 158.06 139.706 158.159 139.113 158.159C138.334 158.159 137.689 157.99 137.179 157.652C136.668 157.314 136.345 156.82 136.209 156.17L137.323 155.892C137.429 156.303 137.63 156.611 137.925 156.817C138.223 157.022 138.612 157.125 139.093 157.125C139.64 157.125 140.074 157.009 140.396 156.777C140.72 156.542 140.883 156.26 140.883 155.932C140.883 155.667 140.79 155.445 140.604 155.266C140.419 155.083 140.134 154.947 139.749 154.858L138.476 154.56C137.777 154.394 137.263 154.137 136.935 153.789C136.61 153.438 136.448 152.999 136.448 152.472C136.448 152.041 136.569 151.66 136.811 151.328C137.056 150.997 137.389 150.737 137.81 150.548C138.235 150.359 138.715 150.264 139.252 150.264C140.008 150.264 140.601 150.43 141.032 150.761C141.466 151.093 141.774 151.53 141.957 152.074Z"
      fill="black" />
    <path
      d="M144.717 158.08C144.472 158.08 144.261 157.992 144.086 157.816C143.91 157.64 143.822 157.43 143.822 157.185C143.822 156.939 143.91 156.729 144.086 156.553C144.261 156.378 144.472 156.29 144.717 156.29C144.962 156.29 145.173 156.378 145.348 156.553C145.524 156.729 145.612 156.939 145.612 157.185C145.612 157.347 145.571 157.496 145.488 157.632C145.408 157.768 145.3 157.877 145.165 157.96C145.032 158.04 144.883 158.08 144.717 158.08ZM148.573 158.08C148.327 158.08 148.117 157.992 147.941 157.816C147.765 157.64 147.678 157.43 147.678 157.185C147.678 156.939 147.765 156.729 147.941 156.553C148.117 156.378 148.327 156.29 148.573 156.29C148.818 156.29 149.028 156.378 149.204 156.553C149.38 156.729 149.467 156.939 149.467 157.185C149.467 157.347 149.426 157.496 149.343 157.632C149.264 157.768 149.156 157.877 149.02 157.96C148.887 158.04 148.738 158.08 148.573 158.08ZM152.428 158.08C152.183 158.08 151.972 157.992 151.797 157.816C151.621 157.64 151.533 157.43 151.533 157.185C151.533 156.939 151.621 156.729 151.797 156.553C151.972 156.378 152.183 156.29 152.428 156.29C152.673 156.29 152.884 156.378 153.059 156.553C153.235 156.729 153.323 156.939 153.323 157.185C153.323 157.347 153.281 157.496 153.199 157.632C153.119 157.768 153.011 157.877 152.875 157.96C152.743 158.04 152.594 158.08 152.428 158.08Z"
      fill="white" />
  </g>
  <defs>
    <clipPath id="clip0_1_1209">
      <rect width="230" height="204" fill="white" />
    </clipPath>
  </defs>
</svg>