<svg xmlns="http://www.w3.org/2000/svg" width="230" height="204" viewBox="0 0 230 204" fill="none">
  <g clip-path="url(#clip0_1_1209)">
    <path d="M230 0H0V204H230V0Z" fill="white" />
    <path
      d="M129.604 41H76.9956C74.2366 41 72 43.2366 72 45.9956V117.554C72 120.313 74.2366 122.55 76.9956 122.55H129.604C132.363 122.55 134.599 120.313 134.599 117.554V45.9956C134.599 43.2366 132.363 41 129.604 41Z"
      fill="white" stroke="#333333" stroke-width="2.5" stroke-miterlimit="10" />
    <path
      d="M124.902 49.5505H81.6903C80.6848 49.5505 79.8698 50.3656 79.8698 51.371V64.9675C79.8698 65.9729 80.6848 66.788 81.6903 66.788H124.902C125.908 66.788 126.723 65.9729 126.723 64.9675V51.371C126.723 50.3656 125.908 49.5505 124.902 49.5505Z"
      fill="#95BEE0" stroke="#333333" stroke-width="2.5" stroke-miterlimit="10" />
    <path
      d="M90.9935 73.375H82.2063C81.9451 73.375 81.7333 73.5868 81.7333 73.848V80.7932C81.7333 81.0544 81.9451 81.2662 82.2063 81.2662H90.9935C91.2547 81.2662 91.4665 81.0544 91.4665 80.7932V73.848C91.4665 73.5868 91.2547 73.375 90.9935 73.375Z"
      fill="white" stroke="#333333" stroke-width="2.5" stroke-miterlimit="10" />
    <path
      d="M106.819 73.375H98.0317C97.7705 73.375 97.5587 73.5868 97.5587 73.848V80.7932C97.5587 81.0544 97.7705 81.2662 98.0317 81.2662H106.819C107.08 81.2662 107.292 81.0544 107.292 80.7932V73.848C107.292 73.5868 107.08 73.375 106.819 73.375Z"
      fill="white" stroke="#333333" stroke-width="2.5" stroke-miterlimit="10" />
    <path
      d="M122.644 73.375H113.857C113.596 73.375 113.384 73.5868 113.384 73.848V80.7932C113.384 81.0544 113.596 81.2662 113.857 81.2662H122.644C122.906 81.2662 123.117 81.0544 123.117 80.7932V73.848C123.117 73.5868 122.906 73.375 122.644 73.375Z"
      fill="white" stroke="#333333" stroke-width="2.5" stroke-miterlimit="10" />
    <path
      d="M90.9935 88.8992H82.2063C81.9451 88.8992 81.7333 89.111 81.7333 89.3722V96.3174C81.7333 96.5786 81.9451 96.7904 82.2063 96.7904H90.9935C91.2547 96.7904 91.4665 96.5786 91.4665 96.3174V89.3722C91.4665 89.111 91.2547 88.8992 90.9935 88.8992Z"
      fill="white" stroke="#333333" stroke-width="2.5" stroke-miterlimit="10" />
    <path
      d="M106.819 88.8992H98.0317C97.7705 88.8992 97.5587 89.111 97.5587 89.3722V96.3174C97.5587 96.5786 97.7705 96.7904 98.0317 96.7904H106.819C107.08 96.7904 107.292 96.5786 107.292 96.3174V89.3722C107.292 89.111 107.08 88.8992 106.819 88.8992Z"
      fill="white" stroke="#333333" stroke-width="2.5" stroke-miterlimit="10" />
    <path
      d="M122.644 88.8992H113.857C113.596 88.8992 113.384 89.111 113.384 89.3722V96.3174C113.384 96.5786 113.596 96.7904 113.857 96.7904H122.644C122.906 96.7904 123.117 96.5786 123.117 96.3174V89.3722C123.117 89.111 122.906 88.8992 122.644 88.8992Z"
      fill="white" stroke="#333333" stroke-width="2.5" stroke-miterlimit="10" />
    <path
      d="M90.9935 104.424H82.2063C81.9451 104.424 81.7333 104.636 81.7333 104.897V111.842C81.7333 112.103 81.9451 112.315 82.2063 112.315H90.9935C91.2547 112.315 91.4665 112.103 91.4665 111.842V104.897C91.4665 104.636 91.2547 104.424 90.9935 104.424Z"
      fill="white" stroke="#333333" stroke-width="2.5" stroke-miterlimit="10" />
    <path
      d="M106.819 104.424H98.0317C97.7705 104.424 97.5587 104.636 97.5587 104.897V111.842C97.5587 112.103 97.7705 112.315 98.0317 112.315H106.819C107.08 112.315 107.292 112.103 107.292 111.842V104.897C107.292 104.636 107.08 104.424 106.819 104.424Z"
      fill="white" stroke="#333333" stroke-width="2.5" stroke-miterlimit="10" />
    <path
      d="M122.644 104.424H113.857C113.596 104.424 113.384 104.636 113.384 104.897V111.842C113.384 112.103 113.596 112.315 113.857 112.315H122.644C122.906 112.315 123.117 112.103 123.117 111.842V104.897C123.117 104.636 122.906 104.424 122.644 104.424Z"
      fill="white" stroke="#333333" stroke-width="2.5" stroke-miterlimit="10" />
    <path
      d="M159.492 98.267C159.492 100.095 156.453 101.557 156.066 103.263C155.679 104.968 157.757 107.656 156.99 109.254C156.223 110.853 152.84 110.874 151.729 112.265C150.618 113.655 151.357 116.945 149.959 118.063C148.561 119.181 145.537 117.719 143.917 118.5C142.297 119.282 141.573 122.557 139.81 122.958C138.047 123.36 136.004 120.722 134.177 120.722C132.349 120.722 130.249 123.345 128.543 122.958C126.837 122.571 126.027 119.274 124.436 118.5C122.845 117.726 119.785 119.174 118.394 118.063C117.004 116.952 117.742 113.662 116.624 112.265C115.506 110.867 112.144 110.874 111.363 109.254C110.582 107.635 112.689 105.033 112.288 103.263C111.886 101.492 108.862 100.095 108.862 98.267C108.862 96.4393 111.901 94.9772 112.288 93.2713C112.675 91.5655 110.596 88.8778 111.363 87.2794C112.13 85.6811 115.513 85.6596 116.624 84.2692C117.735 82.8787 116.997 79.5889 118.394 78.4708C119.792 77.3527 122.816 78.8148 124.436 78.0336C126.056 77.2523 126.78 73.9769 128.543 73.5755C130.306 73.1741 132.349 75.8117 134.177 75.8117C136.004 75.8117 138.104 73.1885 139.81 73.5755C141.516 73.9625 142.326 77.2595 143.917 78.0336C145.508 78.8077 148.569 77.3599 149.959 78.4708C151.35 79.5817 150.611 82.8715 151.729 84.2692C152.847 85.6668 156.209 85.6596 156.99 87.2794C157.771 88.8993 155.664 91.501 156.066 93.2713C156.467 95.0417 159.492 96.4393 159.492 98.267Z"
      fill="white" />
    <path
      d="M159.492 98.267C159.492 100.095 156.453 101.557 156.066 103.263C155.679 104.968 157.757 107.656 156.99 109.254C156.223 110.853 152.84 110.874 151.729 112.265C150.618 113.655 151.357 116.945 149.959 118.063C148.561 119.181 145.537 117.719 143.917 118.5C142.297 119.282 141.573 122.557 139.81 122.958C138.047 123.36 136.004 120.722 134.177 120.722C132.349 120.722 130.249 123.345 128.543 122.958C126.837 122.571 126.027 119.274 124.436 118.5C122.845 117.726 119.785 119.174 118.394 118.063C117.004 116.952 117.742 113.662 116.624 112.265C115.506 110.867 112.144 110.874 111.363 109.254C110.582 107.635 112.689 105.033 112.288 103.263C111.886 101.492 108.862 100.095 108.862 98.267C108.862 96.4393 111.901 94.9772 112.288 93.2713C112.675 91.5655 110.596 88.8778 111.363 87.2794C112.13 85.6811 115.513 85.6596 116.624 84.2692C117.735 82.8787 116.997 79.5889 118.394 78.4708C119.792 77.3527 122.816 78.8148 124.436 78.0336C126.056 77.2523 126.78 73.9769 128.543 73.5755C130.306 73.1741 132.349 75.8117 134.177 75.8117C136.004 75.8117 138.104 73.1885 139.81 73.5755C141.516 73.9625 142.326 77.2595 143.917 78.0336C145.508 78.8077 148.569 77.3599 149.959 78.4708C151.35 79.5817 150.611 82.8715 151.729 84.2692C152.847 85.6668 156.209 85.6596 156.99 87.2794C157.771 88.8993 155.664 91.501 156.066 93.2713C156.467 95.0417 159.492 96.4393 159.492 98.267Z"
      stroke="#333333" stroke-width="2.5" stroke-miterlimit="10" />
    <path
      d="M127.425 94.5758C129.21 94.5758 130.657 93.1286 130.657 91.3433C130.657 89.5581 129.21 88.1108 127.425 88.1108C125.64 88.1108 124.193 89.5581 124.193 91.3433C124.193 93.1286 125.64 94.5758 127.425 94.5758Z"
      fill="#618365" />
    <path d="M124.587 109.326L144.813 88.7917" stroke="#618365" stroke-width="2.5" stroke-miterlimit="10"
      stroke-linecap="round" />
    <path
      d="M139.244 110.416C141.029 110.416 142.476 108.968 142.476 107.183C142.476 105.398 141.029 103.951 139.244 103.951C137.459 103.951 136.011 105.398 136.011 107.183C136.011 108.968 137.459 110.416 139.244 110.416Z"
      fill="#618365" />

    <path
      d="M144.717 158.08C144.472 158.08 144.261 157.992 144.086 157.816C143.91 157.64 143.822 157.43 143.822 157.185C143.822 156.939 143.91 156.729 144.086 156.553C144.261 156.378 144.472 156.29 144.717 156.29C144.962 156.29 145.173 156.378 145.348 156.553C145.524 156.729 145.612 156.939 145.612 157.185C145.612 157.347 145.571 157.496 145.488 157.632C145.408 157.768 145.3 157.877 145.165 157.96C145.032 158.04 144.883 158.08 144.717 158.08ZM148.573 158.08C148.327 158.08 148.117 157.992 147.941 157.816C147.765 157.64 147.678 157.43 147.678 157.185C147.678 156.939 147.765 156.729 147.941 156.553C148.117 156.378 148.327 156.29 148.573 156.29C148.818 156.29 149.028 156.378 149.204 156.553C149.38 156.729 149.467 156.939 149.467 157.185C149.467 157.347 149.426 157.496 149.343 157.632C149.264 157.768 149.156 157.877 149.02 157.96C148.887 158.04 148.738 158.08 148.573 158.08ZM152.428 158.08C152.183 158.08 151.972 157.992 151.797 157.816C151.621 157.64 151.533 157.43 151.533 157.185C151.533 156.939 151.621 156.729 151.797 156.553C151.972 156.378 152.183 156.29 152.428 156.29C152.673 156.29 152.884 156.378 153.059 156.553C153.235 156.729 153.323 156.939 153.323 157.185C153.323 157.347 153.281 157.496 153.199 157.632C153.119 157.768 153.011 157.877 152.875 157.96C152.743 158.04 152.594 158.08 152.428 158.08Z"
      fill="white" />
  </g>
  <defs>
    <clipPath id="clip0_1_1209">
      <rect width="230" height="204" fill="white" />
    </clipPath>
  </defs>
</svg>