<svg xmlns="http://www.w3.org/2000/svg" width="230" height="204" viewBox="0 0 230 204" fill="none">
  <g clip-path="url(#clip0_1_1199)">
    <path d="M230 0H0V204H230V0Z" fill="white" />
    <path d="M143.573 112.94L134.347 113.968L134.002 122.519L105.282 93.7984L114.853 84.2202L143.573 112.94Z"
      fill="#618365" />
    <path d="M95.517 123L94.4895 113.767L85.9388 113.429L114.659 84.709L124.237 94.28L95.517 123Z" fill="#618365" />
    <path
      d="M138.091 85.8011L139.319 92.9075L132.112 92.929L130.841 100.021L124.057 97.578L120.429 103.815L114.889 99.1947L109.356 103.815L105.727 97.578L98.9445 100.021L97.6726 92.929L90.4657 92.9075L91.6944 85.8011L84.9257 83.3149"
      fill="white" />
    <path
      d="M138.091 85.8011L139.319 92.9075L132.112 92.929L130.841 100.021L124.057 97.578L120.429 103.815L114.889 99.1947L109.356 103.815L105.727 97.578L98.9445 100.021L97.6726 92.929L90.4657 92.9075L91.6944 85.8011L84.9257 83.3149"
      stroke="#333333" stroke-width="2.5" stroke-miterlimit="10" />
    <path
      d="M114.889 45.6202L120.429 41L124.057 47.2298L130.841 44.7867L132.112 51.8859L139.319 51.9075L138.091 59.0138L144.859 61.5L141.274 67.7513L146.785 72.4075L141.274 77.0564L144.859 83.3149L138.091 85.8011L139.319 92.9075L132.112 92.929L130.841 100.021L124.057 97.578L120.429 103.815L114.889 99.1947L109.356 103.815L105.727 97.578L98.9444 100.021L97.6726 92.929L90.4657 92.9075L91.6944 85.8011L84.9257 83.3149L88.5112 77.0564L83 72.4075L88.5112 67.7513L84.9257 61.5L91.6944 59.0138L90.4657 51.9075L97.6726 51.8859L98.9444 44.7867L105.727 47.2298L109.356 41L114.889 45.6202Z"
      fill="white" stroke="#333333" stroke-width="2.5" stroke-miterlimit="10" />
    <path
      d="M114.889 92.8069C126.155 92.8069 135.288 83.6737 135.288 72.4075C135.288 61.1412 126.155 52.0081 114.889 52.0081C103.623 52.0081 94.4895 61.1412 94.4895 72.4075C94.4895 83.6737 103.623 92.8069 114.889 92.8069Z"
      fill="white" stroke="#333333" stroke-width="2.5" stroke-miterlimit="10" />
    <path
      d="M113.168 78.4898V80.3398H105.168V78.4898H108.098V70.0598C108.098 69.7265 108.108 69.3832 108.128 69.0298L106.048 70.7698C105.928 70.8632 105.808 70.9232 105.688 70.9498C105.575 70.9698 105.465 70.9698 105.358 70.9498C105.258 70.9298 105.168 70.8965 105.088 70.8498C105.008 70.7965 104.948 70.7398 104.908 70.6798L104.128 69.6098L108.538 65.8598H110.568V78.4898H113.168ZM125.52 73.1098C125.52 74.3698 125.383 75.4665 125.11 76.3998C124.843 77.3265 124.47 78.0932 123.99 78.6998C123.517 79.3065 122.953 79.7598 122.3 80.0598C121.653 80.3532 120.953 80.4998 120.2 80.4998C119.447 80.4998 118.747 80.3532 118.1 80.0598C117.46 79.7598 116.903 79.3065 116.43 78.6998C115.957 78.0932 115.587 77.3265 115.32 76.3998C115.053 75.4665 114.92 74.3698 114.92 73.1098C114.92 71.8432 115.053 70.7465 115.32 69.8198C115.587 68.8932 115.957 68.1265 116.43 67.5198C116.903 66.9132 117.46 66.4632 118.1 66.1698C118.747 65.8698 119.447 65.7198 120.2 65.7198C120.953 65.7198 121.653 65.8698 122.3 66.1698C122.953 66.4632 123.517 66.9132 123.99 67.5198C124.47 68.1265 124.843 68.8932 125.11 69.8198C125.383 70.7465 125.52 71.8432 125.52 73.1098ZM122.97 73.1098C122.97 72.0632 122.893 71.1965 122.74 70.5098C122.587 69.8232 122.38 69.2765 122.12 68.8698C121.867 68.4632 121.573 68.1798 121.24 68.0198C120.907 67.8532 120.56 67.7698 120.2 67.7698C119.847 67.7698 119.503 67.8532 119.17 68.0198C118.843 68.1798 118.553 68.4632 118.3 68.8698C118.047 69.2765 117.843 69.8232 117.69 70.5098C117.543 71.1965 117.47 72.0632 117.47 73.1098C117.47 74.1565 117.543 75.0232 117.69 75.7098C117.843 76.3965 118.047 76.9432 118.3 77.3498C118.553 77.7565 118.843 78.0432 119.17 78.2098C119.503 78.3698 119.847 78.4498 120.2 78.4498C120.56 78.4498 120.907 78.3698 121.24 78.2098C121.573 78.0432 121.867 77.7565 122.12 77.3498C122.38 76.9432 122.587 76.3965 122.74 75.7098C122.893 75.0232 122.97 74.1565 122.97 73.1098Z"
      fill="#3177B0" />

  </g>
  <defs>
    <clipPath id="clip0_1_1199">
      <rect width="230" height="204" fill="white" />
    </clipPath>
  </defs>
</svg>