<svg xmlns="http://www.w3.org/2000/svg" width="230" height="204" viewBox="0 0 230 204" fill="none">
  <g clip-path="url(#clip0_1_1199)">
    <path d="M230 0H0V204H230V0Z" fill="white" />
    <path d="M143.573 112.94L134.347 113.968L134.002 122.519L105.282 93.7984L114.853 84.2202L143.573 112.94Z"
      fill="#618365" />
    <path d="M95.517 123L94.4895 113.767L85.9388 113.429L114.659 84.709L124.237 94.28L95.517 123Z" fill="#618365" />
    <path
      d="M138.091 85.8011L139.319 92.9075L132.112 92.929L130.841 100.021L124.057 97.578L120.429 103.815L114.889 99.1947L109.356 103.815L105.727 97.578L98.9445 100.021L97.6726 92.929L90.4657 92.9075L91.6944 85.8011L84.9257 83.3149"
      fill="white" />
    <path
      d="M138.091 85.8011L139.319 92.9075L132.112 92.929L130.841 100.021L124.057 97.578L120.429 103.815L114.889 99.1947L109.356 103.815L105.727 97.578L98.9445 100.021L97.6726 92.929L90.4657 92.9075L91.6944 85.8011L84.9257 83.3149"
      stroke="#333333" stroke-width="2.5" stroke-miterlimit="10" />
    <path
      d="M114.889 45.6202L120.429 41L124.057 47.2298L130.841 44.7867L132.112 51.8859L139.319 51.9075L138.091 59.0138L144.859 61.5L141.274 67.7513L146.785 72.4075L141.274 77.0564L144.859 83.3149L138.091 85.8011L139.319 92.9075L132.112 92.929L130.841 100.021L124.057 97.578L120.429 103.815L114.889 99.1947L109.356 103.815L105.727 97.578L98.9444 100.021L97.6726 92.929L90.4657 92.9075L91.6944 85.8011L84.9257 83.3149L88.5112 77.0564L83 72.4075L88.5112 67.7513L84.9257 61.5L91.6944 59.0138L90.4657 51.9075L97.6726 51.8859L98.9444 44.7867L105.727 47.2298L109.356 41L114.889 45.6202Z"
      fill="white" stroke="#333333" stroke-width="2.5" stroke-miterlimit="10" />
    <path
      d="M114.889 92.8069C126.155 92.8069 135.288 83.6737 135.288 72.4075C135.288 61.1412 126.155 52.0081 114.889 52.0081C103.623 52.0081 94.4895 61.1412 94.4895 72.4075C94.4895 83.6737 103.623 92.8069 114.889 92.8069Z"
      fill="white" stroke="#333333" stroke-width="2.5" stroke-miterlimit="10" />
    <path
      d="M113.168 78.4898V80.3398H105.168V78.4898H108.098V70.0598C108.098 69.7265 108.108 69.3832 108.128 69.0298L106.048 70.7698C105.928 70.8632 105.808 70.9232 105.688 70.9498C105.575 70.9698 105.465 70.9698 105.358 70.9498C105.258 70.9298 105.168 70.8965 105.088 70.8498C105.008 70.7965 104.948 70.7398 104.908 70.6798L104.128 69.6098L108.538 65.8598H110.568V78.4898H113.168ZM125.52 73.1098C125.52 74.3698 125.383 75.4665 125.11 76.3998C124.843 77.3265 124.47 78.0932 123.99 78.6998C123.517 79.3065 122.953 79.7598 122.3 80.0598C121.653 80.3532 120.953 80.4998 120.2 80.4998C119.447 80.4998 118.747 80.3532 118.1 80.0598C117.46 79.7598 116.903 79.3065 116.43 78.6998C115.957 78.0932 115.587 77.3265 115.32 76.3998C115.053 75.4665 114.92 74.3698 114.92 73.1098C114.92 71.8432 115.053 70.7465 115.32 69.8198C115.587 68.8932 115.957 68.1265 116.43 67.5198C116.903 66.9132 117.46 66.4632 118.1 66.1698C118.747 65.8698 119.447 65.7198 120.2 65.7198C120.953 65.7198 121.653 65.8698 122.3 66.1698C122.953 66.4632 123.517 66.9132 123.99 67.5198C124.47 68.1265 124.843 68.8932 125.11 69.8198C125.383 70.7465 125.52 71.8432 125.52 73.1098ZM122.97 73.1098C122.97 72.0632 122.893 71.1965 122.74 70.5098C122.587 69.8232 122.38 69.2765 122.12 68.8698C121.867 68.4632 121.573 68.1798 121.24 68.0198C120.907 67.8532 120.56 67.7698 120.2 67.7698C119.847 67.7698 119.503 67.8532 119.17 68.0198C118.843 68.1798 118.553 68.4632 118.3 68.8698C118.047 69.2765 117.843 69.8232 117.69 70.5098C117.543 71.1965 117.47 72.0632 117.47 73.1098C117.47 74.1565 117.543 75.0232 117.69 75.7098C117.843 76.3965 118.047 76.9432 118.3 77.3498C118.553 77.7565 118.843 78.0432 119.17 78.2098C119.503 78.3698 119.847 78.4498 120.2 78.4498C120.56 78.4498 120.907 78.3698 121.24 78.2098C121.573 78.0432 121.867 77.7565 122.12 77.3498C122.38 76.9432 122.587 76.3965 122.74 75.7098C122.893 75.0232 122.97 74.1565 122.97 73.1098Z"
      fill="#3177B0" />
    <path
      d="M45.7817 158V147.818H51.8868V148.912H47.0146V152.352H51.4294V153.446H47.0146V158H45.7817ZM55.0127 147.818V158H53.8394V147.818H55.0127ZM59.4088 158.179C58.9249 158.179 58.4858 158.088 58.0913 157.906C57.6969 157.72 57.3837 157.453 57.1517 157.105C56.9197 156.754 56.8037 156.33 56.8037 155.832C56.8037 155.395 56.8899 155.04 57.0622 154.768C57.2346 154.493 57.4649 154.278 57.7533 154.122C58.0416 153.966 58.3598 153.85 58.7078 153.774C59.0591 153.695 59.4121 153.632 59.7668 153.585C60.2308 153.526 60.607 153.481 60.8953 153.451C61.187 153.418 61.3991 153.363 61.5317 153.287C61.6676 153.211 61.7355 153.078 61.7355 152.889V152.849C61.7355 152.359 61.6013 151.978 61.3328 151.706C61.0677 151.434 60.665 151.298 60.1247 151.298C59.5646 151.298 59.1254 151.421 58.8073 151.666C58.4891 151.911 58.2653 152.173 58.1361 152.452L57.0224 152.054C57.2213 151.59 57.4865 151.229 57.8179 150.97C58.1527 150.708 58.5172 150.526 58.9117 150.423C59.3094 150.317 59.7005 150.264 60.0849 150.264C60.3302 150.264 60.6119 150.294 60.9301 150.354C61.2516 150.41 61.5615 150.528 61.8598 150.707C62.1614 150.886 62.4117 151.156 62.6105 151.517C62.8094 151.878 62.9088 152.362 62.9088 152.969V158H61.7355V156.966H61.6759C61.5963 157.132 61.4637 157.309 61.2781 157.498C61.0925 157.687 60.8456 157.848 60.5374 157.98C60.2291 158.113 59.8529 158.179 59.4088 158.179ZM59.5878 157.125C60.0518 157.125 60.4429 157.034 60.7611 156.852C61.0826 156.669 61.3245 156.434 61.4869 156.146C61.6527 155.857 61.7355 155.554 61.7355 155.236V154.162C61.6858 154.222 61.5764 154.276 61.4074 154.326C61.2417 154.372 61.0494 154.414 60.8307 154.45C60.6153 154.483 60.4048 154.513 60.1993 154.54C59.9971 154.563 59.8331 154.583 59.7071 154.599C59.4022 154.639 59.1171 154.704 58.852 154.793C58.5902 154.879 58.378 155.01 58.2156 155.186C58.0565 155.358 57.977 155.594 57.977 155.892C57.977 156.3 58.1278 156.608 58.4294 156.817C58.7343 157.022 59.1205 157.125 59.5878 157.125ZM68.3713 150.364V151.358H64.414V150.364H68.3713ZM65.5674 148.534H66.7407V155.812C66.7407 156.144 66.7887 156.393 66.8848 156.558C66.9843 156.721 67.1102 156.83 67.2627 156.886C67.4185 156.939 67.5825 156.966 67.7549 156.966C67.8841 156.966 67.9902 156.959 68.0731 156.946C68.1559 156.929 68.2222 156.916 68.2719 156.906L68.5106 157.96C68.431 157.99 68.32 158.02 68.1775 158.05C68.0349 158.083 67.8543 158.099 67.6356 158.099C67.3041 158.099 66.9793 158.028 66.6611 157.886C66.3463 157.743 66.0844 157.526 65.8756 157.234C65.6701 156.943 65.5674 156.575 65.5674 156.131V148.534ZM77.6334 147.818V158H76.4005V149.111H76.3408L73.855 150.761V149.509L76.4005 147.818H77.6334ZM83.8827 158.139C83.1337 158.139 82.4956 157.935 81.9687 157.528C81.4417 157.117 81.039 156.522 80.7606 155.743C80.4821 154.961 80.3429 154.016 80.3429 152.909C80.3429 151.809 80.4821 150.869 80.7606 150.09C81.0423 149.308 81.4466 148.711 81.9736 148.3C82.5039 147.886 83.1403 147.679 83.8827 147.679C84.6251 147.679 85.2598 147.886 85.7868 148.3C86.3171 148.711 86.7215 149.308 86.9999 150.09C87.2816 150.869 87.4225 151.809 87.4225 152.909C87.4225 154.016 87.2833 154.961 87.0049 155.743C86.7265 156.522 86.3238 157.117 85.7968 157.528C85.2698 157.935 84.6318 158.139 83.8827 158.139ZM83.8827 157.045C84.6251 157.045 85.2018 156.687 85.6128 155.972C86.0238 155.256 86.2293 154.235 86.2293 152.909C86.2293 152.027 86.1348 151.277 85.9459 150.657C85.7603 150.037 85.4919 149.565 85.1405 149.24C84.7925 148.915 84.3732 148.753 83.8827 148.753C83.1469 148.753 82.5719 149.116 82.1576 149.842C81.7433 150.564 81.5361 151.587 81.5361 152.909C81.5361 153.791 81.6289 154.54 81.8145 155.156C82.0001 155.773 82.2669 156.242 82.615 156.563C82.9663 156.885 83.3889 157.045 83.8827 157.045ZM92.5532 147.818H93.9651L96.789 152.571H96.9083L99.7321 147.818H101.144L97.4651 153.804V158H96.2321V153.804L92.5532 147.818ZM104.701 158.159C103.966 158.159 103.331 157.997 102.797 157.672C102.267 157.344 101.858 156.886 101.569 156.3C101.284 155.71 101.142 155.024 101.142 154.241C101.142 153.459 101.284 152.77 101.569 152.173C101.858 151.573 102.259 151.106 102.772 150.771C103.289 150.433 103.893 150.264 104.582 150.264C104.98 150.264 105.373 150.33 105.76 150.463C106.148 150.596 106.501 150.811 106.819 151.109C107.137 151.404 107.391 151.795 107.58 152.283C107.769 152.77 107.863 153.37 107.863 154.082V154.58H101.977V153.565H106.67C106.67 153.134 106.584 152.75 106.412 152.412C106.243 152.074 106.001 151.807 105.686 151.612C105.374 151.416 105.006 151.318 104.582 151.318C104.115 151.318 103.71 151.434 103.369 151.666C103.031 151.895 102.771 152.193 102.588 152.561C102.406 152.929 102.315 153.323 102.315 153.744V154.42C102.315 154.997 102.414 155.486 102.613 155.887C102.815 156.285 103.096 156.588 103.453 156.797C103.811 157.002 104.227 157.105 104.701 157.105C105.01 157.105 105.288 157.062 105.537 156.976C105.788 156.886 106.006 156.754 106.188 156.578C106.37 156.399 106.511 156.177 106.61 155.912L107.744 156.23C107.625 156.615 107.424 156.953 107.142 157.244C106.861 157.533 106.513 157.758 106.098 157.92C105.684 158.08 105.218 158.159 104.701 158.159ZM111.895 158.179C111.411 158.179 110.972 158.088 110.578 157.906C110.183 157.72 109.87 157.453 109.638 157.105C109.406 156.754 109.29 156.33 109.29 155.832C109.29 155.395 109.376 155.04 109.549 154.768C109.721 154.493 109.951 154.278 110.24 154.122C110.528 153.966 110.846 153.85 111.194 153.774C111.546 153.695 111.899 153.632 112.253 153.585C112.717 153.526 113.093 153.481 113.382 153.451C113.673 153.418 113.886 153.363 114.018 153.287C114.154 153.211 114.222 153.078 114.222 152.889V152.849C114.222 152.359 114.088 151.978 113.819 151.706C113.554 151.434 113.151 151.298 112.611 151.298C112.051 151.298 111.612 151.421 111.294 151.666C110.975 151.911 110.752 152.173 110.623 152.452L109.509 152.054C109.708 151.59 109.973 151.229 110.304 150.97C110.639 150.708 111.004 150.526 111.398 150.423C111.796 150.317 112.187 150.264 112.571 150.264C112.817 150.264 113.098 150.294 113.417 150.354C113.738 150.41 114.048 150.528 114.346 150.707C114.648 150.886 114.898 151.156 115.097 151.517C115.296 151.878 115.395 152.362 115.395 152.969V158H114.222V156.966H114.162C114.083 157.132 113.95 157.309 113.765 157.498C113.579 157.687 113.332 157.848 113.024 157.98C112.716 158.113 112.339 158.179 111.895 158.179ZM112.074 157.125C112.538 157.125 112.929 157.034 113.248 156.852C113.569 156.669 113.811 156.434 113.973 156.146C114.139 155.857 114.222 155.554 114.222 155.236V154.162C114.172 154.222 114.063 154.276 113.894 154.326C113.728 154.372 113.536 154.414 113.317 154.45C113.102 154.483 112.891 154.513 112.686 154.54C112.484 154.563 112.319 154.583 112.194 154.599C111.889 154.639 111.604 154.704 111.338 154.793C111.077 154.879 110.864 155.01 110.702 155.186C110.543 155.358 110.463 155.594 110.463 155.892C110.463 156.3 110.614 156.608 110.916 156.817C111.221 157.022 111.607 157.125 112.074 157.125ZM117.537 158V150.364H118.67V151.517H118.75C118.889 151.139 119.141 150.833 119.506 150.597C119.87 150.362 120.281 150.244 120.738 150.244C120.825 150.244 120.932 150.246 121.062 150.249C121.191 150.253 121.289 150.258 121.355 150.264V151.457C121.315 151.447 121.224 151.433 121.081 151.413C120.942 151.389 120.795 151.378 120.639 151.378C120.268 151.378 119.936 151.456 119.645 151.612C119.356 151.764 119.128 151.976 118.959 152.248C118.793 152.516 118.71 152.823 118.71 153.168V158H117.537ZM128.692 158L125.908 147.818H127.161L129.288 156.111H129.388L131.555 147.818H132.947L135.115 156.111H135.214L137.342 147.818H138.595L135.811 158H134.538L132.291 149.886H132.212L129.964 158H128.692ZM141.509 158.179C141.025 158.179 140.585 158.088 140.191 157.906C139.797 157.72 139.483 157.453 139.251 157.105C139.019 156.754 138.903 156.33 138.903 155.832C138.903 155.395 138.99 155.04 139.162 154.768C139.334 154.493 139.565 154.278 139.853 154.122C140.141 153.966 140.46 153.85 140.808 153.774C141.159 153.695 141.512 153.632 141.866 153.585C142.33 153.526 142.707 153.481 142.995 153.451C143.287 153.418 143.499 153.363 143.631 153.287C143.767 153.211 143.835 153.078 143.835 152.889V152.849C143.835 152.359 143.701 151.978 143.433 151.706C143.167 151.434 142.765 151.298 142.224 151.298C141.664 151.298 141.225 151.421 140.907 151.666C140.589 151.911 140.365 152.173 140.236 152.452L139.122 152.054C139.321 151.59 139.586 151.229 139.918 150.97C140.252 150.708 140.617 150.526 141.011 150.423C141.409 150.317 141.8 150.264 142.185 150.264C142.43 150.264 142.712 150.294 143.03 150.354C143.351 150.41 143.661 150.528 143.96 150.707C144.261 150.886 144.511 151.156 144.71 151.517C144.909 151.878 145.009 152.362 145.009 152.969V158H143.835V156.966H143.776C143.696 157.132 143.563 157.309 143.378 157.498C143.192 157.687 142.945 157.848 142.637 157.98C142.329 158.113 141.953 158.179 141.509 158.179ZM141.688 157.125C142.152 157.125 142.543 157.034 142.861 156.852C143.182 156.669 143.424 156.434 143.587 156.146C143.752 155.857 143.835 155.554 143.835 155.236V154.162C143.786 154.222 143.676 154.276 143.507 154.326C143.341 154.372 143.149 154.414 142.93 154.45C142.715 154.483 142.504 154.513 142.299 154.54C142.097 154.563 141.933 154.583 141.807 154.599C141.502 154.639 141.217 154.704 140.952 154.793C140.69 154.879 140.478 155.01 140.315 155.186C140.156 155.358 140.077 155.594 140.077 155.892C140.077 156.3 140.228 156.608 140.529 156.817C140.834 157.022 141.22 157.125 141.688 157.125ZM147.15 158V150.364H148.284V151.517H148.363C148.502 151.139 148.754 150.833 149.119 150.597C149.483 150.362 149.894 150.244 150.352 150.244C150.438 150.244 150.546 150.246 150.675 150.249C150.804 150.253 150.902 150.258 150.968 150.264V151.457C150.928 151.447 150.837 151.433 150.695 151.413C150.556 151.389 150.408 151.378 150.252 151.378C149.881 151.378 149.55 151.456 149.258 151.612C148.97 151.764 148.741 151.976 148.572 152.248C148.406 152.516 148.323 152.823 148.323 153.168V158H147.15ZM152.359 158V150.364H153.493V151.517H153.572C153.711 151.139 153.963 150.833 154.328 150.597C154.692 150.362 155.103 150.244 155.561 150.244C155.647 150.244 155.755 150.246 155.884 150.249C156.013 150.253 156.111 150.258 156.177 150.264V151.457C156.137 151.447 156.046 151.433 155.904 151.413C155.765 151.389 155.617 151.378 155.461 151.378C155.09 151.378 154.759 151.456 154.467 151.612C154.179 151.764 153.95 151.976 153.781 152.248C153.615 152.516 153.532 152.823 153.532 153.168V158H152.359ZM159.815 158.179C159.331 158.179 158.892 158.088 158.498 157.906C158.103 157.72 157.79 157.453 157.558 157.105C157.326 156.754 157.21 156.33 157.21 155.832C157.21 155.395 157.296 155.04 157.469 154.768C157.641 154.493 157.871 154.278 158.16 154.122C158.448 153.966 158.766 153.85 159.114 153.774C159.465 153.695 159.818 153.632 160.173 153.585C160.637 153.526 161.013 153.481 161.302 153.451C161.593 153.418 161.805 153.363 161.938 153.287C162.074 153.211 162.142 153.078 162.142 152.889V152.849C162.142 152.359 162.008 151.978 161.739 151.706C161.474 151.434 161.071 151.298 160.531 151.298C159.971 151.298 159.532 151.421 159.214 151.666C158.895 151.911 158.672 152.173 158.542 152.452L157.429 152.054C157.628 151.59 157.893 151.229 158.224 150.97C158.559 150.708 158.924 150.526 159.318 150.423C159.716 150.317 160.107 150.264 160.491 150.264C160.737 150.264 161.018 150.294 161.336 150.354C161.658 150.41 161.968 150.528 162.266 150.707C162.568 150.886 162.818 151.156 163.017 151.517C163.216 151.878 163.315 152.362 163.315 152.969V158H162.142V156.966H162.082C162.003 157.132 161.87 157.309 161.684 157.498C161.499 157.687 161.252 157.848 160.944 157.98C160.635 158.113 160.259 158.179 159.815 158.179ZM159.994 157.125C160.458 157.125 160.849 157.034 161.167 156.852C161.489 156.669 161.731 156.434 161.893 156.146C162.059 155.857 162.142 155.554 162.142 155.236V154.162C162.092 154.222 161.983 154.276 161.814 154.326C161.648 154.372 161.456 154.414 161.237 154.45C161.022 154.483 160.811 154.513 160.606 154.54C160.403 154.563 160.239 154.583 160.113 154.599C159.809 154.639 159.523 154.704 159.258 154.793C158.997 154.879 158.784 155.01 158.622 155.186C158.463 155.358 158.383 155.594 158.383 155.892C158.383 156.3 158.534 156.608 158.836 156.817C159.141 157.022 159.527 157.125 159.994 157.125ZM166.63 153.406V158H165.457V150.364H166.59V151.557H166.69C166.869 151.169 167.14 150.857 167.505 150.622C167.87 150.384 168.34 150.264 168.917 150.264C169.434 150.264 169.886 150.37 170.274 150.582C170.662 150.791 170.964 151.109 171.179 151.537C171.394 151.961 171.502 152.498 171.502 153.148V158H170.329V153.227C170.329 152.627 170.173 152.16 169.862 151.825C169.55 151.487 169.122 151.318 168.579 151.318C168.204 151.318 167.87 151.399 167.575 151.562C167.283 151.724 167.053 151.961 166.884 152.273C166.714 152.584 166.63 152.962 166.63 153.406ZM176.967 150.364V151.358H173.01V150.364H176.967ZM174.163 148.534H175.336V155.812C175.336 156.144 175.385 156.393 175.481 156.558C175.58 156.721 175.706 156.83 175.858 156.886C176.014 156.939 176.178 156.966 176.351 156.966C176.48 156.966 176.586 156.959 176.669 156.946C176.752 156.929 176.818 156.916 176.868 156.906L177.106 157.96C177.027 157.99 176.916 158.02 176.773 158.05C176.631 158.083 176.45 158.099 176.231 158.099C175.9 158.099 175.575 158.028 175.257 157.886C174.942 157.743 174.68 157.526 174.471 157.234C174.266 156.943 174.163 156.575 174.163 156.131V148.534ZM179.488 160.864C179.289 160.864 179.112 160.847 178.956 160.814C178.8 160.784 178.692 160.754 178.633 160.724L178.931 159.69C179.216 159.763 179.468 159.79 179.687 159.77C179.905 159.75 180.099 159.652 180.268 159.477C180.441 159.304 180.598 159.024 180.741 158.636L180.959 158.04L178.135 150.364H179.408L181.516 156.449H181.596L183.704 150.364H184.976L181.735 159.114C181.589 159.508 181.408 159.835 181.193 160.093C180.978 160.355 180.727 160.549 180.442 160.675C180.161 160.801 179.842 160.864 179.488 160.864Z"
      fill="black" />
  </g>
  <defs>
    <clipPath id="clip0_1_1199">
      <rect width="230" height="204" fill="white" />
    </clipPath>
  </defs>
</svg>