<svg xmlns="http://www.w3.org/2000/svg" xmlns:xlink="http://www.w3.org/1999/xlink" version="1.1" width="1000" height="1000" viewBox="0 0 1000 1000" xml:space="preserve">
<desc>Created with Fabric.js 3.5.0</desc>
<defs>
</defs>
<rect x="0" y="0" width="100%" height="100%" fill="#ffffff"/>
<g transform="matrix(11.5306 0 0 11.5306 500.005 739.7973)" id="65743">
<g style="" vector-effect="non-scaling-stroke">
		<g transform="matrix(1 0 0 1 0 0)" clip-path="url(#CLIPPATH_1)">
<clipPath id="CLIPPATH_1">
	<rect transform="matrix(1 0 0 1 0 0)" id="clip0_1_1199" x="-115" y="-102" rx="0" ry="0" width="230" height="204"/>
</clipPath>
<path style="stroke: none; stroke-width: 1; stroke-dasharray: none; stroke-linecap: butt; stroke-dashoffset: 0; stroke-linejoin: miter; stroke-miterlimit: 4; is-custom-font: none; font-file-url: none; fill: rgb(255,255,255); fill-rule: nonzero; opacity: 1;" transform=" translate(-115, -102)" d="M 230 0 H 0 V 204 H 230 V 0 Z" stroke-linecap="round"/>
</g>
		<g transform="matrix(1 0 0 1 9.4275 1.3696)" clip-path="url(#CLIPPATH_2)">
<clipPath id="CLIPPATH_2">
	<rect transform="matrix(1 0 0 1 -9.4275 -1.3696)" id="clip0_1_1199" x="-115" y="-102" rx="0" ry="0" width="230" height="204"/>
</clipPath>
<path style="stroke: none; stroke-width: 1; stroke-dasharray: none; stroke-linecap: butt; stroke-dashoffset: 0; stroke-linejoin: miter; stroke-miterlimit: 4; is-custom-font: none; font-file-url: none; fill: rgb(97,131,101); fill-rule: nonzero; opacity: 1;" transform=" translate(-124.4275, -103.3696)" d="M 143.573 112.94 L 134.347 113.968 L 134.002 122.519 L 105.282 93.7984 L 114.853 84.2202 L 143.573 112.94 Z" stroke-linecap="round"/>
</g>
		<g transform="matrix(1 0 0 1 -9.9121 1.8545)" clip-path="url(#CLIPPATH_3)">
<clipPath id="CLIPPATH_3">
	<rect transform="matrix(1 0 0 1 9.9121 -1.8545)" id="clip0_1_1199" x="-115" y="-102" rx="0" ry="0" width="230" height="204"/>
</clipPath>
<path style="stroke: none; stroke-width: 1; stroke-dasharray: none; stroke-linecap: butt; stroke-dashoffset: 0; stroke-linejoin: miter; stroke-miterlimit: 4; is-custom-font: none; font-file-url: none; fill: rgb(97,131,101); fill-rule: nonzero; opacity: 1;" transform=" translate(-105.0879, -103.8545)" d="M 95.517 123 L 94.4895 113.767 L 85.9388 113.429 L 114.659 84.709 L 124.237 94.28 L 95.517 123 Z" stroke-linecap="round"/>
</g>
		<g transform="matrix(1 0 0 1 -2.8777 -8.435)" clip-path="url(#CLIPPATH_4)">
<clipPath id="CLIPPATH_4">
	<rect transform="matrix(1 0 0 1 2.8777 8.4351)" id="clip0_1_1199" x="-115" y="-102" rx="0" ry="0" width="230" height="204"/>
</clipPath>
<path style="stroke: none; stroke-width: 1; stroke-dasharray: none; stroke-linecap: butt; stroke-dashoffset: 0; stroke-linejoin: miter; stroke-miterlimit: 4; is-custom-font: none; font-file-url: none; fill: rgb(255,255,255); fill-rule: nonzero; opacity: 1;" transform=" translate(-112.1223, -93.5649)" d="M 138.091 85.8011 L 139.319 92.9075 L 132.112 92.929 L 130.841 100.021 L 124.057 97.578 L 120.429 103.815 L 114.889 99.1947 L 109.356 103.815 L 105.727 97.578 L 98.9445 100.021 L 97.6726 92.929 L 90.4657 92.9075 L 91.6944 85.8011 L 84.9257 83.3149" stroke-linecap="round"/>
</g>
		<g transform="matrix(1 0 0 1 -2.8777 -8.435)" clip-path="url(#CLIPPATH_5)">
<clipPath id="CLIPPATH_5">
	<rect transform="matrix(1 0 0 1 2.8777 8.4351)" id="clip0_1_1199" x="-115" y="-102" rx="0" ry="0" width="230" height="204"/>
</clipPath>
<path style="stroke: rgb(51,51,51); stroke-width: 2.5; stroke-dasharray: none; stroke-linecap: butt; stroke-dashoffset: 0; stroke-linejoin: miter; stroke-miterlimit: 10; is-custom-font: none; font-file-url: none; fill: none; fill-rule: nonzero; opacity: 1;" transform=" translate(-112.1223, -93.5649)" d="M 138.091 85.8011 L 139.319 92.9075 L 132.112 92.929 L 130.841 100.021 L 124.057 97.578 L 120.429 103.815 L 114.889 99.1947 L 109.356 103.815 L 105.727 97.578 L 98.9445 100.021 L 97.6726 92.929 L 90.4657 92.9075 L 91.6944 85.8011 L 84.9257 83.3149" stroke-linecap="round"/>
</g>
		<g transform="matrix(1 0 0 1 -0.1075 -29.5925)" clip-path="url(#CLIPPATH_6)">
<clipPath id="CLIPPATH_6">
	<rect transform="matrix(1 0 0 1 0.1075 29.5925)" id="clip0_1_1199" x="-115" y="-102" rx="0" ry="0" width="230" height="204"/>
</clipPath>
<path style="stroke: rgb(51,51,51); stroke-width: 2.5; stroke-dasharray: none; stroke-linecap: butt; stroke-dashoffset: 0; stroke-linejoin: miter; stroke-miterlimit: 10; is-custom-font: none; font-file-url: none; fill: rgb(255,255,255); fill-rule: nonzero; opacity: 1;" transform=" translate(-114.8925, -72.4075)" d="M 114.889 45.6202 L 120.429 41 L 124.057 47.2298 L 130.841 44.7867 L 132.112 51.8859 L 139.319 51.9075 L 138.091 59.0138 L 144.859 61.5 L 141.274 67.7513 L 146.785 72.4075 L 141.274 77.0564 L 144.859 83.3149 L 138.091 85.8011 L 139.319 92.9075 L 132.112 92.929 L 130.841 100.021 L 124.057 97.578 L 120.429 103.815 L 114.889 99.1947 L 109.356 103.815 L 105.727 97.578 L 98.9444 100.021 L 97.6726 92.929 L 90.4657 92.9075 L 91.6944 85.8011 L 84.9257 83.3149 L 88.5112 77.0564 L 83 72.4075 L 88.5112 67.7513 L 84.9257 61.5 L 91.6944 59.0138 L 90.4657 51.9075 L 97.6726 51.8859 L 98.9444 44.7867 L 105.727 47.2298 L 109.356 41 L 114.889 45.6202 Z" stroke-linecap="round"/>
</g>
		<g transform="matrix(1 0 0 1 -0.1112 -29.5925)" clip-path="url(#CLIPPATH_7)">
<clipPath id="CLIPPATH_7">
	<rect transform="matrix(1 0 0 1 0.1112 29.5925)" id="clip0_1_1199" x="-115" y="-102" rx="0" ry="0" width="230" height="204"/>
</clipPath>
<path style="stroke: rgb(51,51,51); stroke-width: 2.5; stroke-dasharray: none; stroke-linecap: butt; stroke-dashoffset: 0; stroke-linejoin: miter; stroke-miterlimit: 10; is-custom-font: none; font-file-url: none; fill: rgb(255,255,255); fill-rule: nonzero; opacity: 1;" transform=" translate(-114.8888, -72.4075)" d="M 114.889 92.8069 C 126.155 92.8069 135.288 83.6737 135.288 72.4075 C 135.288 61.1412 126.155 52.0081 114.889 52.0081 C 103.623 52.0081 94.4895 61.1412 94.4895 72.4075 C 94.4895 83.6737 103.623 92.8069 114.889 92.8069 Z" stroke-linecap="round"/>
</g>
		<g transform="matrix(1 0 0 1 -0.176 -28.8902)" clip-path="url(#CLIPPATH_8)">
<clipPath id="CLIPPATH_8">
	<rect transform="matrix(1 0 0 1 0.176 28.8902)" id="clip0_1_1199" x="-115" y="-102" rx="0" ry="0" width="230" height="204"/>
</clipPath>
<path style="stroke: none; stroke-width: 1; stroke-dasharray: none; stroke-linecap: butt; stroke-dashoffset: 0; stroke-linejoin: miter; stroke-miterlimit: 4; is-custom-font: none; font-file-url: none; fill: rgb(49,119,176); fill-rule: nonzero; opacity: 1;" transform=" translate(-114.824, -73.1098)" d="M 113.168 78.4898 V 80.3398 H 105.168 V 78.4898 H 108.098 V 70.0598 C 108.098 69.7265 108.108 69.3832 108.128 69.0298 L 106.048 70.7698 C 105.928 70.8632 105.808 70.9232 105.688 70.9498 C 105.575 70.9698 105.465 70.9698 105.358 70.9498 C 105.258 70.9298 105.168 70.8965 105.088 70.8498 C 105.008 70.7965 104.948 70.7398 104.908 70.6798 L 104.128 69.6098 L 108.538 65.8598 H 110.568 V 78.4898 H 113.168 Z M 125.52 73.1098 C 125.52 74.3698 125.383 75.4665 125.11 76.3998 C 124.843 77.3265 124.47 78.0932 123.99 78.6998 C 123.517 79.3065 122.953 79.7598 122.3 80.0598 C 121.653 80.3532 120.953 80.4998 120.2 80.4998 C 119.447 80.4998 118.747 80.3532 118.1 80.0598 C 117.46 79.7598 116.903 79.3065 116.43 78.6998 C 115.957 78.0932 115.587 77.3265 115.32 76.3998 C 115.053 75.4665 114.92 74.3698 114.92 73.1098 C 114.92 71.8432 115.053 70.7465 115.32 69.8198 C 115.587 68.8932 115.957 68.1265 116.43 67.5198 C 116.903 66.9132 117.46 66.4632 118.1 66.1698 C 118.747 65.8698 119.447 65.7198 120.2 65.7198 C 120.953 65.7198 121.653 65.8698 122.3 66.1698 C 122.953 66.4632 123.517 66.9132 123.99 67.5198 C 124.47 68.1265 124.843 68.8932 125.11 69.8198 C 125.383 70.7465 125.52 71.8432 125.52 73.1098 Z M 122.97 73.1098 C 122.97 72.0632 122.893 71.1965 122.74 70.5098 C 122.587 69.8232 122.38 69.2765 122.12 68.8698 C 121.867 68.4632 121.573 68.1798 121.24 68.0198 C 120.907 67.8532 120.56 67.7698 120.2 67.7698 C 119.847 67.7698 119.503 67.8532 119.17 68.0198 C 118.843 68.1798 118.553 68.4632 118.3 68.8698 C 118.047 69.2765 117.843 69.8232 117.69 70.5098 C 117.543 71.1965 117.47 72.0632 117.47 73.1098 C 117.47 74.1565 117.543 75.0232 117.69 75.7098 C 117.843 76.3965 118.047 76.9432 118.3 77.3498 C 118.553 77.7565 118.843 78.0432 119.17 78.2098 C 119.503 78.3698 119.847 78.4498 120.2 78.4498 C 120.56 78.4498 120.907 78.3698 121.24 78.2098 C 121.573 78.0432 121.867 77.7565 122.12 77.3498 C 122.38 76.9432 122.587 76.3965 122.74 75.7098 C 122.893 75.0232 122.97 74.1565 122.97 73.1098 Z" stroke-linecap="round"/>
</g>
</g>
</g>
</svg>