<svg xmlns="http://www.w3.org/2000/svg" width="194" height="164" viewBox="0 0 194 164" fill="none">
  <g clip-path="url(#clip0_1_1997)">
    <path d="M0 2.9165H194V161.084H0V2.9165Z" fill="white" />
    <path
      d="M34.287 96.3485C34.287 96.3485 42.9246 92.2861 47.4355 93.4358L57.6096 93.1068C57.6096 93.1068 65.6369 94.2132 65.3209 99.5879L63.3212 128.292L34.7963 131.997L34.287 96.3507V96.3485Z"
      fill="white" stroke="black" stroke-width="0.509306" stroke-miterlimit="10" />
    <path d="M149.236 95.3301V52.9064H115.035V95.3301H149.236Z" fill="#618365" />
    <path d="M145.636 91.6803V56.5542H118.632V91.6803H145.636Z" fill="white" />
    <path
      d="M126.57 108.163C126.745 108.062 126.919 107.961 127.086 107.845C128.976 106.53 142.794 97.7532 160.622 108.512C160.622 108.512 169.337 112.996 170.181 132.113H153.6V142.35L128.657 153.35L119.012 153.442L118.744 121.202C118.744 121.202 121.212 111.225 126.572 108.165L126.57 108.163Z"
      fill="white" stroke="black" stroke-width="0.509306" stroke-miterlimit="10" />
    <path d="M168.777 19.3846H119.375V46.3964H168.777V19.3846Z" fill="#618365" />
    <path d="M109.655 23.1383H79.0535V59.1751H109.655V23.1383Z" fill="#618365" />
    <path d="M105.94 26.5333H82.7671V55.7816H105.94V26.5333Z" fill="white" />
    <path d="M164.527 23.6077H123.624V42.1737H164.527V23.6077Z" fill="white" />
    <path
      d="M45.7607 77.3522C45.7607 65.7965 36.4009 56.429 24.8527 56.429C13.3044 56.429 3.94464 65.7965 3.94464 77.3522H45.7585H45.7607Z"
      fill="#618365" />
    <path
      d="M30.8979 77.2251C30.8979 80.5631 28.1914 83.2676 24.8549 83.2676C21.5184 83.2676 18.8118 80.5609 18.8118 77.2251H30.8979Z"
      fill="#618365" />
    <path d="M24.855 56.427V19.3301" stroke="#618365" stroke-width="1.52792" stroke-miterlimit="10" />
    <path
      d="M52.2969 89.4965C56.1168 88.7535 58.4717 84.339 57.5567 79.6365C56.6417 74.9342 52.8033 71.7246 48.9834 72.4678C45.1636 73.2109 42.8087 77.6251 43.7237 82.3276C44.6387 87.03 48.4771 90.2396 52.2969 89.4965Z"
      fill="white" stroke="black" stroke-width="0.509306" stroke-miterlimit="10" />
    <path
      d="M47.5301 88.8206C47.5301 88.8206 47.4642 92.7755 45.6489 93.4231C45.6489 93.4231 51.2222 100.373 58.3254 93.1597C58.3539 93.1306 58.3429 93.0806 58.3035 93.0672C57.7789 92.918 55.1052 91.9832 54.9867 88.2998C54.9867 88.2998 52.5217 90.6992 47.5301 88.8183V88.8206Z"
      fill="white" stroke="black" stroke-width="0.509306" stroke-miterlimit="10" />
    <path
      d="M38.1305 127.954C38.1305 127.954 32.3926 139.477 34.3945 153.434L63.084 153.5C63.084 153.5 63.7162 133.832 61.17 127.579C61.17 127.579 46.4257 128.388 38.1283 127.954H38.1305Z"
      fill="white" stroke="black" stroke-width="0.509306" stroke-miterlimit="10" />
    <path d="M54.7803 127.625C54.7803 127.625 55.4256 146.915 53.6893 153.348L54.7803 127.625Z" fill="white" />
    <path d="M54.7803 127.625C54.7803 127.625 55.4256 146.915 53.6893 153.348" stroke="black" stroke-width="0.509306"
      stroke-miterlimit="10" />
    <path
      d="M64.8491 97.0311C65.3715 98.2912 69.619 108.233 69.7244 113.181C69.7309 113.536 69.518 113.856 69.1844 113.982C68.2317 114.335 66.1157 114.967 63.8503 114.647C63.8415 114.647 63.835 114.638 63.835 114.629C63.903 114.129 65.4484 101.818 64.814 97.0422C64.8117 97.0199 64.8403 97.0139 64.8491 97.0333V97.0311Z"
      fill="white" stroke="black" stroke-width="0.509306" stroke-miterlimit="10" />
    <path
      d="M69.0942 114.07C69.0942 114.07 70.4727 119.453 70.4069 120.832C70.4069 120.832 80.1899 108.883 82.6858 107.766C82.6858 107.766 87.8051 104.096 91.6441 104.954C91.9142 105.014 92.0396 105.324 91.9008 105.56C91.6068 106.065 90.7816 106.875 88.4789 107.573C88.4371 107.586 88.4327 107.645 88.4767 107.659C89.4206 107.942 94.9608 109.531 98.214 108.762C98.449 108.708 98.6617 108.903 98.6199 109.14C98.4684 109.961 98.1282 111.62 97.5865 113.087C96.9978 114.682 95.4129 115.685 93.7184 115.538C90.9218 115.294 86.2308 114.832 84.6549 114.335C84.6549 114.335 80.5063 128.929 73.2955 134.104C70.4792 136.125 66.5918 135.831 64.186 133.331C62.8953 131.99 62.0502 130.728 61.1854 127.509C61.1854 127.509 63.6263 117.388 63.8304 114.647C63.8304 114.647 66.5304 114.86 69.092 114.072L69.0942 114.07Z"
      fill="white" stroke="black" stroke-width="0.509306" stroke-miterlimit="10" />
    <path
      d="M141.419 102.421C145.11 102.421 148.101 98.4636 148.101 93.5813C148.101 88.6983 145.11 84.7404 141.419 84.7404C137.729 84.7404 134.737 88.6983 134.737 93.5813C134.737 98.4636 137.729 102.421 141.419 102.421Z"
      fill="white" stroke="black" stroke-width="0.509306" stroke-miterlimit="10" />
    <path d="M126.864 108.003L126.289 120.733" stroke="black" stroke-width="0.509306" stroke-miterlimit="10" />
    <path
      d="M139.448 97.1736C138.571 97.1736 137.857 96.4626 137.857 95.5829C137.857 94.7026 138.568 93.9916 139.448 93.9916"
      stroke="black" stroke-width="0.509306" stroke-miterlimit="10" stroke-linecap="round" />
    <path
      d="M142.953 92.9068C143.374 92.9068 143.713 92.486 143.713 91.9675C143.713 91.449 143.374 91.0282 142.953 91.0282C142.534 91.0282 142.195 91.449 142.195 91.9675C142.195 92.486 142.534 92.9068 142.953 92.9068Z"
      fill="black" />
    <path
      d="M137.583 92.9068C138.002 92.9068 138.342 92.486 138.342 91.9675C138.342 91.449 138.002 91.0282 137.583 91.0282C137.163 91.0282 136.823 91.449 136.823 91.9675C136.823 92.486 137.163 92.9068 137.583 92.9068Z"
      fill="black" />
    <path d="M136.219 90.7626C136.219 90.7626 137.361 89.1011 139.334 90.5895" stroke="black" stroke-width="0.509306"
      stroke-miterlimit="10" stroke-linecap="round" />
    <path d="M141.204 90.7626C141.204 90.7626 142.346 89.1011 144.319 90.5895" stroke="black" stroke-width="0.509306"
      stroke-miterlimit="10" stroke-linecap="round" />
    <path
      d="M167.967 120.147C166.086 113.095 162.923 110.11 161.5 109.076C161.015 108.725 160.416 108.574 159.823 108.659C157.211 109.037 150.112 111.897 150.557 131.881C150.562 132.078 150.729 132.238 150.926 132.231L153.491 132.157L153.71 141.419C153.697 142.062 153.284 142.629 152.674 142.833C147.691 144.505 137.405 147.69 134.946 148.45L130.42 149.937C129.922 150.076 129.393 150.042 128.912 149.85C126.851 149.018 122.68 148.182 122.68 148.182L121.642 153.148L156.682 153.474C165.813 153.703 167.906 150.921 167.906 150.921C170.216 147.686 167.328 132.199 167.328 132.199"
      fill="white" />
    <path
      d="M167.967 120.147C166.086 113.095 162.923 110.11 161.5 109.076C161.015 108.725 160.416 108.574 159.823 108.659C157.211 109.037 150.112 111.897 150.557 131.881C150.562 132.078 150.729 132.238 150.926 132.231L153.491 132.157L153.71 141.419C153.697 142.062 153.284 142.629 152.674 142.833C147.691 144.505 137.405 147.69 134.946 148.45L130.42 149.937C129.922 150.076 129.393 150.042 128.912 149.85C126.851 149.018 122.68 148.182 122.68 148.182L121.642 153.148L156.682 153.474C165.813 153.703 167.906 150.921 167.906 150.921C170.216 147.686 167.328 132.199 167.328 132.199"
      stroke="black" stroke-width="0.509306" stroke-miterlimit="10" />
    <path
      d="M80.3481 153.489L84.9862 121.657C85.0459 121.242 85.401 120.935 85.8204 120.935H126.245C126.767 120.935 127.165 121.404 127.077 121.92L121.769 153.262C121.747 153.394 121.633 153.489 121.501 153.489H80.3503H80.3481Z"
      fill="#FFFDFD" stroke="black" stroke-width="0.509306" stroke-miterlimit="10" />
    <path
      d="M80.3391 153.504H65.031L65.3361 151.696C65.3691 151.496 65.5447 151.349 65.7466 151.349H80.6644L80.3391 153.504Z"
      fill="#FFFDFD" stroke="black" stroke-width="0.509306" stroke-miterlimit="10" />
    <path
      d="M147.397 97.3318C147.397 97.3318 145.794 101.687 150.087 101.366C150.087 101.366 152.779 102.839 154.123 100.15C154.123 100.15 157.261 101.622 157.902 99.5088C157.902 99.5088 159.696 95.2816 156.75 94.8973C156.75 94.8973 158.095 92.0794 155.981 91.9519C155.981 91.9519 157.647 88.173 155.598 87.6612C155.598 87.6612 156.943 85.5476 154.061 85.5476C154.061 85.5476 153.356 81.577 149.129 82.0254C149.129 82.0254 148.297 75.0433 141.251 79.4C141.251 79.4 136.511 78.5024 136.959 82.5387C136.959 82.5387 132.474 81.2569 133.372 86.1885C133.372 86.1885 127.929 84.6523 129.017 90.2225C129.017 90.2225 129.211 92.2727 133.118 91.8884C133.118 91.8884 130.556 97.525 135.168 97.7182C135.168 97.7182 134.27 93.7476 134.784 91.5042C134.784 91.5042 138.18 90.3523 138.307 87.982C138.307 87.982 141.894 87.7254 142.277 86.1885C142.277 86.1885 143.687 89.4548 145.928 89.2638C145.928 89.2638 145.03 94.0021 148.235 94.0021C148.235 94.0021 148.299 96.2433 147.403 97.3318H147.397Z"
      fill="black" />
    <path d="M0 153.486H194" stroke="black" stroke-width="0.509306" stroke-miterlimit="10" />
    <path
      d="M137.152 100.517C137.152 100.517 137.593 102.885 137.108 104.942C136.981 105.483 137.112 106.05 137.48 106.469C138.39 107.512 139.821 108.864 141.654 108.888C141.654 108.888 146.029 108.945 147.928 103.881C147.928 103.881 147.14 102.277 147.14 98.8313C147.14 98.8313 142.989 105.441 137.152 100.519V100.517Z"
      fill="white" stroke="black" stroke-width="0.509306" stroke-miterlimit="10" />
    <path
      d="M147.862 97.5377C148.907 97.707 149.893 96.996 150.061 95.9493C150.231 94.904 149.52 93.9185 148.472 93.7499"
      fill="white" />
    <path
      d="M147.862 97.5377C148.907 97.707 149.893 96.996 150.061 95.9493C150.231 94.904 149.52 93.9185 148.472 93.7499"
      stroke="black" stroke-width="0.509306" stroke-miterlimit="10" />
    <path
      d="M47.1633 85.3551C49.4254 85.3551 51.2592 83.5213 51.2592 81.2592C51.2592 78.9971 49.4254 77.1637 47.1633 77.1637C44.9011 77.1637 43.0673 78.9971 43.0673 81.2592C43.0673 83.5213 44.9011 85.3551 47.1633 85.3551Z"
      fill="white" stroke="black" stroke-width="0.509306" stroke-miterlimit="10" />
    <path
      d="M55.2675 82.8326C57.5296 82.8326 59.3635 80.9987 59.3635 78.7374C59.3635 76.4752 57.5296 74.6416 55.2675 74.6416C53.0053 74.6416 51.1714 76.4752 51.1714 78.7374C51.1714 80.9987 53.0053 82.8326 55.2675 82.8326Z"
      fill="white" stroke="black" stroke-width="0.509306" stroke-miterlimit="10" />
    <path
      d="M47.5562 82.3507C47.9447 82.1269 48.0292 81.5457 47.7449 81.0533C47.4606 80.5609 46.9152 80.3438 46.5268 80.5683C46.1383 80.7921 46.0539 81.3733 46.3381 81.8657C46.6224 82.3581 47.1678 82.5753 47.5562 82.3507Z"
      fill="black" />
    <path
      d="M55.5264 79.6133C55.9605 79.4999 56.1962 78.962 56.0528 78.4122C55.9095 77.8623 55.4414 77.5076 55.0074 77.6206C54.5734 77.734 54.3377 78.2712 54.481 78.8218C54.6243 79.3716 55.0923 79.726 55.5264 79.6133Z"
      fill="black" />
    <path
      d="M48.9743 73.6979C50.2891 75.0917 54.4905 78.6583 59.2977 73.4323C59.4645 73.2502 59.3174 72.9583 59.0738 72.9912C58.3187 73.0944 57.186 72.6993 56.938 71.9597C56.8744 71.7731 56.7777 71.5975 56.6526 71.4438C55.88 70.4891 53.4589 67.5831 47.2358 69.1612C47.0602 69.2052 46.8802 69.2337 46.698 69.2381C45.9473 69.2534 43.6952 69.4136 42.8677 70.792C42.6393 71.1739 42.3364 71.5031 41.9523 71.727C40.363 72.651 36.4602 76.5139 39.5729 84.2748C39.6014 84.3471 39.5135 84.4083 39.4587 84.3538C38.596 83.4869 35.7446 81.1495 32.3752 84.0666C32.3752 84.0666 27.4078 89.0817 33.2554 93.1247C35.1168 94.4101 39.2128 94.8563 41.353 94.1184C43.4954 93.3813 45.6686 91.4781 45.4183 86.7569L44.2242 84.5471C44.2242 84.5471 43.3264 82.5148 43.4954 80.5392C43.5305 80.1244 43.8488 79.7931 44.2637 79.7379C45.561 79.5693 48.3794 78.6516 48.5485 73.8648C48.5572 73.6409 48.8273 73.5355 48.9787 73.6958L48.9743 73.6979Z"
      fill="black" />
    <path
      d="M104.279 142.526C107.484 142.526 110.083 139.927 110.083 136.723C110.083 133.518 107.484 130.919 104.279 130.919C101.073 130.919 98.4751 133.518 98.4751 136.723C98.4751 139.927 101.073 142.526 104.279 142.526Z"
      fill="#618365" />
    <path d="M89.102 109.23C89.102 109.23 94.7743 111.552 98.258 110.598L89.102 109.23Z" fill="white" />
    <path d="M89.102 109.23C89.102 109.23 94.7743 111.552 98.258 110.598" stroke="black" stroke-width="0.509306"
      stroke-miterlimit="10" stroke-linecap="round" />
    <path d="M88.5446 110.733C88.5446 110.733 94.2168 113.056 97.6999 112.101L88.5446 110.733Z" fill="white" />
    <path d="M88.5446 110.733C88.5446 110.733 94.2168 113.056 97.6999 112.101" stroke="black" stroke-width="0.509306"
      stroke-miterlimit="10" stroke-linecap="round" />
    <path d="M89.9996 112.992C89.9996 112.992 93.7423 114.502 97.2283 113.545L89.9996 112.992Z" fill="white" />
    <path d="M89.9996 112.992C89.9996 112.992 93.7423 114.502 97.2283 113.545" stroke="black" stroke-width="0.509306"
      stroke-miterlimit="10" stroke-linecap="round" />
    <path
      d="M26.5649 114.203C26.5649 114.203 25.4388 142.334 25.9503 147.642C25.9897 148.041 25.7878 148.425 25.4409 148.629C24.5717 149.143 22.8662 149.876 21.1365 149.077C19.7733 148.445 18.1973 148.429 16.8517 149.099C15.6092 149.718 14.3383 150.769 13.7852 152.554C13.6359 153.032 13.9893 153.519 14.4898 153.519C17.745 153.519 28.7226 153.519 32.823 153.519C33.7185 153.519 34.4759 152.859 34.5966 151.97C35.4592 145.638 38.7892 121.839 39.1975 115.735C39.1975 115.735 31.1548 117.14 26.5692 114.199L26.5649 114.203Z"
      fill="white" stroke="black" stroke-width="0.509306" stroke-miterlimit="10" />
    <path
      d="M51.1693 83.1705C51.1693 83.1705 52.9825 81.3755 54.0097 82.4006C54.0097 82.4006 54.8065 83.0609 53.4237 84.8298"
      fill="white" />
    <path
      d="M51.1693 83.1705C51.1693 83.1705 52.9825 81.3755 54.0097 82.4006C54.0097 82.4006 54.8065 83.0609 53.4237 84.8298"
      stroke="black" stroke-width="0.509306" stroke-miterlimit="10" />
    <path
      d="M56.2661 106.649H56.264C56.2288 106.649 56.1938 106.636 56.1674 106.611L56.0796 106.532C56.0489 106.504 56.0072 106.489 55.9654 106.489C55.9237 106.489 55.882 106.504 55.8513 106.532L55.7635 106.611C55.735 106.636 55.6999 106.649 55.6625 106.649H55.6515C55.6515 106.649 55.6515 106.649 55.6494 106.649C55.6428 106.649 55.6362 106.649 55.6318 106.644H55.6274L55.6165 106.64C55.5879 106.627 55.5638 106.609 55.5484 106.583C55.4935 106.497 55.3991 106.341 55.2564 106.112C55.2147 106.043 55.2279 105.958 55.2872 105.905L55.893 105.359C55.9369 105.319 56.0093 105.319 56.0533 105.359L56.6591 105.905C56.7184 105.958 56.7294 106.045 56.6898 106.112C56.5515 106.333 56.4506 106.497 56.3979 106.583C56.3825 106.607 56.3606 106.627 56.332 106.64C56.332 106.64 56.332 106.64 56.3299 106.64L56.3167 106.644C56.3167 106.644 56.3123 106.644 56.3101 106.644C56.3035 106.644 56.2969 106.646 56.2925 106.649C56.2925 106.649 56.2926 106.649 56.2903 106.649H56.2794H56.2661ZM55.9633 105.819L55.6823 106.072C55.6823 106.072 55.6757 106.08 55.6735 106.087C55.6735 106.091 55.6735 106.096 55.6735 106.1V106.614C55.6999 106.614 55.7218 106.603 55.7416 106.585L55.8293 106.506C55.8667 106.473 55.915 106.453 55.9654 106.453C56.016 106.453 56.0642 106.473 56.1015 106.506L56.1894 106.585C56.2091 106.603 56.2332 106.611 56.2574 106.614V106.1C56.2574 106.1 56.2574 106.087 56.253 106.082C56.253 106.078 56.2486 106.076 56.2464 106.074L55.9654 105.821L55.9633 105.819ZM55.6296 106.609C55.6296 106.609 55.634 106.609 55.6384 106.609V106.098C55.6384 106.098 55.6384 106.08 55.6428 106.072C55.6471 106.063 55.6515 106.054 55.6603 106.047L55.9391 105.797L55.7569 105.633C55.7569 105.633 55.7415 105.62 55.7328 105.615C55.7328 105.615 55.7284 105.615 55.7262 105.613C55.724 105.613 55.7218 105.613 55.7196 105.611C55.7174 105.611 55.7152 105.611 55.713 105.611C55.7109 105.611 55.7086 105.611 55.7064 105.611C55.702 105.611 55.7021 105.611 55.6999 105.611C55.6955 105.611 55.6955 105.611 55.6932 105.611L55.6515 105.62L55.4431 105.806L55.4408 105.809C55.4387 105.811 55.4343 105.815 55.432 105.819L55.4255 105.83C55.4255 105.83 55.4233 105.835 55.421 105.837C55.421 105.839 55.4189 105.844 55.4167 105.846C55.4167 105.848 55.4167 105.85 55.4145 105.852L55.4101 105.863C55.4101 105.863 55.4101 105.868 55.4101 105.87C55.4101 105.879 55.4101 105.885 55.4101 105.894V105.9L55.3991 105.905H55.4101C55.4101 105.905 55.4145 105.925 55.4167 105.933L55.6384 106.616L55.6296 106.609ZM55.9874 105.797L56.2661 106.047C56.2661 106.047 56.2772 106.061 56.2815 106.068C56.2859 106.078 56.2882 106.089 56.2882 106.1V106.611C56.2882 106.611 56.2947 106.611 56.2969 106.611L56.5186 105.929C56.5186 105.929 56.5186 105.925 56.5208 105.921C56.5208 105.916 56.5208 105.914 56.5208 105.912V105.887C56.5208 105.887 56.523 105.872 56.5208 105.865C56.5208 105.863 56.5208 105.861 56.5208 105.859C56.5164 105.841 56.5098 105.826 56.4989 105.812C56.4989 105.811 56.4945 105.809 56.4923 105.806C56.4923 105.806 56.4901 105.804 56.4879 105.802L56.2772 105.613V105.602L56.2728 105.613L56.2376 105.606H56.2311H56.2223C56.2223 105.606 56.2179 105.606 56.2157 105.609C56.2113 105.609 56.2091 105.609 56.2069 105.609C56.2047 105.609 56.2025 105.609 56.2003 105.611C56.1894 105.615 56.1784 105.622 56.1674 105.63L55.9852 105.795L55.9874 105.797ZM56.5559 105.861C56.5559 105.861 56.5559 105.874 56.5559 105.883V105.889C56.5559 105.889 56.5559 105.896 56.5559 105.9V105.912C56.5559 105.912 56.5537 105.918 56.5537 105.921C56.5537 105.927 56.5493 105.933 56.5471 105.94L56.3364 106.588C56.3364 106.588 56.3496 106.572 56.3562 106.564C56.411 106.478 56.512 106.313 56.6481 106.091C56.6811 106.038 56.67 105.968 56.624 105.927L56.5537 105.863L56.5559 105.861ZM55.3684 105.861L55.2982 105.924C55.252 105.966 55.2411 106.037 55.274 106.089C55.4167 106.32 55.5133 106.476 55.566 106.561C55.566 106.561 55.5769 106.579 55.5857 106.585L55.375 105.938C55.375 105.938 55.375 105.935 55.375 105.933L55.3684 105.909C55.3684 105.909 55.3684 105.905 55.3684 105.903V105.889C55.3684 105.889 55.3684 105.887 55.3684 105.885V105.879C55.3684 105.879 55.3684 105.865 55.3684 105.861ZM55.6911 105.571C55.6911 105.571 55.7021 105.571 55.7086 105.571H55.7109C55.7109 105.571 55.7174 105.571 55.7196 105.574H55.7218C55.7218 105.574 55.7284 105.576 55.7306 105.578C55.7372 105.578 55.7394 105.583 55.7438 105.585C55.7482 105.586 55.7503 105.589 55.7547 105.591H55.7569C55.7569 105.591 55.7613 105.595 55.7635 105.597H55.7657C55.7657 105.597 55.7723 105.604 55.7745 105.606L55.961 105.774L56.1477 105.606C56.1477 105.606 56.1521 105.602 56.1542 105.6H56.1565C56.1565 105.6 56.1586 105.595 56.1608 105.593L56.1806 105.583C56.1806 105.583 56.1871 105.58 56.1894 105.578L56.2091 105.571H56.2135H56.2179C56.2179 105.571 56.2223 105.571 56.2267 105.571H56.2288C56.2288 105.571 56.2311 105.571 56.2332 105.571L56.0204 105.378C55.9896 105.35 55.9369 105.35 55.9062 105.378L55.6932 105.571H55.6911Z"
      fill="white" />
    <path
      d="M43.3199 83.0393C42.4089 83.5817 42.1104 84.7583 42.6526 85.6685C43.1948 86.5794 44.3713 86.8778 45.2823 86.3362L43.3221 83.0393H43.3199Z"
      fill="white" stroke="black" stroke-width="0.509306" stroke-miterlimit="10" />
    <path
      d="M44.6083 92.527C46.3504 92.527 47.7626 91.1154 47.7626 89.3734C47.7626 87.6313 46.3504 86.2197 44.6083 86.2197C42.8662 86.2197 41.454 87.6313 41.454 89.3734C41.454 91.1154 42.8662 92.527 44.6083 92.527Z"
      fill="white" stroke="black" stroke-width="0.509306" stroke-miterlimit="10" />
    <path d="M153.49 132.155C153.49 132.155 166.654 131.485 168.621 131.424L153.49 132.155Z" fill="white" />
    <path d="M153.49 132.155C153.49 132.155 166.654 131.485 168.621 131.424" stroke="black" stroke-width="0.509306"
      stroke-miterlimit="10" />
    <path
      d="M178.758 124.783C180.287 124.783 181.528 123.333 181.528 121.546C181.528 119.757 180.287 118.308 178.758 118.308C177.228 118.308 175.987 119.757 175.987 121.546C175.987 123.333 177.228 124.783 178.758 124.783Z"
      fill="white" stroke="black" stroke-width="0.509306" stroke-miterlimit="10" />
    <path
      d="M163.499 132.012C165.03 132.012 166.27 130.779 166.27 129.258C166.27 127.736 165.03 126.503 163.499 126.503C161.97 126.503 160.73 127.736 160.73 129.258C160.73 130.779 161.97 132.012 163.499 132.012Z"
      fill="white" stroke="black" stroke-width="0.509306" stroke-miterlimit="10" />
    <path
      d="M162.178 136.095H180.775C180.962 136.095 181.109 136.257 181.089 136.444L179.335 153.024C179.317 153.183 179.184 153.304 179.021 153.304H164.327C164.169 153.304 164.035 153.186 164.016 153.03L161.867 136.45C161.842 136.262 161.989 136.095 162.178 136.095Z"
      fill="white" stroke="black" stroke-width="0.509306" stroke-miterlimit="10" />
    <path
      d="M175.941 136.048C175.941 136.048 183.793 124.69 175.856 118.569C173.217 116.534 169.538 116.343 166.865 118.33C164.529 120.066 162.593 123.435 164.196 129.975C164.196 129.975 164.996 133.514 166.665 136.048H175.943H175.941Z"
      fill="white" stroke="black" stroke-width="0.509306" stroke-miterlimit="10" />
    <path
      d="M25.1181 116.866C24.8767 116.688 24.7516 116.394 24.7823 116.098C25.0523 113.528 26.6174 101.377 32.386 97.3407C35.5952 95.0951 39.0524 96.1925 40.9863 99.617C42.5711 102.424 42.3187 109.419 42.0311 117.893C42.0223 118.172 41.8775 118.431 41.6426 118.582C40.0446 119.614 33.5033 123.066 25.1204 116.866H25.1181Z"
      fill="white" stroke="black" stroke-width="0.509306" stroke-miterlimit="10" />
    <path
      d="M52.3173 96.4626C52.3722 96.4582 52.4028 96.5216 52.3634 96.5611C51.8432 97.0901 49.8237 99.7349 49.1498 100.9C49.0663 101.046 48.86 101.046 48.7789 100.9C48.2322 99.9043 45.5806 96.1754 45.315 93.6731C45.2843 93.3814 45.6508 93.2232 45.8484 93.4403C46.7879 94.4654 49.6415 96.6536 52.3151 96.4649L52.3173 96.4626Z"
      fill="white" stroke="black" stroke-width="0.509306" stroke-miterlimit="10" />
    <path
      d="M52.7191 96.8401C53.4368 97.6764 55.0283 99.3536 55.6956 100.717C55.8251 100.982 56.2048 100.982 56.3365 100.717C57.0762 99.2372 58.9596 95.9254 58.9947 94.5444C58.9947 94.5444 59.3043 93.2783 58.1716 93.0568C58.1716 93.0568 53.8956 95.8545 52.8112 96.3947C52.6422 96.4805 52.5961 96.6976 52.7191 96.8401Z"
      fill="white" stroke="black" stroke-width="0.509306" stroke-miterlimit="10" />
    <path d="M52.4095 96.1858C52.4095 96.1858 55.7921 113.31 52.4578 128.027L52.4095 96.1858Z" fill="white" />
    <path d="M52.4095 96.1858C52.4095 96.1858 55.7921 113.31 52.4578 128.027" stroke="black" stroke-width="0.509306"
      stroke-miterlimit="10" />
    <path
      d="M51.6016 103.537C52.0671 103.537 52.4445 103.159 52.4445 102.694C52.4445 102.228 52.0671 101.851 51.6016 101.851C51.1361 101.851 50.7587 102.228 50.7587 102.694C50.7587 103.159 51.1361 103.537 51.6016 103.537Z"
      fill="white" stroke="black" stroke-width="0.509306" stroke-miterlimit="10" />
    <path
      d="M51.856 111.923C52.3216 111.923 52.699 111.546 52.699 111.08C52.699 110.615 52.3216 110.237 51.856 110.237C51.3905 110.237 51.0132 110.615 51.0132 111.08C51.0132 111.546 51.3905 111.923 51.856 111.923Z"
      fill="white" stroke="black" stroke-width="0.509306" stroke-miterlimit="10" />
    <path
      d="M51.7533 119.249C52.2188 119.249 52.5962 118.872 52.5962 118.407C52.5962 117.941 52.2188 117.564 51.7533 117.564C51.2878 117.564 50.9105 117.941 50.9105 118.407C50.9105 118.872 51.2878 119.249 51.7533 119.249Z"
      fill="white" stroke="black" stroke-width="0.509306" stroke-miterlimit="10" />
    <path
      d="M51.3144 126.591C51.7799 126.591 52.1572 126.214 52.1572 125.748C52.1572 125.283 51.7799 124.906 51.3144 124.906C50.8488 124.906 50.4714 125.283 50.4714 125.748C50.4714 126.214 50.8488 126.591 51.3144 126.591Z"
      fill="white" stroke="black" stroke-width="0.509306" stroke-miterlimit="10" />
    <path
      d="M43.8354 104.651H49.6985V109.983C49.6985 110.863 48.9829 111.578 48.1027 111.578H45.4313C44.5511 111.578 43.8354 110.863 43.8354 109.983V104.651Z"
      fill="white" stroke="black" stroke-width="0.509306" stroke-miterlimit="10" />
    <path d="M43.7871 106.026L49.6217 105.982" stroke="black" stroke-width="0.509306" stroke-miterlimit="10" />
    <path
      d="M37.6455 129.253C37.6455 129.253 49.8478 130.357 61.6243 128.889L61.1787 127.504C61.1787 127.504 45.0889 128.573 37.8035 127.952L37.6432 129.253H37.6455Z"
      fill="white" stroke="black" stroke-width="0.509306" stroke-miterlimit="10" />
    <path d="M41.8402 129.64C41.8402 129.64 43.0453 134.787 36.6752 136.909" stroke="black" stroke-width="0.509306"
      stroke-miterlimit="10" />
    <path d="M49.4724 85.8094C49.4724 85.8094 51.5534 87.324 54.0755 86.2504" stroke="black" stroke-width="0.509306"
      stroke-miterlimit="10" stroke-linecap="round" />
    <path d="M137.833 98.5717C137.833 98.5717 140.076 100.666 143.518 97.2266" stroke="black" stroke-width="0.509306"
      stroke-miterlimit="10" stroke-linecap="round" />
  </g>
  <defs>
    <clipPath id="clip0_1_1997">
      <rect width="194" height="164" fill="white" />
    </clipPath>
  </defs>
</svg>