<svg xmlns="http://www.w3.org/2000/svg" width="178" height="150" viewBox="0 0 178 150" fill="none">
  <g clip-path="url(#clip0_1_2076)">
    <path d="M0 2.66748H178V147.332H0V2.66748Z" fill="white" />
    <path d="M6.43701 48.7373H40.8317V3.93726H6.43701V48.7373ZM35.2254 30.6344H36.6954V41.8255H35.2254V30.6344Z"
      fill="#618365" />
    <path
      d="M162.283 83.9768L163.145 79.7931L163.981 79.8449L164.013 79.8873L162.893 83.7188C162.663 83.742 162.454 83.8369 162.281 83.9768H162.283Z"
      stroke="black" stroke-width="0.209869" stroke-miterlimit="10" />
    <path
      d="M163.687 78.3129L164.924 79.9329C164.934 79.9527 164.946 79.9718 164.959 79.9882C164.963 80.0018 164.966 80.0134 164.97 80.0271L163.438 85.3189C163.435 85.3305 163.422 85.351 163.412 85.3694C163.412 85.3694 163.412 85.3694 163.41 85.3708L163.407 85.3763C163.407 85.3763 163.398 85.3858 163.394 85.3913C163.385 85.3981 163.375 85.4049 163.369 85.4097C163.364 85.4111 163.359 85.4165 163.354 85.4179C163.346 85.4213 163.337 85.4233 163.331 85.4247C163.307 85.4349 163.283 85.4247 163.26 85.4267L162.568 85.3824C162.528 85.379 162.504 85.3592 162.479 85.3285C162.467 85.3155 162.448 85.2903 162.452 85.2493C162.455 85.1859 162.516 85.1354 162.584 85.1388L162.806 85.1517C163.05 85.1674 163.271 85.0139 163.339 84.7799L164.643 80.3171C164.689 80.1601 164.658 79.9916 164.56 79.8606L164.228 79.4191C164.137 79.2976 163.996 79.2218 163.844 79.2123L162.932 79.155L163.109 78.2303L163.597 78.2604C163.628 78.2624 163.655 78.272 163.689 78.3095L163.687 78.3129Z"
      stroke="black" stroke-width="0.209869" stroke-miterlimit="10" />
    <path
      d="M150.359 79.6211C150.202 79.3768 150.078 79.1919 150.005 79.1011C149.82 78.8684 149.599 78.7067 149.391 78.5941C149.423 78.5818 149.458 78.5757 149.5 78.5702C149.58 78.5702 149.654 78.5532 149.723 78.5245C149.747 78.515 149.764 78.4979 149.786 78.4863C149.828 78.4611 149.872 78.4392 149.908 78.4037C149.928 78.3833 149.942 78.358 149.958 78.3348C149.986 78.2993 150.014 78.2652 150.033 78.225C150.046 78.1963 150.048 78.1663 150.056 78.1356C150.066 78.1008 150.081 78.0666 150.085 78.0298L152.875 77.4907C153.581 77.3242 155.049 77.0362 156.93 76.9926C157.119 76.9871 157.303 76.9168 157.41 76.7585C157.516 76.6016 157.546 76.4262 157.481 76.2495V75.1617H157.881L157.895 76.199C157.827 76.3757 157.849 76.5743 157.955 76.7326C158.062 76.8895 158.238 76.9871 158.428 76.9926C161.059 77.056 162.472 77.4286 162.872 77.6422L161.723 85.7851H153.716L153.287 82.9443C153.258 82.7485 153.051 82.5485 152.871 82.466C151.924 82.0292 150.869 80.4024 150.364 79.6211H150.359Z"
      stroke="black" stroke-width="0.209869" stroke-miterlimit="10" />
    <path
      d="M152.133 94.2043L153.334 86.2232C153.35 86.1222 153.473 86.0157 153.576 86.0157H161.695C161.798 86.0157 161.916 86.1202 161.931 86.2198L163.055 94.2378C163.055 94.2378 163.04 94.2466 163.014 94.2466H152.172L152.133 94.2023V94.2043Z"
      stroke="black" stroke-width="0.209869" stroke-miterlimit="10" />
    <path
      d="M20.1569 93.384H22.5629C22.84 93.384 23.0665 93.1588 23.0665 92.8824V91.88C23.0665 91.7572 23.0107 91.6262 22.9279 91.5347C22.8333 91.4051 22.6829 91.328 22.5207 91.328H21.9496C21.7823 91.328 21.6269 91.4085 21.5339 91.547C21.4815 91.6241 21.3801 91.6733 21.272 91.6733C21.0625 91.6733 20.9003 91.5047 20.9003 91.2877C20.9003 91.07 21.0676 90.9151 21.272 90.9151C21.3852 90.9151 21.4917 90.9677 21.5559 91.055C21.6505 91.1847 21.8009 91.2604 21.9614 91.2604H22.5173C22.6728 91.2604 22.8215 91.1881 22.9161 91.0653C23.0631 90.8749 23.3638 90.8728 23.5125 91.0653C23.6071 91.1881 23.7541 91.2604 23.9113 91.2604H24.4688C24.6294 91.2604 24.7797 91.1847 24.8744 91.055C24.9403 90.9677 25.045 90.9138 25.1583 90.9138C25.3644 90.9138 25.5316 91.0803 25.5316 91.2857C25.5316 91.5013 25.3677 91.6712 25.1583 91.6712C25.045 91.6712 24.9386 91.6194 24.8727 91.53C24.7781 91.4017 24.6277 91.328 24.4688 91.328H23.9096C23.7525 91.328 23.5869 91.4221 23.4922 91.547C23.4111 91.6378 23.3672 91.7558 23.3672 91.8766V92.8804C23.3672 93.1568 23.5919 93.3826 23.8707 93.3826H28.2486C28.5207 93.3826 28.7437 93.165 28.7504 92.8954C28.8552 92.8033 28.9228 92.6682 28.9228 92.5187V81.2854C28.9228 79.5589 27.512 78.1546 25.78 78.1546C24.0482 78.1546 22.6389 79.5589 22.6389 81.2854V81.9589H22.1338V81.2854C22.1338 79.2812 23.7694 77.651 25.7817 77.651C27.7941 77.651 29.428 79.2812 29.428 81.2854V92.5187C29.428 92.7003 29.526 92.8606 29.6713 92.948C29.7051 93.1923 29.9146 93.3826 30.1698 93.3826H34.5037C34.7809 93.3826 35.0073 93.1568 35.0073 92.8804V91.8766C35.0073 91.7558 34.9431 91.6125 34.862 91.5197C34.7673 91.3969 34.6203 91.3246 34.4632 91.3246H33.9039C33.7451 91.3246 33.5947 91.3983 33.5001 91.5266C33.4292 91.6207 33.3328 91.6699 33.2128 91.6699C33.0084 91.6699 32.8411 91.4965 32.8411 91.2843C32.8411 91.0851 33.0152 90.9117 33.2128 90.9117C33.3345 90.9117 33.4275 90.9588 33.4984 91.053C33.5931 91.1813 33.7434 91.257 33.9039 91.257H34.4615C34.617 91.257 34.7657 91.1847 34.8603 91.0619C35.009 90.8694 35.3097 90.8694 35.4567 91.0619C35.5513 91.1847 35.6983 91.257 35.8555 91.257H36.4097C36.5685 91.257 36.7189 91.1826 36.8135 91.053C36.8811 90.9622 36.9859 90.9104 37.1008 90.9104C37.3086 90.9104 37.486 91.0803 37.486 91.2823C37.486 91.4945 37.3137 91.6678 37.1008 91.6678C36.9876 91.6678 36.8794 91.6139 36.8118 91.5252C36.7172 91.3983 36.5685 91.3246 36.4097 91.3246H35.8538C35.7068 91.3246 35.526 91.4372 35.4314 91.5484C35.3537 91.6392 35.3114 91.7538 35.3114 91.8732V92.879C35.3114 93.1554 35.5361 93.3806 35.8149 93.3806H38.2176V94.28H20.1534V93.3806L20.1569 93.384Z"
      fill="white" stroke="black" stroke-width="0.209869" stroke-miterlimit="10" />
    <path
      d="M10.4447 87.2235C10.4447 84.9771 12.1986 83.8907 12.55 83.6969C12.7106 83.6075 12.8085 83.441 12.8085 83.2588V82.2516H13.1448C13.2715 82.2516 13.3881 82.2046 13.476 82.1274C13.5655 82.2046 13.6804 82.2516 13.8088 82.2516H14.1401V83.2588C14.1401 83.441 14.2397 83.6096 14.3986 83.6969C14.75 83.8921 16.5038 84.9771 16.5038 87.2235V94.0951C16.4599 94.179 16.394 94.2718 16.3501 94.3018L10.6086 94.3086C10.5664 94.2889 10.4954 94.1906 10.4447 94.0951V87.2255V87.2235Z"
      stroke="black" stroke-width="0.209869" stroke-miterlimit="10" />
    <path d="M6.1615 94.3831V134.908H35.2203V94.3831H6.1615ZM32.9105 121.899H31.7784V107.391H32.9105V121.899Z"
      fill="#618365" />
    <path d="M36.1833 94.3831V134.908H65.2421V94.3831H36.1833ZM39.3903 121.899H38.2582V107.391H39.3903V121.899Z"
      fill="#618365" />
    <path d="M112.423 94.3912V134.917H141.481V94.3912H112.423ZM134.229 99.9438H119.674V98.5244H134.229V99.9438Z"
      fill="#618365" />
    <path
      d="M142.488 94.3912V134.917H171.547V94.3912H142.488ZM164.495 121.259H149.94V120.13H164.495V121.259ZM164.457 114.24H149.903V113.112H164.457V114.24Z"
      fill="#618365" />
    <path d="M142.177 116.977H171.973" stroke="white" stroke-width="1.25921" stroke-miterlimit="10" />
    <path opacity="0.2"
      d="M73.5099 103.944C74.8607 103.944 75.9561 102.852 75.9561 101.505C75.9561 100.158 74.8607 99.0663 73.5099 99.0663C72.1585 99.0663 71.0631 100.158 71.0631 101.505C71.0631 102.852 72.1585 103.944 73.5099 103.944Z"
      fill="#F90011" />
    <path
      d="M79.6311 103.944C80.9825 103.944 82.0779 102.852 82.0779 101.505C82.0779 100.158 80.9825 99.0663 79.6311 99.0663C78.2803 99.0663 77.1849 100.158 77.1849 101.505C77.1849 102.852 78.2803 103.944 79.6311 103.944Z"
      fill="#618365" />
    <path
      d="M85.9267 103.944C87.2782 103.944 88.3735 102.852 88.3735 101.505C88.3735 100.158 87.2782 99.0663 85.9267 99.0663C84.576 99.0663 83.4806 100.158 83.4806 101.505C83.4806 102.852 84.576 103.944 85.9267 103.944Z"
      fill="#618365" />
    <path
      d="M92.2245 103.944C93.5753 103.944 94.6707 102.852 94.6707 101.505C94.6707 100.158 93.5753 99.0663 92.2245 99.0663C90.8731 99.0663 89.7777 100.158 89.7777 101.505C89.7777 102.852 90.8731 103.944 92.2245 103.944Z"
      fill="#618365" />
    <path
      d="M98.5216 103.944C99.8731 103.944 100.968 102.852 100.968 101.505C100.968 100.158 99.8731 99.0663 98.5216 99.0663C97.1702 99.0663 96.0748 100.158 96.0748 101.505C96.0748 102.852 97.1702 103.944 98.5216 103.944Z"
      fill="#618365" />
    <path
      d="M104.507 103.944C105.858 103.944 106.953 102.852 106.953 101.505C106.953 100.158 105.858 99.0663 104.507 99.0663C103.155 99.0663 102.06 100.158 102.06 101.505C102.06 102.852 103.155 103.944 104.507 103.944Z"
      fill="#618365" />
    <path
      d="M66.4993 94.3237V134.984H111.318V94.3237H66.4993ZM69.1961 97.0273H108.677V105.715H69.1961V97.0273ZM108.697 132.306H69.1756V109.419H108.697V132.306Z"
      fill="#618365" />
    <path d="M97.7563 111.95H80.1165V113.695H97.7563V111.95Z" fill="#618365" />
    <path
      d="M99.1014 92.7187L99.098 92.7085H103.513L103.932 94.2937H102.935L102.913 93.4905C102.907 93.2762 102.744 93.1009 102.531 93.079L99.1014 92.7208V92.7187Z"
      fill="white" stroke="black" stroke-width="0.209869" stroke-miterlimit="10" />
    <path
      d="M91.5639 92.7072H95.9769L92.5456 93.0763C92.3327 93.0982 92.1684 93.2749 92.1636 93.4871L92.1417 94.2903H91.1449L91.5639 92.7058V92.7072Z"
      fill="white" stroke="black" stroke-width="0.209869" stroke-miterlimit="10" />
    <path
      d="M82.4865 93.0777L79.7481 92.7276L79.7446 92.7085H83.193L83.5347 94.2937H82.8767L82.8583 93.4919C82.8535 93.2817 82.6946 93.1063 82.4865 93.079V93.0777Z"
      fill="white" stroke="black" stroke-width="0.209869" stroke-miterlimit="10" />
    <path
      d="M76.0306 92.7072L73.2881 93.0777C73.0786 93.1043 72.9218 93.2797 72.9163 93.4905L72.8978 94.2916H72.2406L72.5822 92.7072H76.0306Z"
      fill="white" stroke="black" stroke-width="0.209869" stroke-miterlimit="10" />
    <path
      d="M71.7135 91.8665V85.8629C71.7135 85.6554 71.5465 85.4889 71.3383 85.4889H69.5679C69.468 85.4889 69.3885 85.4077 69.3885 85.3102C69.3885 85.2126 69.4693 85.1321 69.5679 85.1321H70.8858C71.0932 85.1321 71.261 84.9649 71.261 84.7581V84.3842H71.3404C71.5465 84.3842 71.7149 84.217 71.7149 84.0102V83.6281C71.7149 83.2166 72.0517 82.8816 72.4638 82.8816H77.0357C77.2418 82.8816 77.4095 82.7151 77.4095 82.5076V81.6642H78.3153V82.5076C78.3153 82.713 78.4823 82.8816 78.6884 82.8816H83.2609C83.6731 82.8816 84.0092 83.2166 84.0092 83.6281V84.0102C84.0092 84.217 84.1762 84.3842 84.3844 84.3842H84.4145V84.7581C84.4145 84.9635 84.5822 85.1321 84.7883 85.1321H85.9658C86.0637 85.1321 86.1452 85.2126 86.1452 85.3102C86.1452 85.4077 86.0637 85.4889 85.9658 85.4889H84.3823C84.1762 85.4889 84.0078 85.6554 84.0078 85.8629V91.8665C84.0078 92.2773 83.671 92.613 83.2589 92.613H72.4618C72.0497 92.613 71.7135 92.2773 71.7135 91.8665Z"
      stroke="black" stroke-width="0.209869" stroke-miterlimit="10" />
    <path d="M70.019 85.147H85.7714" stroke="black" stroke-width="0.209869" stroke-miterlimit="10" />
    <path
      d="M130.26 84.6871H144.867V93.0606C144.867 93.7812 144.279 94.3674 143.556 94.3674H131.571C130.848 94.3674 130.26 93.7812 130.26 93.0606V84.6871Z"
      stroke="black" stroke-width="0.209869" stroke-miterlimit="10" />
    <path d="M146.199 83.5264H128.927V84.6632H146.199V83.5264Z" stroke="black" stroke-width="0.209869"
      stroke-miterlimit="10" />
    <path
      d="M136.536 83.4629C136.536 82.8965 136.996 82.4386 137.563 82.4386C138.131 82.4386 138.59 82.8965 138.59 83.4629"
      stroke="black" stroke-width="0.209869" stroke-miterlimit="10" />
    <path d="M67.8409 36.4348V43.3549H115.323V36.1787L97.8391 23.0222H85.5824L67.8409 36.4348Z" stroke="black"
      stroke-width="0.209869" stroke-miterlimit="10" />
    <path d="M67.8409 36.4346H115.323" stroke="black" stroke-width="0.209869" stroke-miterlimit="10" />
    <path d="M120.186 43.3481H62.8903V47.9122H120.186V43.3481Z" stroke="black" stroke-width="0.209869"
      stroke-miterlimit="10" />
    <path d="M97.7802 2.66748H85.6619V22.9766H97.7802V2.66748Z" stroke="black" stroke-width="0.209869"
      stroke-miterlimit="10" />
    <path
      d="M133.532 57.5891C133.532 57.5891 128.642 54.7917 125.693 55.5395L119.164 55.0966C119.164 55.0966 113.795 57.4678 114.513 59.824L115.702 78.6746L133.902 78.2856L133.532 57.5858V57.5891Z"
      fill="white" stroke="black" stroke-width="0.507692" stroke-miterlimit="10" />
    <path
      d="M128.263 137.962L128.81 147.064L124.096 147.167C123.934 147.171 123.781 147.09 123.692 146.954L123.322 146.383C123.277 146.312 123.177 146.301 123.118 146.361L122.28 147.196C122.19 147.285 122.068 147.334 121.942 147.333L109.714 147.161C109.471 147.157 109.276 146.96 109.276 146.72V144.887C109.276 144.727 109.363 144.581 109.501 144.501L121.21 137.906C121.21 137.906 125.311 139.432 128.265 137.96L128.263 137.962Z"
      fill="white" stroke="black" stroke-width="0.507692" stroke-miterlimit="10" />
    <path d="M109.376 145.754L128.576 145.5" stroke="black" stroke-width="0.507692" stroke-miterlimit="10" />
    <path d="M113.33 141.24L116.265 142.385" stroke="black" stroke-width="0.507692" stroke-miterlimit="10" />
    <path d="M114.273 140.262L117.208 141.407" stroke="black" stroke-width="0.507692" stroke-miterlimit="10" />
    <path d="M115.742 139.362L118.676 140.507" stroke="black" stroke-width="0.507692" stroke-miterlimit="10" />
    <path d="M124.89 145.554C124.89 145.554 124.792 142.752 128.449 142.314L124.89 145.554Z" fill="white" />
    <path d="M124.89 145.554C124.89 145.554 124.792 142.752 128.449 142.314" stroke="black" stroke-width="0.507692"
      stroke-miterlimit="10" />
    <path d="M111.191 143.516C111.191 143.516 112.485 144.123 112.323 145.697L111.191 143.516Z" fill="white" />
    <path d="M111.191 143.516C111.191 143.516 112.485 144.123 112.323 145.697" stroke="black" stroke-width="0.507692"
      stroke-miterlimit="10" />
    <path
      d="M137.091 138.188L142.1 144.352C142.135 144.396 142.157 144.447 142.162 144.503L142.397 146.77C142.414 146.938 142.282 147.087 142.112 147.087H127.026C126.873 147.087 126.746 146.965 126.739 146.812L126.658 144.843C126.657 144.791 126.668 144.739 126.694 144.694L126.837 144.434L130.098 138.197L137.094 138.189L137.091 138.188Z"
      fill="white" stroke="black" stroke-width="0.507692" stroke-miterlimit="10" />
    <path
      d="M126.652 144.761L130.12 142.346C131.259 141.553 132.619 141.133 134.008 141.147L134.387 141.15C135.457 141.16 136.51 141.428 137.454 141.928L142.152 144.415"
      fill="white" />
    <path
      d="M126.652 144.761L130.12 142.346C131.259 141.553 132.619 141.133 134.008 141.147L134.387 141.15C135.457 141.16 136.51 141.428 137.454 141.928L142.152 144.415"
      stroke="black" stroke-width="0.507692" stroke-miterlimit="10" />
    <path
      d="M128.776 48.0614C129.375 44.9974 127.835 42.1209 125.338 41.6367C122.841 41.1524 120.332 43.2438 119.734 46.3079C119.135 49.3719 120.675 52.2484 123.172 52.7326C125.669 53.2169 128.178 51.1255 128.776 48.0614Z"
      fill="white" stroke="black" stroke-width="0.507692" stroke-miterlimit="10" />
    <path
      d="M126.29 52.2942C126.29 52.2942 126.332 54.871 127.518 55.2937C127.518 55.2937 123.807 59.819 119.188 55.2011C119.148 55.1606 119.163 55.0899 119.218 55.0714C119.68 54.9232 121.342 54.2344 121.415 51.9557C121.415 51.9557 123.025 53.5186 126.29 52.2942Z"
      fill="white" stroke="black" stroke-width="0.507692" stroke-miterlimit="10" />
    <path
      d="M114.849 58.1281C114.507 58.9499 111.85 64.9421 111.782 68.1657C111.777 68.3981 111.917 68.6069 112.135 68.6877C112.759 68.9185 114.14 69.3294 115.621 69.1222C115.627 69.1222 115.631 69.1172 115.631 69.1104C115.587 68.7837 114.457 61.2472 114.872 58.1365C114.874 58.123 114.855 58.118 114.85 58.1298L114.849 58.1281Z"
      fill="white" stroke="black" stroke-width="0.507692" stroke-miterlimit="10" />
    <path
      d="M112.193 68.7451C112.193 68.7451 111.292 72.2535 111.334 73.1508C111.334 73.1508 104.939 65.365 103.308 64.6374C103.308 64.6374 99.9628 62.2459 97.4523 62.8051C97.2763 62.8438 97.1935 63.0442 97.2852 63.2008C97.4776 63.5309 98.0164 64.0581 99.5219 64.5128C99.5493 64.5212 99.5506 64.5599 99.5239 64.5683C98.905 64.7536 95.2861 65.7877 93.159 65.2875C93.005 65.2522 92.8647 65.3785 92.8934 65.5334C92.9913 66.069 93.2166 67.1501 93.5691 68.1051C93.9546 69.1442 94.9904 69.7976 96.0974 69.7016C97.9233 69.5433 100.99 69.2402 102.021 68.9185C102.021 68.9185 104.733 78.427 109.445 81.8007C111.287 83.1177 113.828 82.9259 115.399 81.2971C116.243 80.4243 116.821 79.9432 117.387 77.8442C117.387 77.8442 115.766 70.9078 115.633 69.1223C115.633 69.1223 113.869 69.2621 112.195 68.7484L112.193 68.7451Z"
      fill="white" stroke="black" stroke-width="0.507692" stroke-miterlimit="10" />
    <path
      d="M126.529 50.0358C128.009 50.0358 129.207 48.8406 129.207 47.3664C129.207 45.8921 128.009 44.697 126.529 44.697C125.051 44.697 123.851 45.8921 123.851 47.3664C123.851 48.8406 125.051 50.0358 126.529 50.0358Z"
      fill="white" stroke="black" stroke-width="0.507692" stroke-miterlimit="10" />
    <path
      d="M121.232 48.3937C122.711 48.3937 123.911 47.1986 123.911 45.7243C123.911 44.2501 122.711 43.0549 121.232 43.0549C119.754 43.0549 118.554 44.2501 118.554 45.7243C118.554 47.1986 119.754 48.3937 121.232 48.3937Z"
      fill="white" stroke="black" stroke-width="0.507692" stroke-miterlimit="10" />
    <path
      d="M127.067 47.7628C127.253 47.4422 127.198 47.0639 126.944 46.9179C126.691 46.7719 126.334 46.9134 126.149 47.234C125.963 47.5546 126.018 47.9329 126.272 48.0789C126.526 48.2249 126.882 48.0834 127.067 47.7628Z"
      fill="black" stroke="black" stroke-width="0.507692" stroke-miterlimit="10" />
    <path
      d="M121.753 45.7872C121.846 45.429 121.692 45.0789 121.409 45.0053C121.125 44.9316 120.82 45.1624 120.726 45.5206C120.632 45.8789 120.786 46.2289 121.069 46.3025C121.354 46.3762 121.659 46.1455 121.753 45.7872Z"
      fill="black" stroke="black" stroke-width="0.507692" stroke-miterlimit="10" />
    <path
      d="M125.347 42.4404C124.488 43.3498 121.741 45.6722 118.6 42.2669C118.492 42.149 118.586 41.957 118.745 41.9789C119.239 42.0462 119.98 41.7885 120.14 41.3069C120.182 41.184 120.246 41.0712 120.327 40.9701C120.832 40.3486 122.415 38.4557 126.482 39.483C126.597 39.5116 126.716 39.5301 126.833 39.5318C127.323 39.5419 128.797 39.6463 129.338 40.5457C129.488 40.7949 129.685 41.0088 129.936 41.1554C130.973 41.7565 133.526 44.2744 131.49 49.3302C131.472 49.3773 131.529 49.4178 131.566 49.3807C132.131 48.8148 133.994 47.2924 136.196 49.1921C136.196 49.1921 139.443 52.461 135.622 55.095C134.405 55.9337 131.727 56.2234 130.33 55.7434C128.929 55.2618 127.508 54.0239 127.673 50.947L128.454 49.507C128.454 49.507 129.04 48.1833 128.93 46.8966C128.907 46.6255 128.699 46.4098 128.428 46.3745C127.58 46.265 125.739 45.6671 125.627 42.5465C125.622 42.4016 125.445 42.3308 125.345 42.4369L125.347 42.4404Z"
      fill="black" />
    <path d="M99.1166 65.5924C99.1166 65.5924 95.4094 67.1065 93.1317 66.4833" stroke="black" stroke-width="0.507692"
      stroke-miterlimit="10" stroke-linecap="round" />
    <path d="M99.4793 66.5725C99.4793 66.5725 95.7728 68.0866 93.4951 67.4634" stroke="black" stroke-width="0.507692"
      stroke-miterlimit="10" stroke-linecap="round" />
    <path d="M98.5285 68.0444C98.5285 68.0444 96.0817 69.028 93.8047 68.4048" stroke="black" stroke-width="0.507692"
      stroke-miterlimit="10" stroke-linecap="round" />
    <path
      d="M123.911 48.6129C123.911 48.6129 122.726 47.4424 122.053 48.111C122.053 48.111 121.533 48.5405 122.437 49.6941"
      fill="white" />
    <path
      d="M123.911 48.6129C123.911 48.6129 122.726 47.4424 122.053 48.111C122.053 48.111 121.533 48.5405 122.437 49.6941"
      stroke="black" stroke-width="0.507692" stroke-miterlimit="10" />
    <path
      d="M129.04 48.5269C129.635 48.8805 129.831 49.6468 129.477 50.2396C129.121 50.8324 128.353 51.0278 127.758 50.6741L129.04 48.5251V48.5269Z"
      fill="white" stroke="black" stroke-width="0.507692" stroke-miterlimit="10" />
    <path
      d="M128.336 54.7211C129.516 54.7211 130.471 53.7681 130.471 52.5924C130.471 51.4167 129.516 50.4636 128.336 50.4636C127.156 50.4636 126.2 51.4167 126.2 52.5924C126.2 53.7681 127.156 54.7211 128.336 54.7211Z"
      fill="white" stroke="black" stroke-width="0.507692" stroke-miterlimit="10" />
    <path
      d="M121.915 57.1411C121.873 57.131 121.841 57.1748 121.864 57.2102C122.194 57.6885 123.583 59.7381 123.943 60.73C123.987 60.853 124.147 60.8833 124.23 60.7806C124.789 60.0867 127.354 57.5773 127.905 55.6844C127.969 55.4621 127.707 55.2919 127.525 55.4318C126.657 56.0919 123.956 57.6548 121.915 57.1411Z"
      fill="white" stroke="black" stroke-width="0.507692" stroke-miterlimit="10" />
    <path
      d="M121.538 57.2728C121.065 57.8201 119.849 59.2718 119.409 60.1644C119.323 60.3379 119.074 60.3379 118.988 60.1644C118.502 59.1943 117.505 57.0992 117.481 56.1949C117.481 56.1949 118.387 55.2737 119.132 55.1288C119.132 55.1288 120.764 56.6277 121.477 56.9814C121.589 57.0369 121.619 57.1784 121.538 57.2728Z"
      fill="white" stroke="black" stroke-width="0.507692" stroke-miterlimit="10" />
    <path d="M121.748 57.2323C121.748 57.2323 121.016 71.554 122.02 78.0264L121.748 57.2323Z" fill="white" />
    <path d="M121.748 57.2323C121.748 57.2323 121.016 71.554 122.02 78.0264" stroke="black" stroke-width="0.507692"
      stroke-miterlimit="10" />
    <path
      d="M122.865 62.0455C123.171 62.0455 123.419 61.7982 123.419 61.4931C123.419 61.188 123.171 60.9407 122.865 60.9407C122.558 60.9407 122.311 61.188 122.311 61.4931C122.311 61.7982 122.558 62.0455 122.865 62.0455Z"
      fill="white" stroke="black" stroke-width="0.507692" stroke-miterlimit="10" />
    <path
      d="M122.697 67.5425C123.004 67.5425 123.251 67.2952 123.251 66.9901C123.251 66.685 123.004 66.4377 122.697 66.4377C122.391 66.4377 122.143 66.685 122.143 66.9901C122.143 67.2952 122.391 67.5425 122.697 67.5425Z"
      fill="white" stroke="black" stroke-width="0.507692" stroke-miterlimit="10" />
    <path
      d="M122.765 72.3442C123.071 72.3442 123.319 72.0965 123.319 71.7914C123.319 71.4864 123.071 71.2394 122.765 71.2394C122.459 71.2394 122.211 71.4864 122.211 71.7914C122.211 72.0965 122.459 72.3442 122.765 72.3442Z"
      fill="white" stroke="black" stroke-width="0.507692" stroke-miterlimit="10" />
    <path
      d="M122.765 76.6759C123.071 76.6759 123.319 76.4282 123.319 76.1232C123.319 75.8182 123.071 75.5712 122.765 75.5712C122.459 75.5712 122.211 75.8182 122.211 76.1232C122.211 76.4282 122.459 76.6759 122.765 76.6759Z"
      fill="white" stroke="black" stroke-width="0.507692" stroke-miterlimit="10" />
    <path
      d="M124.519 62.6937H128.606V66.2844C128.606 66.9597 128.055 67.5088 127.378 67.5088H125.747C125.07 67.5088 124.519 66.9597 124.519 66.2844V62.6937Z"
      fill="white" stroke="black" stroke-width="0.507692" stroke-miterlimit="10" />
    <path d="M124.485 63.6487L128.554 63.6184" stroke="black" stroke-width="0.507692" stroke-miterlimit="10" />
    <path d="M111.85 67.6554C111.85 67.6554 114.687 67.9619 115.405 67.9282L111.85 67.6554Z" fill="white" />
    <path d="M111.85 67.6554C111.85 67.6554 114.687 67.9619 115.405 67.9282" stroke="black" stroke-width="0.507692"
      stroke-miterlimit="10" />
    <path
      d="M117.429 77.9608L116.304 138.369C116.299 138.651 116.528 138.88 116.809 138.874L131.849 138.618L126.43 78.1423L117.429 77.9622V77.9608Z"
      fill="white" stroke="black" stroke-width="0.507692" stroke-miterlimit="10" />
    <path
      d="M121.532 78.5034C121.702 83.914 123.247 131.82 124.372 138.403C124.41 138.634 124.614 138.799 124.847 138.794L142.323 138.438C142.603 138.434 142.816 138.188 142.782 137.912C142.112 132.489 136.338 86.0703 134.113 78.6344C134.053 78.4392 133.876 78.3041 133.672 78.2993L122.016 78.0196C121.745 78.0127 121.525 78.2352 121.533 78.5047L121.532 78.5034Z"
      fill="white" stroke="black" stroke-width="0.507692" stroke-miterlimit="10" />
    <path
      d="M116.507 63.4398C116.485 63.4398 116.464 63.4314 116.449 63.418L116.396 63.3709C116.378 63.354 116.355 63.3455 116.329 63.3439C116.304 63.3439 116.28 63.354 116.261 63.3709L116.209 63.418C116.192 63.4332 116.172 63.4398 116.15 63.4398H116.143C116.14 63.4398 116.136 63.4398 116.131 63.4382C116.131 63.4382 116.129 63.4382 116.128 63.4382L116.121 63.4348C116.104 63.4281 116.091 63.4163 116.081 63.4012C116.049 63.3506 115.991 63.258 115.907 63.1216C115.881 63.0812 115.89 63.0306 115.923 62.9986L116.285 62.6753C116.31 62.6517 116.355 62.6517 116.38 62.6753L116.741 62.9986C116.777 63.0306 116.783 63.0812 116.758 63.1216C116.677 63.2529 116.616 63.3506 116.584 63.4012C116.576 63.4163 116.562 63.4281 116.545 63.4348L116.537 63.4382C116.537 63.4382 116.535 63.4382 116.533 63.4382C116.53 63.4382 116.526 63.4382 116.523 63.4398H116.517H116.507ZM116.326 62.9481L116.158 63.098C116.158 63.098 116.153 63.103 116.153 63.1064C116.153 63.1081 116.153 63.1115 116.153 63.1131V63.418C116.168 63.418 116.182 63.4113 116.194 63.4012L116.246 63.354C116.268 63.3338 116.297 63.322 116.327 63.322C116.358 63.322 116.386 63.3338 116.409 63.354L116.461 63.4012C116.472 63.4113 116.486 63.418 116.501 63.418V63.1131C116.501 63.1131 116.501 63.1047 116.498 63.1014C116.498 63.0997 116.494 63.098 116.494 63.0963L116.327 62.9464L116.326 62.9481ZM116.128 63.4163C116.128 63.4163 116.131 63.4163 116.133 63.4163V63.1131C116.133 63.1131 116.133 63.1014 116.136 63.0963C116.138 63.0913 116.142 63.0862 116.146 63.0812L116.312 62.933L116.204 62.8353C116.204 62.8353 116.194 62.8285 116.189 62.8252C116.189 62.8252 116.185 62.8252 116.185 62.8234H116.182H116.179C116.177 62.8234 116.175 62.8234 116.174 62.8234C116.172 62.8234 116.17 62.8234 116.168 62.8234C116.167 62.8234 116.165 62.8234 116.164 62.8234L116.138 62.8285L116.015 62.9397C116.015 62.9397 116.015 62.9397 116.013 62.9397C116.013 62.9397 116.009 62.9431 116.008 62.9464L116.003 62.9532C116.003 62.9532 116.003 62.9565 116.001 62.9565C116.001 62.9582 115.999 62.9599 115.999 62.9616C115.999 62.9616 115.999 62.965 115.998 62.9666V62.9734L115.994 62.9767C115.994 62.9818 115.994 62.9868 115.994 62.9902V62.9936H115.988L115.994 62.9953C115.994 63.002 115.996 63.0071 115.998 63.0121L116.129 63.418L116.128 63.4163ZM116.341 62.9346L116.507 63.0828C116.507 63.0828 116.513 63.0896 116.515 63.0946C116.518 63.1014 116.52 63.1081 116.52 63.1131V63.4163C116.52 63.4163 116.523 63.4163 116.525 63.4163L116.656 63.0121C116.656 63.0121 116.656 63.0087 116.656 63.0071C116.656 63.0054 116.656 63.0037 116.656 63.002V62.9885C116.656 62.9885 116.656 62.9784 116.656 62.9751V62.9717C116.655 62.9616 116.65 62.9532 116.643 62.9447C116.643 62.9447 116.641 62.9414 116.64 62.9414C116.64 62.9414 116.64 62.9414 116.638 62.9397L116.513 62.8285V62.8218L116.511 62.8285L116.491 62.8252C116.491 62.8252 116.488 62.8252 116.486 62.8252H116.481C116.481 62.8252 116.478 62.8252 116.476 62.8252C116.474 62.8252 116.472 62.8252 116.471 62.8252C116.469 62.8252 116.467 62.8252 116.465 62.8252C116.459 62.8285 116.452 62.8319 116.447 62.837L116.339 62.9346H116.341ZM116.678 62.9734C116.678 62.9734 116.678 62.9818 116.678 62.9852V62.9885C116.678 62.9885 116.678 62.9919 116.678 62.9953V63.002C116.678 63.002 116.678 63.0054 116.677 63.0071C116.677 63.0104 116.676 63.0155 116.674 63.0188L116.548 63.4028C116.548 63.4028 116.557 63.3944 116.561 63.3893C116.593 63.3389 116.653 63.2411 116.734 63.1098C116.755 63.0778 116.748 63.0374 116.721 63.0121L116.678 62.9751V62.9734ZM115.973 62.9734L115.93 63.0104C115.903 63.0357 115.897 63.0761 115.916 63.1081C116.001 63.2445 116.059 63.3371 116.091 63.3876C116.091 63.3876 116.097 63.3977 116.103 63.4012L115.977 63.0172C115.977 63.0172 115.977 63.0155 115.977 63.0138L115.974 63.0003C115.974 63.0003 115.974 62.997 115.974 62.9953V62.9885V62.9868V62.9835C115.974 62.9835 115.974 62.9767 115.974 62.9734H115.973ZM116.164 62.7999C116.164 62.7999 116.17 62.7999 116.174 62.7999H116.175C116.175 62.7999 116.179 62.7999 116.18 62.7999H116.182C116.182 62.7999 116.185 62.7999 116.187 62.8016C116.19 62.8016 116.192 62.8032 116.196 62.805C116.199 62.805 116.2 62.8067 116.202 62.8083H116.204C116.204 62.8083 116.207 62.8117 116.209 62.8117C116.209 62.8117 116.212 62.8151 116.214 62.8168L116.324 62.9161L116.434 62.8168L116.437 62.8133H116.439C116.439 62.8133 116.44 62.81 116.442 62.81L116.454 62.8032C116.454 62.8032 116.457 62.8033 116.459 62.8016L116.471 62.7982C116.471 62.7982 116.472 62.7982 116.474 62.7982H116.476C116.476 62.7982 116.479 62.7982 116.481 62.7982C116.481 62.7982 116.483 62.7982 116.485 62.7982L116.358 62.6837C116.339 62.6668 116.309 62.6668 116.29 62.6837L116.164 62.7982V62.7999Z"
      fill="white" />
    <path d="M132.551 79.1782L117.407 79.2171L117.461 78.0045L132.406 78.0318L132.551 79.1782Z" fill="white"
      stroke="black" stroke-width="0.507692" stroke-miterlimit="10" />
    <path
      d="M133.136 90.2144C132.516 85.7161 130.828 73.582 130.61 70.3161C130.61 70.3161 135.219 71.1179 137.849 69.439C137.849 69.439 137.995 85.6424 137.773 90.1318C137.747 90.6272 137.816 91.1206 137.979 91.5887L139.391 95.668C139.605 96.2876 139.177 96.9426 138.522 96.9966L133.687 97.3705C133.095 97.4196 132.589 96.9515 132.596 96.3585C132.604 95.6509 132.911 94.787 132.727 94.3544C132.694 94.2732 132.575 94.2834 132.557 94.3694C132.47 94.7686 132.293 95.6611 132.247 96.4663C132.24 96.596 132.06 96.6226 132.014 96.5018L131.186 94.3394C130.914 93.627 131.12 92.8217 131.703 92.3263L132.629 91.5436C133.016 91.2168 133.208 90.7166 133.139 90.2144H133.136Z"
      fill="white" stroke="black" stroke-width="0.507692" stroke-miterlimit="10" />
    <path
      d="M139.087 71.1145C139.275 71.0592 139.399 70.8838 139.395 70.6887C139.349 68.9841 138.958 61.1478 135.684 58.4987C133.856 57.0199 131.735 57.5269 130.43 59.4906C129.363 61.0922 129.309 65.7118 129.123 70.776C129.116 70.9746 129.245 71.1547 129.438 71.2086C130.578 71.5321 134.557 72.4553 139.087 71.1145Z"
      fill="white" stroke="black" stroke-width="0.507692" stroke-miterlimit="10" />
    <path d="M128.445 79.2942C128.445 79.2942 127.085 83.8805 132.518 85.5564" stroke="black" stroke-width="0.507692"
      stroke-miterlimit="10" />
    <path
      d="M69.4679 71.3049L68.9305 88.5119C68.9236 88.7275 68.9675 88.9397 69.0592 89.1349L70.4058 92.0166C70.6544 92.5502 70.6153 93.1719 70.299 93.6707L67.9979 97.303L66.4282 78.1663L66.8219 71.5492L69.4679 71.3049Z"
      fill="white" stroke="black" stroke-width="0.507692" stroke-miterlimit="10" />
    <path
      d="M68.1602 137.962L80.1554 143.149C81.333 143.658 81.8163 145.066 81.1995 146.187C80.814 146.886 80.0774 147.319 79.2784 147.315L55.6382 147.216L57.2028 138.687L68.1586 137.96L68.1602 137.962Z"
      fill="white" stroke="black" stroke-width="0.507692" stroke-miterlimit="10" />
    <path d="M55.7902 146.213H81.1995" stroke="black" stroke-width="0.507692" stroke-miterlimit="10" />
    <path d="M69.1133 138.538L65.0714 146.14" stroke="black" stroke-width="0.507692" stroke-miterlimit="10" />
    <path d="M70.5784 138.991L66.4891 146.312" stroke="black" stroke-width="0.507692" stroke-miterlimit="10" />
    <path d="M72.0435 139.444L68.5492 146.199" stroke="black" stroke-width="0.507692" stroke-miterlimit="10" />
    <path
      d="M48.7005 138.84C48.7005 138.84 48.0111 142.123 46.4735 143.331C46.3941 143.393 46.4431 143.519 46.5428 143.518L58.4076 143.696C58.6019 143.7 58.6965 143.462 58.5546 143.332C57.7351 142.576 56.0235 140.78 55.9711 138.91L48.7005 138.841V138.84Z"
      fill="white" stroke="black" stroke-width="0.507692" stroke-miterlimit="10" />
    <path
      d="M67.3473 78.3006L69.5035 137.633C69.5048 137.697 69.4631 137.755 69.4001 137.77C68.3713 138.014 60.1595 139.887 56.6146 138.452L60.5177 78.2788L67.3473 78.3006Z"
      fill="white" stroke="black" stroke-width="0.507692" stroke-miterlimit="10" />
    <path
      d="M64.2689 55.9421C64.2689 55.9421 69.0167 57.5472 70.1053 70.8082C70.1169 70.9494 70.0259 71.0811 69.8869 71.118C69.3967 71.2476 68.2683 71.5103 67.6296 71.3841L64.2689 55.9421Z"
      fill="white" stroke="black" stroke-width="0.507692" stroke-miterlimit="10" />
    <path
      d="M64.134 78.4945C64.134 78.4945 61.1416 130.777 58.766 138.752C58.7491 138.809 58.6967 138.846 58.6376 138.846L46.7728 138.976C46.6951 138.976 46.6308 138.91 46.6359 138.833L48.4658 109.294L49.26 83.7119C49.26 83.7119 51.0257 79.2205 52.0614 78.3007"
      fill="white" />
    <path
      d="M64.134 78.4945C64.134 78.4945 61.1416 130.777 58.766 138.752C58.7491 138.809 58.6967 138.846 58.6376 138.846L46.7728 138.976C46.6951 138.976 46.6308 138.91 46.6359 138.833L48.4658 109.294L49.26 83.7119C49.26 83.7119 51.0257 79.2205 52.0614 78.3007"
      stroke="black" stroke-width="0.507692" stroke-miterlimit="10" />
    <path
      d="M63.5036 55.3814C63.5036 55.3814 70.6119 58.1905 67.3476 78.3007H52.0595L50.0083 65.5722L50.7669 55.9826C50.7669 55.9826 53.9029 53.9179 57.1285 54.6353L63.5019 55.3831L63.5036 55.3814Z"
      fill="white" stroke="black" stroke-width="0.507692" stroke-miterlimit="10" />
    <path
      d="M45.7891 71.9969H56.2921C56.3681 71.9969 56.4289 71.9382 56.434 71.8645C56.5168 70.2978 57.1521 55.4791 51.2078 55.6661C51.2078 55.6661 44.5101 57.303 45.6472 71.8659C45.6523 71.9403 45.7148 71.9969 45.7891 71.9969Z"
      fill="white" stroke="black" stroke-width="0.507692" stroke-miterlimit="10" />
    <path
      d="M46.8739 71.9415V82.5382C46.8739 82.8617 46.8992 83.1851 46.9517 83.5052C47.3048 85.6608 48.7968 94.3223 50.4796 97.2763C50.7314 97.7192 51.1572 98.0358 51.6506 98.1689L55.9744 99.3392C56.8885 99.5869 57.8499 99.144 58.2521 98.2869L59.2185 96.2268C59.4264 95.7826 59.173 95.2585 58.6948 95.1459L55.1364 94.3018L57.3346 94.5393C57.485 94.5564 57.5762 94.3762 57.4715 94.265L56.1992 92.9043C55.9744 92.6648 55.6602 92.5283 55.3324 92.5283L53.6207 92.3318C53.4264 92.31 53.2777 92.1482 53.2709 91.9524L53.0276 83.1667C53.0091 82.8788 53.0175 82.5901 53.0547 82.3042L54.3777 71.9872L46.9111 72.0173"
      fill="white" />
    <path
      d="M46.8739 71.9415V82.5382C46.8739 82.8617 46.8992 83.1851 46.9517 83.5052C47.3048 85.6608 48.7968 94.3223 50.4796 97.2763C50.7314 97.7192 51.1572 98.0358 51.6506 98.1689L55.9744 99.3392C56.8885 99.5869 57.8499 99.144 58.2521 98.2869L59.2185 96.2268C59.4264 95.7826 59.173 95.2585 58.6948 95.1459L55.1364 94.3018L57.3346 94.5393C57.485 94.5564 57.5762 94.3762 57.4715 94.265L56.1992 92.9043C55.9744 92.6648 55.6602 92.5283 55.3324 92.5283L53.6207 92.3318C53.4264 92.31 53.2777 92.1482 53.2709 91.9524L53.0276 83.1667C53.0091 82.8788 53.0175 82.5901 53.0547 82.3042L54.3777 71.9872L46.9111 72.0173"
      stroke="black" stroke-width="0.507692" stroke-miterlimit="10" />
    <path
      d="M61.2056 53.7242C63.5152 53.7242 65.3875 51.2548 65.3875 48.2086C65.3875 45.1624 63.5152 42.693 61.2056 42.693C58.896 42.693 57.0237 45.1624 57.0237 48.2086C57.0237 51.2548 58.896 53.7242 61.2056 53.7242Z"
      fill="white" stroke="black" stroke-width="0.507692" stroke-miterlimit="10" />
    <path
      d="M62.4391 50.4502C62.9882 50.4502 63.4343 50.0056 63.4343 49.4582C63.4343 48.9109 62.9882 48.4663 62.4391 48.4663"
      stroke="black" stroke-width="0.507692" stroke-miterlimit="10" stroke-linecap="round" />
    <path
      d="M60.2441 47.7875C60.5063 47.7875 60.7188 47.5251 60.7188 47.2014C60.7188 46.8777 60.5063 46.6154 60.2441 46.6154C59.9819 46.6154 59.7693 46.8777 59.7693 47.2014C59.7693 47.5251 59.9819 47.7875 60.2441 47.7875Z"
      fill="black" />
    <path
      d="M63.6066 47.7875C63.8688 47.7875 64.0813 47.5251 64.0813 47.2014C64.0813 46.8777 63.8688 46.6154 63.6066 46.6154C63.3443 46.6154 63.1317 46.8777 63.1317 47.2014C63.1317 47.5251 63.3443 47.7875 63.6066 47.7875Z"
      fill="black" />
    <path d="M64.4598 46.4503C64.4598 46.4503 63.7451 45.4146 62.5099 46.3425" stroke="black" stroke-width="0.507692"
      stroke-miterlimit="10" stroke-linecap="round" />
    <path d="M61.3408 46.4503C61.3408 46.4503 60.6261 45.4146 59.3909 46.3425" stroke="black" stroke-width="0.507692"
      stroke-miterlimit="10" stroke-linecap="round" />
    <path
      d="M57.463 50.5495C57.463 50.5495 58.465 53.2677 55.7784 53.0673C55.7784 53.0673 54.0939 53.9868 53.2524 52.3078C53.2524 52.3078 51.2873 53.2273 50.8868 51.9086C50.8868 51.9086 49.7649 49.2712 51.6084 49.0304C51.6084 49.0304 50.7669 47.2721 52.0899 47.1913C52.0899 47.1913 51.0474 44.8335 52.3298 44.5135C52.3298 44.5135 51.4883 43.1948 53.2929 43.1948C53.2929 43.1948 53.734 40.7174 56.3799 40.997C56.3799 40.997 56.9004 36.6401 61.312 39.3583C61.312 39.3583 64.2791 38.7992 63.9986 41.317C63.9986 41.317 66.8051 40.517 66.2441 43.5957C66.2441 43.5957 69.6521 42.6357 68.9716 46.1134C68.9716 46.1134 68.8511 47.3917 66.4047 47.1526C66.4047 47.1526 68.0082 50.6691 65.1223 50.7886C65.1223 50.7886 65.6832 48.3113 65.3621 46.9118C65.3621 46.9118 63.2365 46.1926 63.1571 44.7139C63.1571 44.7139 60.9116 44.5539 60.6716 43.5957C60.6716 43.5957 59.7896 45.6334 58.3856 45.5139C58.3856 45.5139 58.9465 48.4713 56.9426 48.4713C56.9426 48.4713 56.902 49.8708 57.463 50.5495Z"
      fill="black" />
    <path
      d="M63.8754 52.5351C63.8754 52.5351 63.6 54.0137 63.9024 55.2954C63.9818 55.6339 63.9008 55.9876 63.6709 56.2486C63.0998 56.8987 62.4798 57.7896 61.0571 57.7576C61.0571 57.7576 58.3181 57.793 57.1302 54.6335C57.1302 54.6335 57.6237 53.6314 57.6237 51.4824C57.6237 51.4824 60.2207 55.6086 63.8754 52.5351Z"
      fill="white" stroke="black" stroke-width="0.507692" stroke-miterlimit="10" />
    <path
      d="M57.1723 50.6775C56.5184 50.7819 55.9016 50.339 55.7952 49.6855C55.6904 49.0338 56.1348 48.419 56.7904 48.313"
      fill="white" />
    <path
      d="M57.1723 50.6775C56.5184 50.7819 55.9016 50.339 55.7952 49.6855C55.6904 49.0338 56.1348 48.419 56.7904 48.313"
      stroke="black" stroke-width="0.507692" stroke-miterlimit="10" />
    <path
      d="M45.4969 147.22H59.8101C59.9199 147.22 60.0061 147.124 59.9892 147.014C59.8692 146.207 59.2728 143.213 56.8278 141.285C54.8965 139.762 52.0191 139.508 49.6823 140.558C47.5448 141.521 45.0103 143.471 45.3128 147.053C45.3212 147.145 45.4006 147.218 45.4953 147.218L45.4969 147.22Z"
      fill="white" stroke="black" stroke-width="0.507692" stroke-miterlimit="10" />
    <path d="M54.452 100.57L54.3777 101.579" stroke="black" stroke-width="0.507692" stroke-miterlimit="10" />
    <path d="M54.2171 103.704L51.7434 136.653" stroke="black" stroke-width="0.507692" stroke-miterlimit="10" />
    <path d="M51.664 137.716L51.588 138.723" stroke="black" stroke-width="0.507692" stroke-miterlimit="10" />
    <path d="M56.0928 78.7114L56.0184 79.7186" stroke="black" stroke-width="0.507692" stroke-miterlimit="10" />
    <path d="M55.8578 81.8375L55.3019 89.2496" stroke="black" stroke-width="0.507692" stroke-miterlimit="10" />
    <path d="M55.2225 90.3092L55.1465 91.3157" stroke="black" stroke-width="0.507692" stroke-miterlimit="10" />
    <path d="M77.8689 146.235C77.8689 146.235 77.5361 143.089 80.1144 143.299L77.8689 146.235Z" fill="white" />
    <path d="M77.8689 146.235C77.8689 146.235 77.5361 143.089 80.1144 143.299" stroke="black" stroke-width="0.419737"
      stroke-miterlimit="10" />
    <path d="M59.8235 50.4064C59.8235 50.4064 60.6767 52.1478 63.0643 51.6813L59.8235 50.4064Z" fill="white" />
    <path d="M59.8235 50.4064C59.8235 50.4064 60.6767 52.1478 63.0643 51.6813" stroke="black" stroke-width="0.419737"
      stroke-miterlimit="10" stroke-linecap="round" />
    <path d="M121.905 50.8189C121.905 50.8189 123.481 51.6492 125.005 50.6168L121.905 50.8189Z" fill="white" />
    <path d="M121.905 50.8189C121.905 50.8189 123.481 51.6492 125.005 50.6168" stroke="black" stroke-width="0.419737"
      stroke-miterlimit="10" stroke-linecap="round" />
  </g>
  <defs>
    <clipPath id="clip0_1_2076">
      <rect width="178" height="150" fill="white" />
    </clipPath>
  </defs>
</svg>