<svg xmlns="http://www.w3.org/2000/svg" width="26" height="25" viewBox="0 0 26 25" fill="none">
  <path
    d="M14.3749 3.125H12.2916C7.68921 3.125 3.95825 6.85596 3.95825 11.4583V13.5417C3.95825 18.144 7.68921 21.875 12.2916 21.875H14.3749C18.9773 21.875 22.7083 18.144 22.7083 13.5417V11.4583C22.7083 6.85596 18.9773 3.125 14.3749 3.125Z"
    fill="white" />
  <path
    d="M9.16658 3.125C6.29054 3.125 3.95825 5.45729 3.95825 8.33333V16.6667C3.95825 19.5427 6.29054 21.875 9.16658 21.875H17.4999C20.376 21.875 22.7083 19.5427 22.7083 16.6667V8.33333C22.7083 5.45729 20.376 3.125 17.4999 3.125H9.16658ZM19.5833 5.20833C20.1583 5.20833 20.6249 5.675 20.6249 6.25C20.6249 6.825 20.1583 7.29167 19.5833 7.29167C19.0083 7.29167 18.5416 6.825 18.5416 6.25C18.5416 5.675 19.0083 5.20833 19.5833 5.20833ZM13.3333 7.29167C16.2093 7.29167 18.5416 9.62396 18.5416 12.5C18.5416 15.376 16.2093 17.7083 13.3333 17.7083C10.4572 17.7083 8.12492 15.376 8.12492 12.5C8.12492 9.62396 10.4572 7.29167 13.3333 7.29167ZM13.3333 9.375C11.6074 9.375 10.2083 10.7741 10.2083 12.5C10.2083 14.2259 11.6074 15.625 13.3333 15.625C15.0591 15.625 16.4583 14.2259 16.4583 12.5C16.4583 10.7741 15.0591 9.375 13.3333 9.375Z"
    fill="#849F88" />
</svg>