<svg xmlns="http://www.w3.org/2000/svg" width="26" height="25" viewBox="0 0 26 25" fill="none">
  <path
    d="M20.625 3.125H6.04171C4.89067 3.125 3.95837 4.05729 3.95837 5.20833V19.7917C3.95837 20.9427 4.89067 21.875 6.04171 21.875H20.625C21.7761 21.875 22.7084 20.9427 22.7084 19.7917V5.20833C22.7084 4.05729 21.7761 3.125 20.625 3.125ZM10.2084 17.7083H7.58025V10.4167H10.2084V17.7083ZM8.84796 9.08021C8.04483 9.08021 7.50837 8.54479 7.50837 7.83021C7.50837 7.11563 8.04379 6.58021 8.9365 6.58021C9.73962 6.58021 10.2761 7.11563 10.2761 7.83021C10.2761 8.54479 9.74067 9.08021 8.84796 9.08021ZM19.5834 17.7083H17.0396V13.7229C17.0396 12.6208 16.3615 12.3667 16.1073 12.3667C15.8532 12.3667 15.0052 12.5365 15.0052 13.7229C15.0052 13.8927 15.0052 17.7083 15.0052 17.7083H12.3771V10.4167H15.0052V11.4344C15.3438 10.8406 16.0219 10.4167 17.2938 10.4167C18.5657 10.4167 19.5834 11.4344 19.5834 13.7229V17.7083Z"
    fill="#849F88" />
</svg>