<svg xmlns="http://www.w3.org/2000/svg" width="25" height="25" viewBox="0 0 25 25" fill="none">
  <path
    d="M22.9167 6.13298C22.1368 6.47353 21.3535 6.73061 20.4855 6.81741C21.3535 6.30326 22.0487 5.44855 22.3945 4.50705C21.5265 5.0212 20.6584 5.36175 19.7056 5.53536C18.8375 4.68066 17.7084 4.1665 16.4945 4.1665C14.148 4.1665 12.2389 6.04618 12.2389 8.3532C12.2389 8.69709 12.2389 9.03763 12.3271 9.29471C8.76672 9.12444 5.64376 7.4985 3.55839 4.9344C3.12436 5.53536 2.95143 6.30326 2.95143 7.07115C2.95143 8.52681 3.73132 9.80886 4.86047 10.5768C4.16535 10.49 3.47362 10.3197 2.95143 10.0626C2.95143 10.0626 2.95143 10.0626 2.95143 10.1494C2.95143 12.1994 4.42645 13.9088 6.33549 14.2526C5.98962 14.3361 5.64376 14.4229 5.20973 14.4229C4.94864 14.4229 4.68754 14.4229 4.42645 14.3361C4.94864 16.0455 6.51181 17.2441 8.42086 17.2441C6.94584 18.3559 5.12157 19.037 3.12436 19.037C2.7785 19.037 2.42924 19.037 2.08337 18.9535C3.99242 20.1487 6.25072 20.8332 8.59379 20.8332C16.4945 20.8332 20.7466 14.4229 20.7466 8.86736C20.7466 8.69709 20.7466 8.52681 20.7466 8.3532C21.6146 7.75558 22.3097 6.98768 22.9167 6.13298Z"
    fill="#849F88" />
</svg>