<svg xmlns="http://www.w3.org/2000/svg" width="21" height="17" viewBox="0 0 21 17" fill="none">
  <path
    d="M20.3979 2.44359C20.1583 1.54775 19.4521 0.841504 18.5562 0.601921C16.9312 0.166504 10.4167 0.166504 10.4167 0.166504C10.4167 0.166504 3.90208 0.166504 2.27708 0.601921C1.38125 0.841504 0.675 1.54775 0.435417 2.44359C0 4.06859 0 8.49984 0 8.49984C0 8.49984 0 12.9311 0.435417 14.5561C0.675 15.4519 1.38125 16.1582 2.27708 16.3978C3.90208 16.8332 10.4167 16.8332 10.4167 16.8332C10.4167 16.8332 16.9312 16.8332 18.5562 16.3978C19.4531 16.1582 20.1583 15.4519 20.3979 14.5561C20.8333 12.9311 20.8333 8.49984 20.8333 8.49984C20.8333 8.49984 20.8333 4.06859 20.3979 2.44359ZM8.33333 12.1082V4.8915L14.5833 8.49984L8.33333 12.1082Z"
    fill="#849F88" />
</svg>