<svg xmlns="http://www.w3.org/2000/svg" width="101" height="65" viewBox="0 0 101 65" fill="none">
  <path
    d="M78.7682 62.876H22.3317C21.2389 62.876 20.3499 61.987 20.3499 60.8942V40.0932C20.3499 39.0004 21.2389 38.1115 22.3317 38.1115H78.7682C79.861 38.1115 80.7499 39.0004 80.7499 40.0932V60.8942C80.7499 61.987 79.861 62.876 78.7682 62.876ZM22.6773 60.5486H78.4225V40.4389H22.6773V60.5486Z"
    fill="#636462" />
  <path d="M62.2723 39.2751H59.9449V61.7122H62.2723V39.2751Z" fill="#636462" />
  <path d="M41.1549 39.2751H38.8275V61.7122H41.1549V39.2751Z" fill="#636462" />
  <path
    d="M54.9474 57.5967H46.1524C45.0245 57.5967 44.1068 56.6791 44.1068 55.5512V50.7156C44.1068 49.5877 45.0245 48.6702 46.1524 48.6702H54.9474C56.0753 48.6702 56.993 49.5877 56.993 50.7156V55.5512C56.993 56.6791 56.0753 57.5967 54.9474 57.5967ZM46.4342 55.2693H54.6656V50.9976H46.4342V55.2693Z"
    fill="#636462" />
  <path
    d="M46.9325 45.7182H46.2335C45.5908 45.7182 45.0698 45.1971 45.0698 44.5545C45.0698 43.9118 45.5908 43.3907 46.2335 43.3907H46.9325C47.5751 43.3907 48.0962 43.9118 48.0962 44.5545C48.0962 45.1971 47.5751 45.7182 46.9325 45.7182Z"
    fill="#618365" />
  <path
    d="M50.8994 45.7182H50.2005C49.5578 45.7182 49.0367 45.1971 49.0367 44.5545C49.0367 43.9118 49.5578 43.3907 50.2005 43.3907H50.8994C51.542 43.3907 52.0631 43.9118 52.0631 44.5545C52.0631 45.1971 51.542 45.7182 50.8994 45.7182Z"
    fill="#618365" />
  <path
    d="M54.8664 45.7182H54.1674C53.5247 45.7182 53.0037 45.1971 53.0037 44.5545C53.0037 43.9118 53.5247 43.3907 54.1674 43.3907H54.8664C55.509 43.3907 56.0301 43.9118 56.0301 44.5545C56.0301 45.1971 55.509 45.7182 54.8664 45.7182Z"
    fill="#618365" />
  <path
    d="M58.9707 20.4454H42.1291C41.0364 20.4454 40.1474 19.5564 40.1474 18.4637V18.2241C40.1474 17.8084 40.2752 17.41 40.5167 17.0719L46.7466 8.35011V2.1239H49.074V9.09599L42.6297 18.118H58.4702L52.0258 9.09599V2.1239H54.3532V8.35011L60.5833 17.0722C60.8246 17.41 60.9524 17.8084 60.9524 18.2241V18.4637C60.9524 19.5564 60.0634 20.4454 58.9707 20.4454Z"
    fill="#618365" />
  <path
    d="M78.7682 16.5639H65.8861C64.7933 16.5639 63.9044 15.675 63.9044 14.5822V8.29935C63.9044 7.20657 64.7933 6.3175 65.8861 6.3175H78.7682C79.861 6.3175 80.7499 7.20657 80.7499 8.29935V14.5822C80.7499 15.675 79.861 16.5639 78.7682 16.5639ZM66.2318 14.2365H78.4225V8.64492H66.2318V14.2365Z"
    fill="#636462" />
  <path
    d="M35.2137 16.5639H22.3317C21.2389 16.5639 20.3499 15.675 20.3499 14.5822V8.29935C20.3499 7.20657 21.2389 6.3175 22.3317 6.3175H35.2137C36.3065 6.3175 37.1954 7.20657 37.1954 8.29935V14.5822C37.1954 15.675 36.3065 16.5639 35.2137 16.5639ZM22.6773 14.2365H34.868V8.64492H22.6773V14.2365Z"
    fill="#636462" />
  <path d="M79.5863 46.0304H61.1086V48.3578H79.5863V46.0304Z" fill="#636462" />
  <path d="M39.9912 46.0304H21.5135V48.3578H39.9912V46.0304Z" fill="#636462" />
</svg>