<svg xmlns="http://www.w3.org/2000/svg" width="101" height="65" viewBox="0 0 101 65" fill="none">
  <path
    d="M63.8663 58.6734C63.1156 58.6734 62.507 58.1592 62.507 57.525V50.5416H40.3945V57.525C40.3945 58.1592 39.7859 58.6734 39.0352 58.6734C38.2845 58.6734 37.6759 58.1592 37.6759 57.525V49.5439C37.6759 49.4109 37.7324 48.2449 39.6894 48.2449H63.2121C65.1692 48.2449 65.2256 49.4109 65.2256 49.5439V57.525C65.2256 58.1592 64.6169 58.6734 63.8663 58.6734Z"
    fill="#618365" />
  <path
    d="M78.4803 59.8246H23.2795C21.1614 59.8246 19.4381 58.369 19.4381 56.5798V16.0655C19.4381 15.4313 20.0466 14.9171 20.7974 14.9171H80.9624C81.7131 14.9171 82.3217 15.4313 82.3217 16.0655V56.5801C82.3217 58.3691 80.5985 59.8246 78.4803 59.8246ZM22.1567 17.2139V56.5798C22.1567 57.1025 22.6604 57.5278 23.2795 57.5278H78.4803C79.0993 57.5278 79.6031 57.1027 79.6031 56.5801V17.2139H22.1567Z"
    fill="#656564" />
  <path
    d="M73.8842 64.411H27.8757C26.2552 64.411 24.9858 63.1391 24.9858 61.5154V58.8364C24.9858 58.2022 25.5945 57.688 26.3451 57.688C27.0958 57.688 27.7045 58.2022 27.7045 58.8364V61.5154C27.7045 61.8479 27.8567 62.0541 27.9332 62.1142H73.8267C73.9033 62.0541 74.0555 61.8479 74.0555 61.5154V58.8364C74.0555 58.2022 74.6641 57.688 75.4148 57.688C76.1655 57.688 76.7741 58.2022 76.7741 58.8364V61.5154C76.7741 63.1391 75.5046 64.411 73.8842 64.411Z"
    fill="#656564" />
  <path
    d="M74.7382 17.214H27.0217C26.271 17.214 25.6624 16.6998 25.6624 16.0656V11.1835C25.6624 10.5493 26.271 10.0352 27.0217 10.0352H74.7382C75.4889 10.0352 76.0975 10.5493 76.0975 11.1835V16.0656C76.0975 16.6998 75.4889 17.214 74.7382 17.214ZM28.381 14.9172H73.3789V12.3319H28.381V14.9172Z"
    fill="#656564" />
  <path
    d="M67.4873 12.3319H34.2726C33.5219 12.3319 32.9133 11.8177 32.9133 11.1835V7.13361C32.9133 6.49933 33.5219 5.98523 34.2726 5.98523H67.4873C68.238 5.98523 68.8466 6.49933 68.8466 7.13361V11.1835C68.8466 11.8177 68.238 12.3319 67.4873 12.3319ZM35.6319 10.0351H66.128V8.282H35.6319V10.0351Z"
    fill="#656564" />
  <path
    d="M80.2312 43.9091H68.5785C68.0913 43.9091 67.6413 43.6888 67.399 43.3316C67.1568 42.9744 67.1594 42.5351 67.4059 42.18C68.4185 40.7204 68.4238 38.8801 67.4201 37.2572C66.4152 35.6325 64.6284 34.5846 62.6404 34.4541C61.9831 34.4109 61.4574 33.9757 61.3928 33.4214C61.1744 31.5421 59.491 29.9663 57.2993 29.5894C56.7109 29.4882 56.2708 29.0729 56.2166 28.5677C55.9643 26.2138 53.5727 24.3699 50.772 24.3699C47.9715 24.3699 45.58 26.2138 45.3277 28.5677C45.2735 29.073 44.8334 29.4884 44.2449 29.5895C42.0529 29.966 40.3695 31.5419 40.151 33.4217C40.0866 33.9759 39.5609 34.4113 38.9037 34.4544C36.9155 34.5851 35.1286 35.6331 34.1239 37.2579C33.1204 38.8806 33.126 40.7205 34.1387 42.1799C34.385 42.535 34.3877 42.9744 34.1454 43.3316C33.9032 43.6887 33.4533 43.9091 32.966 43.9091H21.813C21.0624 43.9091 20.4537 43.3949 20.4537 42.7607C20.4537 42.1265 21.0624 41.6123 21.813 41.6123H30.9391C30.3842 39.8553 30.6413 37.9296 31.7143 36.1944C32.9783 34.1504 35.1397 32.7405 37.6272 32.2946C38.2617 30.0936 40.2217 28.2814 42.7653 27.5527C43.5588 24.4219 46.9049 22.0731 50.772 22.0731C54.6392 22.0731 57.9856 24.4221 58.779 27.5529C61.3224 28.2818 63.2822 30.0937 63.9167 32.2941C66.4039 32.74 68.5656 34.1499 69.8296 36.1935C70.903 37.929 71.1603 39.855 70.6052 41.6123H80.2312C80.9819 41.6123 81.5905 42.1265 81.5905 42.7607C81.5905 43.3949 80.9819 43.9091 80.2312 43.9091Z"
    fill="#656564" />
  <path
    d="M47.0935 7.87047C46.8563 7.87047 46.6161 7.81795 46.3976 7.70767C45.7531 7.38235 45.5429 6.67731 45.928 6.13285C46.7091 5.02848 47.3076 4.10859 47.7884 3.36945C48.9928 1.51838 49.5973 0.589145 50.8775 0.588867H50.8784C52.1611 0.588867 52.736 1.47109 53.9956 3.40394C54.4721 4.13523 55.0652 5.0453 55.8329 6.13425C56.2171 6.6791 56.0057 7.38394 55.3606 7.70852C54.7157 8.03318 53.8813 7.8545 53.4972 7.30956C52.7058 6.18715 52.1004 5.2581 51.614 4.51168C51.36 4.12196 51.1018 3.72562 50.8798 3.40469C50.6646 3.71683 50.4157 4.09945 50.1709 4.47579C49.6795 5.2311 49.068 6.17098 48.2617 7.31096C48.0071 7.67085 47.5561 7.87047 47.0935 7.87047Z"
    fill="#656564" />
</svg>