<svg xmlns="http://www.w3.org/2000/svg" width="65" height="65" viewBox="0 0 65 65" fill="none">
  <path
    d="M6.60774 35.0543C5.97354 35.0543 5.45935 34.5401 5.45935 33.9059V28.9558C5.45935 28.3216 5.97354 27.8074 6.60774 27.8074C7.24193 27.8074 7.75612 28.3216 7.75612 28.9558V33.9059C7.75612 34.5401 7.24193 35.0543 6.60774 35.0543Z"
    fill="#656564" />
  <path
    d="M8.37098 30.1042H4.84443C4.21024 30.1042 3.69604 29.59 3.69604 28.9558V16.4443C3.69604 15.8101 4.21024 15.2959 4.84443 15.2959H8.37098C9.00518 15.2959 9.51937 15.8101 9.51937 16.4443V28.9558C9.51937 29.59 9.00518 30.1042 8.37098 30.1042ZM5.99282 27.8074H7.2226V17.5927H5.99282V27.8074Z"
    fill="#656564" />
  <path
    d="M7.69515 35.0543H5.52033C4.88614 35.0543 4.37195 34.5401 4.37195 33.906C4.37195 33.2718 4.88614 32.7576 5.52033 32.7576H7.69515C8.32934 32.7576 8.84353 33.2718 8.84353 33.906C8.84353 34.5401 8.32934 35.0543 7.69515 35.0543Z"
    fill="#656564" />
  <path
    d="M63.1922 64.179H28.315C27.6807 64.179 27.1666 63.6648 27.1666 63.0306C27.1666 62.3963 27.6807 61.8822 28.315 61.8822H62.0438V45.3771H28.6747C28.0405 45.3771 27.5263 44.8629 27.5263 44.2287C27.5263 43.5945 28.0405 43.0803 28.6747 43.0803H63.1922C63.8264 43.0803 64.3405 43.5945 64.3405 44.2287V63.0306C64.3405 63.6648 63.8264 64.179 63.1922 64.179Z"
    fill="#656564" />
  <path
    d="M28.185 50.3143H2.21992C1.58573 50.3143 1.07153 49.8002 1.07153 49.166C1.07153 48.5318 1.58573 48.0176 2.21992 48.0176H28.185C28.8192 48.0176 29.3334 48.5318 29.3334 49.166C29.3334 49.8002 28.8192 50.3143 28.185 50.3143Z"
    fill="#656564" />
  <path
    d="M23.5765 45.4262H20.9064C20.2722 45.4262 19.7581 44.912 19.7581 44.2778C19.7581 43.6436 20.2722 43.1294 20.9064 43.1294H23.5765C24.2107 43.1294 24.7249 43.6436 24.7249 44.2778C24.7249 44.912 24.2107 45.4262 23.5765 45.4262Z"
    fill="#618365" />
  <path
    d="M23.5765 54.5988H20.9064C20.2722 54.5988 19.7581 54.0846 19.7581 53.4504C19.7581 52.8162 20.2722 52.302 20.9064 52.302H23.5765C24.2107 52.302 24.7249 52.8162 24.7249 53.4504C24.7249 54.0846 24.2107 54.5988 23.5765 54.5988Z"
    fill="#618365" />
  <path
    d="M28.185 64.179H2.31111C1.67691 64.179 1.16272 63.6648 1.16272 63.0306V34.6975C1.16272 34.0633 1.67691 33.5491 2.31111 33.5491C2.9453 33.5491 3.45949 34.0633 3.45949 34.6975V61.8822H27.0366V34.6975C27.0366 34.0633 27.5508 33.5491 28.185 33.5491C28.8192 33.5491 29.3334 34.0633 29.3334 34.6975V63.0306C29.3334 63.6648 28.8192 64.179 28.185 64.179Z"
    fill="#656564" />
  <path
    d="M29.2882 35.8458H1.20783C0.573642 35.8458 0.0594482 35.3316 0.0594482 34.6975C0.0594482 34.0633 0.573642 33.5491 1.20783 33.5491H29.2882C29.9225 33.5491 30.4366 34.0633 30.4366 34.6975C30.4366 35.3316 29.9225 35.8458 29.2882 35.8458Z"
    fill="#656564" />
  <path
    d="M59.1597 58.1946C58.5255 58.1946 58.0114 57.6804 58.0114 57.0462V52.262C58.0114 51.6278 58.5255 51.1136 59.1597 51.1136C59.7939 51.1136 60.3081 51.6278 60.3081 52.262V57.0462C60.3081 57.6804 59.7939 58.1946 59.1597 58.1946Z"
    fill="#618365" />
  <path
    d="M61.6194 45.3771C60.9851 45.3771 60.471 44.8629 60.471 44.2287V3.11769H34.882V44.2287C34.882 44.8629 34.3678 45.3771 33.7336 45.3771C33.0994 45.3771 32.5852 44.8629 32.5852 44.2287V1.96931C32.5852 1.33512 33.0994 0.820923 33.7336 0.820923H61.6194C62.2536 0.820923 62.7678 1.33512 62.7678 1.96931V44.2287C62.7678 44.8629 62.2536 45.3771 61.6194 45.3771Z"
    fill="#656564" />
</svg>