<svg xmlns="http://www.w3.org/2000/svg" width="101" height="65" viewBox="0 0 101 65" fill="none">
  <path
    d="M39.2407 49.1055H24.7304C22.335 49.1055 20.386 47.1566 20.386 44.7611V22.3451C20.386 20.5342 21.8592 19.061 23.6701 19.061H25.7905C27.6014 19.061 29.0746 20.5342 29.0746 22.3451V40.3162C29.0746 40.3716 29.1198 40.4168 29.1753 40.4168H39.2407C41.2768 40.4168 42.9331 42.0732 42.9331 44.1092V45.413C42.9331 47.449 41.2768 49.1055 39.2407 49.1055ZM23.6701 21.3884C23.1426 21.3884 22.7134 21.8176 22.7134 22.3451V44.7611C22.7134 45.8733 23.6182 46.7781 24.7304 46.7781H39.2407C39.9934 46.7781 40.6057 46.1657 40.6057 45.413V44.1092C40.6057 43.3566 39.9934 42.7442 39.2407 42.7442H29.1753C27.8364 42.7442 26.7472 41.655 26.7472 40.3162V22.3451C26.7472 21.8176 26.318 21.3884 25.7905 21.3884H23.6701Z"
    fill="#636462" />
  <path
    d="M22.9235 62.5825C22.8515 62.5825 22.7786 62.5759 22.7053 62.562C22.0738 62.4422 21.659 61.8332 21.7789 61.2018L24.3226 47.7893C24.4424 47.1578 25.0519 46.7432 25.6828 46.8629C26.3142 46.9827 26.729 47.5916 26.6091 48.2231L24.0654 61.6355C23.9596 62.1937 23.4715 62.5825 22.9235 62.5825Z"
    fill="#636462" />
  <path
    d="M39.2378 62.5372C38.685 62.5372 38.1946 62.1418 38.0936 61.5785L35.6996 48.2113C35.5863 47.5787 36.0073 46.974 36.64 46.8607C37.2724 46.747 37.8773 47.1685 37.9906 47.8011L40.3847 61.1682C40.498 61.8008 40.0769 62.4055 39.4443 62.5189C39.375 62.5313 39.3058 62.5372 39.2378 62.5372Z"
    fill="#636462" />
  <path d="M51.7935 35.4463H49.4661V61.6515H51.7935V35.4463Z" fill="#636462" />
  <path
    d="M55.855 62.7132H45.4044C44.7618 62.7132 44.2407 62.1921 44.2407 61.5495C44.2407 60.9068 44.7618 60.3857 45.4044 60.3857H55.855C56.4977 60.3857 57.0187 60.9068 57.0187 61.5495C57.0187 62.1921 56.4977 62.7132 55.855 62.7132Z"
    fill="#636462" />
  <path
    d="M60.6574 20.0631H40.6023C39.2263 20.0631 38.1067 18.9436 38.1067 17.5675V4.78234C38.1067 3.40622 39.2263 2.28674 40.6023 2.28674H60.6574C62.0335 2.28674 63.1528 3.40622 63.1528 4.78234V17.5675C63.1528 18.9436 62.0335 20.0631 60.6574 20.0631ZM40.6023 4.61416C40.5095 4.61416 40.4341 4.68964 40.4341 4.78235V17.5675C40.4341 17.6602 40.5095 17.7357 40.6023 17.7357H60.6574C60.75 17.7357 60.8254 17.6602 60.8254 17.5675V4.78234C60.8254 4.68963 60.75 4.61415 60.6574 4.61415L40.6023 4.61416Z"
    fill="#636462" />
  <path
    d="M64.4557 36.6101H36.8038C35.7111 36.6101 34.822 35.7211 34.822 34.6283V31.2663C34.822 30.1735 35.7111 29.2845 36.8038 29.2845H64.4557C65.5484 29.2845 66.4375 30.1735 66.4375 31.2663V34.6283C66.4375 35.7211 65.5484 36.6101 64.4557 36.6101ZM37.1494 34.2827H64.1101V31.612H37.1494V34.2827Z"
    fill="#618365" />
  <path
    d="M56.3163 14.9713C54.4506 14.9713 53.4782 14.1073 52.6967 13.4131C52.0389 12.8287 51.6042 12.4426 50.6235 12.4426C49.6435 12.4426 49.2094 12.8286 48.552 13.413C47.7711 14.1073 46.799 14.9713 44.9345 14.9713C43.0551 14.9713 42.0866 14.068 41.3086 13.3421C40.6608 12.7378 40.2329 12.3385 39.2704 12.3385V10.0111C41.1498 10.0111 42.1183 10.9144 42.8964 11.6403C43.5441 12.2446 43.972 12.6438 44.9345 12.6438C45.9141 12.6438 46.3484 12.2578 47.0057 11.6735C47.7866 10.9793 48.7586 10.1152 50.6235 10.1152C52.4888 10.1152 53.4612 10.9791 54.2425 11.6731C54.9005 12.2576 55.3351 12.6438 56.3163 12.6438C57.2813 12.6438 57.7103 12.2444 58.3594 11.6397C59.1384 10.9141 60.108 10.0111 61.9891 10.0111V12.3385C61.0239 12.3385 60.5949 12.7381 59.9456 13.3427C59.1668 14.0683 58.1973 14.9713 56.3163 14.9713Z"
    fill="#636462" />
  <path
    d="M76.3297 49.1055H61.8194C59.7833 49.1055 58.127 47.449 58.127 45.413V44.1092C58.127 42.0732 59.7833 40.4168 61.8194 40.4168H71.8848C71.9403 40.4168 71.9855 40.3717 71.9855 40.3162V22.3451C71.9855 20.5342 73.4587 19.061 75.2696 19.061H77.39C79.2009 19.061 80.6741 20.5342 80.6741 22.3451V44.7611C80.6741 47.1566 78.7251 49.1055 76.3297 49.1055ZM61.8194 42.7442C61.0667 42.7442 60.4544 43.3566 60.4544 44.1092V45.413C60.4544 46.1657 61.0667 46.7781 61.8194 46.7781H76.3297C77.4419 46.7781 78.3467 45.8733 78.3467 44.7611V22.3451C78.3467 21.8176 77.9175 21.3885 77.39 21.3885H75.2696C74.7421 21.3885 74.3129 21.8176 74.3129 22.3451V40.3162C74.3129 41.655 73.2237 42.7442 71.8848 42.7442H61.8194Z"
    fill="#636462" />
  <path
    d="M78.1367 62.5826C77.5887 62.5826 77.1006 62.1938 76.9948 61.6356L74.4511 48.2232C74.3312 47.5917 74.746 46.9828 75.3774 46.863C76.0097 46.7442 76.6178 47.158 76.7375 47.7895L79.2813 61.2019C79.4012 61.8334 78.9864 62.4423 78.3549 62.5621C78.2816 62.5759 78.2087 62.5826 78.1367 62.5826Z"
    fill="#636462" />
  <path
    d="M61.8222 62.5374C61.7542 62.5374 61.6851 62.5314 61.6158 62.519C60.9832 62.4056 60.5621 61.801 60.6754 61.1684L63.0695 47.8012C63.1829 47.1686 63.7864 46.7472 64.4201 46.8608C65.0527 46.9742 65.4738 47.5788 65.3605 48.2114L62.9664 61.5786C62.8655 62.1419 62.3751 62.5374 61.8222 62.5374Z"
    fill="#636462" />
  <path
    d="M39.2407 49.1055H24.7304C22.335 49.1055 20.386 47.1566 20.386 44.7611V22.3451C20.386 20.5342 21.8592 19.061 23.6701 19.061H25.7905C27.6014 19.061 29.0746 20.5342 29.0746 22.3451V40.3162C29.0746 40.3716 29.1198 40.4168 29.1753 40.4168H39.2407C41.2768 40.4168 42.9331 42.0732 42.9331 44.1092V45.413C42.9331 47.449 41.2768 49.1055 39.2407 49.1055ZM23.6701 21.3884C23.1426 21.3884 22.7134 21.8176 22.7134 22.3451V44.7611C22.7134 45.8733 23.6182 46.7781 24.7304 46.7781H39.2407C39.9934 46.7781 40.6057 46.1657 40.6057 45.413V44.1092C40.6057 43.3566 39.9934 42.7442 39.2407 42.7442H29.1753C27.8364 42.7442 26.7472 41.655 26.7472 40.3162V22.3451C26.7472 21.8176 26.318 21.3884 25.7905 21.3884H23.6701Z"
    fill="#636462" />
  <path
    d="M22.9235 62.5827C22.8515 62.5827 22.7786 62.576 22.7053 62.5621C22.0738 62.4423 21.659 61.8334 21.7789 61.2019L24.3226 47.7895C24.4424 47.1579 25.0519 46.7433 25.6828 46.863C26.3142 46.9828 26.729 47.5917 26.6091 48.2232L24.0654 61.6356C23.9596 62.1938 23.4715 62.5827 22.9235 62.5827Z"
    fill="#636462" />
  <path
    d="M39.2378 62.5374C38.685 62.5374 38.1946 62.1419 38.0936 61.5786L35.6996 48.2114C35.5863 47.5788 36.0073 46.9742 36.64 46.8608C37.2724 46.7472 37.8773 47.1686 37.9906 47.8012L40.3847 61.1684C40.498 61.801 40.0769 62.4056 39.4443 62.519C39.375 62.5314 39.3058 62.5374 39.2378 62.5374Z"
    fill="#636462" />
</svg>