<svg xmlns="http://www.w3.org/2000/svg" width="100" height="65" viewBox="0 0 100 65" fill="none">
  <path
    d="M78.2375 62.6639H21.7626C20.6698 62.6639 19.7808 61.775 19.7808 60.6822V34.1589C19.7808 33.0661 20.6698 32.1771 21.7626 32.1771H78.2375C79.3301 32.1771 80.2192 33.0661 80.2192 34.1589V60.6822C80.2192 61.775 79.3301 62.6639 78.2375 62.6639ZM22.1082 60.3365H77.8918V34.5045H22.1082V60.3365Z"
    fill="#636462" />
  <path d="M41.0574 34.3153H38.73V51.2296H41.0574V34.3153Z" fill="#636462" />
  <path d="M61.27 33.345H58.9426V51.7168H61.27V33.345Z" fill="#636462" />
  <path d="M62.3644 50.9796H20.9445V53.307H62.3644V50.9796Z" fill="#636462" />
  <path d="M79.0555 50.9796H60.1063V53.307H79.0555V50.9796Z" fill="#636462" />
  <path
    d="M32.314 43.3324H28.5242C27.8815 43.3324 27.3605 42.8114 27.3605 42.1687C27.3605 41.5261 27.8815 41.005 28.5242 41.005H32.314C32.9566 41.005 33.4777 41.5261 33.4777 42.1687C33.4777 42.8114 32.9566 43.3324 32.314 43.3324Z"
    fill="#618365" />
  <path
    d="M71.4759 43.3324H67.6861C67.0435 43.3324 66.5224 42.8114 66.5224 42.1687C66.5224 41.5261 67.0435 41.005 67.6861 41.005H71.4759C72.1186 41.005 72.6396 41.5261 72.6396 42.1687C72.6396 42.8114 72.1186 43.3324 71.4759 43.3324Z"
    fill="#618365" />
  <path
    d="M68.1312 28.5902H31.8689C30.7762 28.5902 29.8871 27.7012 29.8871 26.6085V4.31778C29.8871 3.22501 30.7762 2.33594 31.8689 2.33594H68.1312C69.2239 2.33594 70.113 3.22501 70.113 4.31778V26.6085C70.113 27.7012 69.2239 28.5902 68.1312 28.5902ZM32.2146 26.2628H67.7855V4.66334H32.2146V26.2628Z"
    fill="#636462" />
  <path d="M46.5886 26.5547H44.2612V33.7918H46.5886V26.5547Z" fill="#636462" />
  <path d="M55.7388 26.5547H53.4114V33.7918H55.7388V26.5547Z" fill="#636462" />
</svg>