<svg xmlns="http://www.w3.org/2000/svg" width="64" height="63" viewBox="0 0 64 63" fill="none">
  <path
    d="M38.6557 47.667C36.4879 47.667 34.7242 45.9573 34.7242 43.8559C34.7242 41.7545 36.4879 40.0449 38.6557 40.0449C40.8236 40.0449 42.5872 41.7545 42.5872 43.8559C42.5872 45.9573 40.8236 47.667 38.6557 47.667ZM38.6557 40.7406C36.8837 40.7406 35.4419 42.1382 35.4419 43.8559C35.4419 45.5737 36.8837 46.9713 38.6557 46.9713C40.4278 46.9713 41.8695 45.5737 41.8695 43.8559C41.8695 42.1382 40.4278 40.7406 38.6557 40.7406Z"
    fill="#5B6065" />
  <path
    d="M35.2221 45.1616C35.0539 45.1616 34.9038 45.0464 34.8704 44.8803C34.8324 44.6917 34.9593 44.509 35.1539 44.4723C36.791 44.1627 38.0143 43.4119 38.7895 42.2409C39.3726 41.36 39.4738 40.5547 39.4747 40.5467C39.4973 40.3562 39.6741 40.2186 39.8713 40.2403C40.0678 40.2617 40.2095 40.4327 40.1881 40.6232C40.1838 40.6616 40.0748 41.5724 39.4136 42.5861C38.8061 43.5173 37.5978 44.7189 35.2912 45.1551C35.268 45.1595 35.2449 45.1616 35.2221 45.1616Z"
    fill="#5B6065" />
  <path
    d="M37.994 47.607C37.9464 47.607 37.898 47.5977 37.8515 47.5782C37.6696 47.5018 37.5861 47.2969 37.665 47.1207C38.7313 44.7369 41.9384 43.3457 42.0744 43.2877C42.2555 43.2101 42.4675 43.29 42.5474 43.4659C42.6272 43.6417 42.545 43.847 42.3636 43.9244C42.323 43.9419 39.2754 45.2692 38.3234 47.3974C38.2647 47.5286 38.1327 47.607 37.994 47.607Z"
    fill="#5B6065" />
  <path
    d="M40.2528 47.3014C40.0835 47.3014 39.9327 47.1846 39.9005 47.0174C39.6016 45.4657 38.7446 44.3112 37.3534 43.5857C36.2952 43.0339 35.3067 42.9471 35.2968 42.9463C35.0996 42.9301 34.9529 42.7621 34.9693 42.5709C34.9856 42.3796 35.1605 42.2367 35.3556 42.253C35.4011 42.2566 36.481 42.3477 37.6675 42.9596C38.7724 43.5294 40.1791 44.6737 40.606 46.8897C40.6424 47.0785 40.5139 47.2602 40.3191 47.2955C40.2969 47.2995 40.2747 47.3014 40.2528 47.3014Z"
    fill="#5B6065" />
  <path
    d="M1.3634 62.9352C0.709163 62.9352 0.178711 62.421 0.178711 61.7868V1.21308C0.178711 0.578891 0.709163 0.0646973 1.3634 0.0646973C2.01764 0.0646973 2.54809 0.578891 2.54809 1.21308V61.7868C2.54809 62.421 2.01764 62.9352 1.3634 62.9352Z"
    fill="#636462" />
  <path
    d="M62.6366 62.9352C61.9824 62.9352 61.4519 62.421 61.4519 61.7868V1.21308C61.4519 0.578891 61.9824 0.0646973 62.6366 0.0646973C63.2908 0.0646973 63.8213 0.578891 63.8213 1.21308V61.7868C63.8213 62.421 63.2908 62.9352 62.6366 62.9352Z"
    fill="#636462" />
  <path
    d="M62.145 22.0001H1.83264C1.1784 22.0001 0.647949 21.4859 0.647949 20.8518C0.647949 20.2176 1.1784 19.7034 1.83264 19.7034H62.145C62.7992 19.7034 63.3297 20.2176 63.3297 20.8518C63.3297 21.4859 62.7992 22.0001 62.145 22.0001Z"
    fill="#636462" />
  <path
    d="M4.47046 51.9012C3.07068 51.9012 1.93188 50.7973 1.93188 49.4404C1.93188 48.0834 3.07068 46.9795 4.47046 46.9795H59.5072C60.907 46.9795 62.0458 48.0834 62.0458 49.4403V50.8897H60.6637V49.4403C60.6637 48.8222 60.1449 48.3193 59.5072 48.3193H4.47046C3.83281 48.3193 3.31403 48.8222 3.31403 49.4403C3.31403 50.0585 3.83281 50.5614 4.47046 50.5614V51.9012Z"
    fill="#636462" />
  <path
    d="M4.47046 21.0806C3.07068 21.0806 1.93188 19.9767 1.93188 18.6198C1.93188 17.263 3.07068 16.1591 4.47046 16.1591H59.5072C60.907 16.1591 62.0458 17.263 62.0458 18.6198V20.0693H60.6637V18.6198C60.6637 18.0017 60.1449 17.4988 59.5072 17.4988H4.47046C3.83281 17.4988 3.31403 18.0017 3.31403 18.6198C3.31403 19.238 3.83281 19.7408 4.47046 19.7408V21.0806Z"
    fill="#636462" />
  <path
    d="M62.145 52.6987H1.83264C1.1784 52.6987 0.647949 52.1846 0.647949 51.5504C0.647949 50.9162 1.1784 50.402 1.83264 50.402H62.145C62.7992 50.402 63.3297 50.9162 63.3297 51.5504C63.3297 52.1846 62.7992 52.6987 62.145 52.6987Z"
    fill="#636462" />
  <path
    d="M54.5726 16.7288C54.144 16.7288 53.7605 16.5826 53.4944 16.2879L52.6982 15.4057C52.4513 15.1321 52.3392 14.7609 52.3827 14.3604C52.4497 13.7433 52.8658 13.102 53.4959 12.645L55.3244 11.3189C55.3922 11.2697 55.4572 11.2155 55.5177 11.1575L57.925 8.84977C58.4754 8.32211 59.179 8.0194 59.8056 8.04222C60.2151 8.05655 60.5751 8.21339 60.8191 8.48376L61.6162 9.36694C62.1883 10.0008 61.9922 11.0456 61.1497 11.8513L58.4522 14.4314C58.3467 14.5322 58.2337 14.6263 58.1161 14.7112L56.0501 16.2039C55.5673 16.5527 55.0428 16.7288 54.5726 16.7288ZM54.5006 15.4127C54.5772 15.4373 54.873 15.4202 55.2424 15.1533L57.3084 13.6605C57.3766 13.6113 57.442 13.5568 57.5031 13.4985L60.2003 10.9186C60.5252 10.6079 60.6059 10.3056 60.5878 10.2175L59.8124 9.35832C59.7036 9.32177 59.2814 9.39236 58.8755 9.78144L56.468 12.0893C56.3634 12.1895 56.2511 12.2832 56.1341 12.3681L54.3057 13.6941C53.8355 14.0351 53.7021 14.4417 53.7261 14.5546L54.5006 15.4127Z"
    fill="#5B6065" />
  <path
    d="M54.181 47.7812C53.7524 47.7812 53.3689 47.6351 53.1028 47.3404L52.3066 46.4582C52.0597 46.1846 51.9476 45.8134 51.9911 45.4129C52.0581 44.7957 52.4742 44.1545 53.1043 43.6975L54.9328 42.3714C55.0006 42.3222 55.0656 42.268 55.1261 42.21L57.5334 39.9023C58.0838 39.3746 58.7874 39.0719 59.414 39.0947C59.8235 39.109 60.1835 39.2659 60.4275 39.5363L61.2246 40.4194C61.7967 41.0532 61.6006 42.0981 60.7581 42.9038L58.0606 45.4839C57.9552 45.5847 57.8421 45.6788 57.7245 45.7637L55.6585 47.2564C55.1757 47.6052 54.6512 47.7812 54.181 47.7812ZM54.109 46.4651C54.1856 46.4898 54.4814 46.4726 54.8508 46.2058L56.9168 44.713C56.985 44.6638 57.0504 44.6093 57.1115 44.551L59.8088 41.9711C60.1336 41.6604 60.2143 41.3581 60.1962 41.27L59.4208 40.4108C59.312 40.3742 58.8898 40.4448 58.4839 40.8339L56.0764 43.1418C55.9718 43.242 55.8595 43.3357 55.7425 43.4206L53.9142 44.7466C53.444 45.0876 53.3105 45.4942 53.3345 45.607L54.109 46.4651Z"
    fill="#5B6065" />
  <path
    d="M11.1289 62.8396C10.5292 62.8396 10.043 62.3683 10.043 61.7869V13.944C10.043 13.3627 10.5292 12.8914 11.1289 12.8914C11.7287 12.8914 12.2149 13.3627 12.2149 13.944V61.7869C12.2149 62.3683 11.7287 62.8396 11.1289 62.8396Z"
    fill="#618365" />
  <path
    d="M23.7976 62.8396C23.1979 62.8396 22.7117 62.3683 22.7117 61.7869V13.944C22.7117 13.3627 23.1979 12.8914 23.7976 12.8914C24.3974 12.8914 24.8836 13.3627 24.8836 13.944V61.7869C24.8836 62.3683 24.3974 62.8396 23.7976 62.8396Z"
    fill="#618365" />
  <path
    d="M23.5338 22.1603H11.1289C10.5292 22.1603 10.043 21.689 10.043 21.1076C10.043 20.5262 10.5292 20.0549 11.1289 20.0549H23.5338C24.1335 20.0549 24.6197 20.5262 24.6197 21.1076C24.6197 21.689 24.1335 22.1603 23.5338 22.1603Z"
    fill="#618365" />
  <path
    d="M23.5338 31.1148H11.1289C10.5292 31.1148 10.043 30.6435 10.043 30.0621C10.043 29.4807 10.5292 29.0094 11.1289 29.0094H23.5338C24.1335 29.0094 24.6197 29.4807 24.6197 30.0621C24.6197 30.6435 24.1335 31.1148 23.5338 31.1148Z"
    fill="#618365" />
  <path
    d="M23.5338 40.0694H11.1289C10.5292 40.0694 10.043 39.5981 10.043 39.0167C10.043 38.4353 10.5292 37.964 11.1289 37.964H23.5338C24.1335 37.964 24.6197 38.4353 24.6197 39.0167C24.6197 39.5981 24.1335 40.0694 23.5338 40.0694Z"
    fill="#618365" />
  <path
    d="M23.5338 49.024H11.1289C10.5292 49.024 10.043 48.5527 10.043 47.9713C10.043 47.3899 10.5292 46.9186 11.1289 46.9186H23.5338C24.1335 46.9186 24.6197 47.3899 24.6197 47.9713C24.6197 48.5527 24.1335 49.024 23.5338 49.024Z"
    fill="#618365" />
  <path
    d="M23.5338 57.9785H11.1289C10.5292 57.9785 10.043 57.5072 10.043 56.9259C10.043 56.3445 10.5292 55.8732 11.1289 55.8732H23.5338C24.1335 55.8732 24.6197 56.3445 24.6197 56.9259C24.6197 57.5072 24.1335 57.9785 23.5338 57.9785Z"
    fill="#618365" />
</svg>