<svg xmlns="http://www.w3.org/2000/svg" width="100" height="65" viewBox="0 0 100 65" fill="none">
  <path
    d="M52.7659 62.7464H47.1371C45.4608 62.7464 44.0971 61.3826 44.0971 59.7064V40.2309H43.3845V37.9034H46.4245V59.7064C46.4245 60.0992 46.7442 60.4189 47.1371 60.4189H52.7659C53.1588 60.4189 53.4786 60.0992 53.4786 59.7064V37.9034H56.5185V40.2309H55.806V59.7064C55.806 61.3826 54.4423 62.7464 52.7659 62.7464Z"
    fill="#636462" />
  <path d="M54.6423 37.9034H45.2607V40.2309H54.6423V37.9034Z" fill="#636462" />
  <path
    d="M67.7763 21.468H32.1267C29.4159 21.468 27.2104 19.2625 27.2104 16.5516V7.17017C27.2104 4.45922 29.4159 2.25378 32.1267 2.25378H67.7763C70.4871 2.25378 72.6925 4.45922 72.6925 7.17017V16.5516C72.6925 19.2625 70.4871 21.468 67.7763 21.468ZM32.1267 4.58119C30.6992 4.58119 29.5379 5.74262 29.5379 7.17017V16.5516C29.5379 17.9791 30.6992 19.1406 32.1267 19.1406H67.7763C69.2038 19.1406 70.3651 17.9791 70.3651 16.5516V7.17017C70.3651 5.74262 69.2038 4.58119 67.7763 4.58119H32.1267Z"
    fill="#636462" />
  <path
    d="M24.6215 15.6134C24.0324 15.6134 23.5548 15.1359 23.5548 14.5467V9.175C23.5548 8.58587 24.0324 8.10828 24.6215 8.10828C25.2107 8.10828 25.6883 8.58587 25.6883 9.175V14.5467C25.6883 15.1359 25.2107 15.6134 24.6215 15.6134Z"
    fill="#618365" />
  <path d="M76.4451 8.10828H74.1177V15.6134H76.4451V8.10828Z" fill="#636462" />
  <path
    d="M24.1401 45.7392C21.6364 45.495 19.8022 43.2442 19.8022 40.7287V13.8658C19.8022 13.2767 20.2798 12.7991 20.869 12.7991C21.4581 12.7991 21.9357 13.2767 21.9357 13.8658L21.9357 40.837C21.9357 42.136 22.811 43.3293 24.0861 43.5772C25.8007 43.9104 27.3074 42.5994 27.3074 40.9433V31.7348C27.3074 29.709 28.7846 27.8965 30.8008 27.6998C33.1143 27.4741 35.0698 29.2939 35.0698 31.5619V35.3144C35.0698 35.7608 35.433 36.1241 35.8793 36.1241C36.3257 36.1241 36.6889 35.7608 36.6889 35.3144V32.5C36.6889 29.1671 39.0432 27.6808 44.3226 27.6808C44.3313 27.6808 45.3869 27.6734 46.3962 27.3634C47.9466 26.8872 47.9466 26.169 47.9466 25.933V25.1235C47.9466 24.5343 48.4242 24.0567 49.0133 24.0567C49.6025 24.0567 50.08 24.5343 50.08 25.1235V25.933C50.08 28.9968 46.461 29.8143 44.3226 29.8143C38.8224 29.8143 38.8224 31.4304 38.8224 32.5V35.2301C38.8224 36.6345 37.8732 37.9125 36.4973 38.1942C34.6057 38.5815 32.9363 37.1392 32.9363 35.3144V31.6603C32.9363 30.7894 32.3434 29.9803 31.4841 29.8387C30.3905 29.6584 29.4409 30.5013 29.4409 31.5619V40.9433C29.4409 43.7595 27.0127 46.0194 24.1401 45.7392Z"
    fill="#618365" />
  <path d="M50.8897 41.6559H45.2607V43.9833H50.8897V41.6559Z" fill="#636462" />
  <path
    d="M51.1152 39.0671H48.7878V36.9159C48.7878 34.8949 50.0005 33.1035 51.8772 32.3524L76.674 22.0595C76.8233 21.9849 76.9605 21.9171 77.0867 21.8546C77.3849 21.7069 77.6906 21.5555 77.8694 21.4538C77.8703 21.3866 77.8703 21.3106 77.8703 21.2424V13.7373C77.8703 13.3443 77.5507 13.0246 77.1577 13.0246H75.2814V10.6971H77.1577C78.834 10.6971 80.1977 12.0609 80.1977 13.7373V21.2424C80.1977 22.8403 79.7326 23.1416 78.1194 23.9403C77.9854 24.0066 77.8387 24.0794 77.6781 24.1595L77.6039 24.1936L52.7559 34.5076C51.7538 34.9088 51.1152 35.8518 51.1152 36.9159V39.0671Z"
    fill="#636462" />
</svg>