<svg xmlns="http://www.w3.org/2000/svg" width="101" height="65" viewBox="0 0 101 65" fill="none">
  <path d="M79.7329 31.9956H62.2812V34.323H79.7329V31.9956Z" fill="#636462" />
  <path d="M79.7329 44.9858H62.2812V47.3132H79.7329V44.9858Z" fill="#636462" />
  <path
    d="M78.9148 62.6722H60.1997V4.65517H41.2004V2.32776H60.5454C61.6382 2.32776 62.5271 3.21683 62.5271 4.3096V14.411H78.9148C80.0076 14.411 80.8966 15.3 80.8966 16.3928V60.6904C80.8966 61.7832 80.0076 62.6722 78.9148 62.6722ZM62.5271 60.3448H78.5692V16.7384H62.5271V60.3448Z"
    fill="#636462" />
  <path
    d="M41.5433 62.6722H22.4561C21.3633 62.6722 20.4744 61.7832 20.4744 60.6904V4.3096C20.4744 3.21683 21.3633 2.32776 22.4561 2.32776H41.2005V4.65517H22.8018V60.3448H41.5433V62.6722Z"
    fill="#636462" />
  <path d="M62.0029 60.3447H41.5433V62.6721H62.0029V60.3447Z" fill="#636462" />
  <path d="M42.7713 3.38452H40.4438V61.2762H42.7713V3.38452Z" fill="#636462" />
  <path
    d="M35.6959 31.8029C35.0533 31.8029 34.5322 31.2819 34.5322 30.6392V24.0376C34.5322 23.395 35.0533 22.8739 35.6959 22.8739C36.3386 22.8739 36.8596 23.3949 36.8596 24.0376V30.6392C36.8596 31.2819 36.3386 31.8029 35.6959 31.8029Z"
    fill="#618365" />
  <path
    d="M47.4944 31.8029C46.8517 31.8029 46.3307 31.2819 46.3307 30.6392V24.0376C46.3307 23.395 46.8517 22.8739 47.4944 22.8739C48.137 22.8739 48.6581 23.3949 48.6581 24.0376V30.6392C48.6581 31.2819 48.137 31.8029 47.4944 31.8029Z"
    fill="#618365" />
</svg>