<svg xmlns="http://www.w3.org/2000/svg" width="101" height="65" viewBox="0 0 101 65" fill="none">
  <path
    d="M78.6567 62.6222H21.7431C20.6503 62.6222 19.7614 61.7332 19.7614 60.6405V4.91887C19.7614 3.51774 20.9013 2.37781 22.3024 2.37781H78.6567C79.7495 2.37781 80.6385 3.26688 80.6385 4.35965V60.6405C80.6385 61.7332 79.7495 62.6222 78.6567 62.6222ZM22.0888 60.2948H78.311V4.70522H22.3024C22.1866 4.70522 22.0888 4.80305 22.0888 4.91887V60.2948Z"
    fill="#636462" />
  <path
    d="M51.8474 44.1048H19.7614V4.91887C19.7614 3.51774 20.9013 2.37781 22.3024 2.37781H50.4537V4.70521H22.3024C22.1866 4.70521 22.0888 4.80304 22.0888 4.91887V41.7773H51.8474V44.1048Z"
    fill="#636462" />
  <path d="M51.3617 3.15308H49.0343V22.6304H51.3617V3.15308Z" fill="#636462" />
  <path d="M65.9998 3.45154H63.6724V43.8111H65.9998V3.45154Z" fill="#636462" />
  <path d="M78.8696 21.8711H21.5555V24.1985H78.8696V21.8711Z" fill="#636462" />
  <path d="M79.4547 41.7886H51.8457V44.116H79.4547V41.7886Z" fill="#636462" />
  <path
    d="M53.1312 52.0169H47.2686C46.6259 52.0169 46.1049 51.4958 46.1049 50.8532C46.1049 50.2105 46.6259 49.6895 47.2686 49.6895H53.1312C53.7739 49.6895 54.2949 50.2105 54.2949 50.8532C54.2949 51.4958 53.7739 52.0169 53.1312 52.0169Z"
    fill="#618365" />
  <path
    d="M29.0178 43.4654L26.865 39.2538C26.481 38.5026 26.5146 37.6246 26.955 36.905C27.3953 36.1854 28.1617 35.7559 29.0053 35.7559H37.1355C37.9223 35.7559 38.6601 36.1415 39.1092 36.7875C39.5584 37.4334 39.6629 38.2593 39.389 38.9968L37.9714 42.8124L35.7897 42.002L37.2072 38.1863C37.212 38.1732 37.2211 38.1489 37.1983 38.1161C37.1755 38.0833 37.1495 38.0833 37.1355 38.0833H29.0053C28.9893 38.0833 28.9625 38.0833 28.9401 38.1197C28.9178 38.1563 28.93 38.1802 28.9373 38.1945L31.0901 42.4061L29.0178 43.4654Z"
    fill="#636462" />
  <path
    d="M56.0458 43.3439H48.7437C48.101 43.3439 47.58 42.8229 47.58 42.1802V30.641C47.58 29.9984 48.101 29.4773 48.7437 29.4773H56.0458C56.6884 29.4773 57.2095 29.9984 57.2095 30.641V42.1802C57.2095 42.8229 56.6884 43.3439 56.0458 43.3439ZM49.9074 41.0165H54.8821V31.8047H49.9074V41.0165Z"
    fill="#636462" />
  <path
    d="M48.4731 40.2787H44.1178L43.5339 34.6288L47.3588 31.3771C47.8483 30.9608 48.5828 31.0203 48.9991 31.51C49.4154 31.9996 49.356 32.734 48.8663 33.1503L45.975 35.6084L46.2171 37.9513H48.4731C49.1158 37.9513 49.6368 38.4724 49.6368 39.115C49.6368 39.7577 49.1158 40.2787 48.4731 40.2787Z"
    fill="#636462" />
</svg>