<svg xmlns="http://www.w3.org/2000/svg" width="61" height="61" viewBox="0 0 61 61" fill="none">
  <path
    d="M37.4671 25.8311H1.31825C0.675598 25.8311 0.154541 25.31 0.154541 24.6674C0.154541 24.0247 0.67559 23.5037 1.31825 23.5037H37.4671C38.1098 23.5037 38.6308 24.0247 38.6308 24.6674C38.6308 25.31 38.1098 25.8311 37.4671 25.8311Z"
    fill="#636462" />
  <path
    d="M59.7817 25.8311H52.1329C51.4903 25.8311 50.9692 25.31 50.9692 24.6674C50.9692 24.0247 51.4903 23.5037 52.1329 23.5037H59.7817C60.4243 23.5037 60.9454 24.0247 60.9454 24.6674C60.9454 25.31 60.4243 25.8311 59.7817 25.8311Z"
    fill="#636462" />
  <path
    d="M3.69055 60.6885C3.0479 60.6885 2.52686 60.1674 2.52686 59.5248V24.6674C2.52686 24.0246 3.0479 23.5037 3.69055 23.5037C4.33321 23.5037 4.85426 24.0246 4.85426 24.6674V59.5248C4.85425 60.1674 4.33321 60.6885 3.69055 60.6885Z"
    fill="#636462" />
  <path
    d="M57.4914 60.6885C56.8488 60.6885 56.3277 60.1674 56.3277 59.5248V24.6674C56.3277 24.0246 56.8487 23.5037 57.4914 23.5037C58.1341 23.5037 58.6551 24.0246 58.6551 24.6674V59.5248C58.6551 60.1674 58.1341 60.6885 57.4914 60.6885Z"
    fill="#636462" />
  <path d="M21.9725 40.524H2.52686V23.5037H21.9725V40.524ZM4.85426 38.1966H19.6451V25.8311H4.85426V38.1966Z"
    fill="#636462" />
  <path
    d="M19.9907 53.0801H2.52686V38.2593H21.9725V51.0984C21.9725 52.1912 21.0834 53.0801 19.9907 53.0801ZM4.85426 50.7527H19.6451V40.5867H4.85426V50.7527Z"
    fill="#636462" />
  <path
    d="M13.5307 33.1775H10.9686C10.326 33.1775 9.80493 32.6565 9.80493 32.0138C9.80493 31.3712 10.326 30.8501 10.9686 30.8501H13.5307C14.1734 30.8501 14.6944 31.3712 14.6944 32.0138C14.6944 32.6565 14.1734 33.1775 13.5307 33.1775Z"
    fill="#618365" />
  <path
    d="M13.5307 46.8335H10.9686C10.326 46.8335 9.80493 46.3125 9.80493 45.6698C9.80493 45.0272 10.326 44.5061 10.9686 44.5061H13.5307C14.1734 44.5061 14.6944 45.0272 14.6944 45.6698C14.6944 46.3125 14.1734 46.8335 13.5307 46.8335Z"
    fill="#618365" />
  <path
    d="M50.9704 42.0566H36.2977V10.9646C36.2977 10.109 36.9938 9.41296 37.8493 9.41296H51.1643C52.0199 9.41296 52.7159 10.109 52.7159 10.9646V40.3111C52.7159 41.2735 51.9329 42.0566 50.9704 42.0566ZM38.6251 39.7292H50.3885V11.7404H38.6251V39.7292Z"
    fill="#636462" />
  <path
    d="M37.2809 42.0567H27.6826C27.04 42.0567 26.5189 41.5356 26.5189 40.893C26.5189 40.2503 27.04 39.7292 27.6826 39.7292H37.2809C37.9236 39.7292 38.4446 40.2503 38.4446 40.893C38.4446 41.5356 37.9236 42.0567 37.2809 42.0567Z"
    fill="#636462" />
  <path
    d="M41.3045 57.1562C40.6618 57.1562 40.1407 56.6352 40.1407 55.9925V40.893C40.1407 40.2503 40.6618 39.7292 41.3045 39.7292C41.9471 39.7292 42.4682 40.2503 42.4682 40.893V55.9925C42.4682 56.6352 41.9471 57.1562 41.3045 57.1562Z"
    fill="#636462" />
  <path
    d="M48.9901 60.6885C48.3475 60.6885 47.8264 60.1675 47.8264 59.5248V55.9925C47.8264 55.9278 47.7738 55.8753 47.7092 55.8753H34.8995C34.835 55.8753 34.7823 55.9278 34.7823 55.9925V59.5248C34.7823 60.1675 34.2613 60.6885 33.6186 60.6885C32.9759 60.6885 32.4549 60.1675 32.4549 59.5248V55.9925C32.4549 54.6445 33.5516 53.5479 34.8995 53.5479H47.7092C49.0572 53.5479 50.1538 54.6445 50.1538 55.9925V59.5248C50.1538 60.1675 49.6328 60.6885 48.9901 60.6885Z"
    fill="#636462" />
  <path
    d="M41.3045 60.6885C40.6618 60.6885 40.1407 60.1675 40.1407 59.5248V54.7116C40.1407 54.0689 40.6618 53.5479 41.3045 53.5479C41.9471 53.5479 42.4682 54.0689 42.4682 54.7116V59.5248C42.4682 60.1675 41.9471 60.6885 41.3045 60.6885Z"
    fill="#636462" />
  <path
    d="M30.9393 40.8929H28.6119V33.6342C28.6119 31.5799 30.2832 29.9086 32.3377 29.9086H37.4614V32.236H32.3377C31.5666 32.236 30.9393 32.8632 30.9393 33.6342V40.8929Z"
    fill="#636462" />
  <path
    d="M28.4918 19.6008H3.91406C2.82138 19.6008 1.93231 18.7118 1.93231 17.619V2.29315C1.93231 1.20038 2.82138 0.311401 3.91406 0.311401H28.4918C29.5847 0.311401 30.4737 1.20038 30.4737 2.29315V17.619C30.4737 18.7118 29.5847 19.6008 28.4918 19.6008ZM4.25972 17.2734H28.1463V2.63881H4.25972V17.2734Z"
    fill="#636462" />
  <path
    d="M12.348 25.0331C11.7054 25.0331 11.1843 24.512 11.1843 23.8693V18.437C11.1843 17.7944 11.7054 17.2733 12.348 17.2733C12.9907 17.2733 13.5117 17.7944 13.5117 18.437V23.8693C13.5117 24.512 12.9907 25.0331 12.348 25.0331Z"
    fill="#636462" />
  <path
    d="M20.058 25.1759C19.4153 25.1759 18.8943 24.6548 18.8943 24.0122V18.437C18.8943 17.7944 19.4153 17.2733 20.058 17.2733C20.7006 17.2733 21.2217 17.7944 21.2217 18.437V24.0122C21.2217 24.6548 20.7006 25.1759 20.058 25.1759Z"
    fill="#636462" />
</svg>