<svg xmlns="http://www.w3.org/2000/svg" width="101" height="65" viewBox="0 0 101 65" fill="none">
  <path
    d="M21.8125 23.0342C21.1699 23.0342 20.6488 22.5132 20.6488 21.8705V9.48089C20.6488 8.38812 21.5379 7.49915 22.6305 7.49915H79.1357C80.2286 7.49915 81.1176 8.38812 81.1176 9.48089V21.5624C81.1176 22.2051 80.5966 22.7261 79.9539 22.7261C79.3113 22.7261 78.7902 22.2051 78.7902 21.5624V9.82656H22.9762V21.8705C22.9762 22.5132 22.4552 23.0342 21.8125 23.0342Z"
    fill="#636462" />
  <path
    d="M70.5175 39.6266H31.5271C30.9985 39.6266 30.5013 39.421 30.1274 39.0477C30.0501 38.9706 29.984 38.883 29.9312 38.7875L20.8182 22.3162C20.5682 21.8644 20.5769 21.308 20.8409 20.8644C21.1027 20.4249 21.5815 20.1533 22.0925 20.1533C22.0969 20.1533 22.101 20.1533 22.1052 20.1534C27.4566 20.2009 74.5359 20.607 79.6184 20.2267C80.1303 20.1896 80.6175 20.4308 80.8963 20.8589C81.1753 21.2875 81.1986 21.8341 80.9571 22.2854C80.9571 22.2852 80.9571 22.2854 80.9571 22.2854L72.1268 38.7678C72.0746 38.8654 72.0086 38.9549 71.9312 39.0339C71.5611 39.4106 71.0457 39.6266 70.5175 39.6266ZM31.7677 37.2992H70.2733L78.1389 22.6171C68.9479 22.8628 32.5134 22.5703 23.5763 22.4937L31.7677 37.2992ZM78.9051 21.187C78.9047 21.1878 78.9041 21.1887 78.9037 21.1895L78.9051 21.187Z"
    fill="#636462" />
  <path
    d="M46.0209 57.5008H42.7373C39.7874 57.5008 37.3872 55.1008 37.3872 52.1508V48.854C37.3872 48.2114 37.9083 47.6903 38.5509 47.6903C39.1936 47.6903 39.7146 48.2114 39.7146 48.854V52.1508C39.7146 53.8175 41.0706 55.1733 42.7373 55.1733H46.0209C47.6876 55.1733 49.0436 53.8175 49.0436 52.1508V29.5308C49.0436 28.8881 49.5646 28.3671 50.2073 28.3671C50.8499 28.3671 51.371 28.8881 51.371 29.5308V52.1508C51.371 55.1008 48.9708 57.5008 46.0209 57.5008Z"
    fill="#636462" />
  <path
    d="M57.609 57.5008H54.3253C51.3753 57.5008 48.9753 55.1008 48.9753 52.1508V29.5308C48.9753 28.8881 49.4964 28.3671 50.139 28.3671C50.7817 28.3671 51.3028 28.8881 51.3028 29.5308V52.1508C51.3028 53.8175 52.6587 55.1734 54.3253 55.1734H57.609C59.2756 55.1734 60.6315 53.8175 60.6315 52.1508V48.854C60.6315 48.2114 61.1526 47.6903 61.7952 47.6903C62.4379 47.6903 62.9589 48.2114 62.9589 48.854V52.1508C62.9589 55.1008 60.559 57.5008 57.609 57.5008Z"
    fill="#636462" />
  <path
    d="M66.0646 49.7067H57.621C56.9783 49.7067 56.4573 49.1856 56.4573 48.543C56.4573 47.9003 56.9783 47.3793 57.621 47.3793H66.0646C66.7073 47.3793 67.2284 47.9003 67.2284 48.543C67.2284 49.1856 66.7073 49.7067 66.0646 49.7067Z"
    fill="#636462" />
  <path
    d="M38.5688 47.8733C37.5409 47.8733 36.2368 46.9104 36.2368 45.8281C36.2368 45.0784 36.8494 44.2773 38.5688 44.2773C40.2882 44.2773 40.9007 45.0784 40.9007 45.8281C40.9007 46.9104 39.5967 47.8733 38.5688 47.8733Z"
    fill="#636462" />
  <path
    d="M61.8428 47.8733C60.8149 47.8733 59.5109 46.9104 59.5109 45.8281C59.5109 45.0784 60.1234 44.2773 61.8428 44.2773C63.5622 44.2773 64.1748 45.0784 64.1748 45.8281C64.1748 46.9104 62.8707 47.8733 61.8428 47.8733Z"
    fill="#636462" />
  <path
    d="M42.7906 49.7067H34.3469C33.7043 49.7067 33.1832 49.1856 33.1832 48.543C33.1832 47.9003 33.7043 47.3793 34.3469 47.3793H42.7906C43.4333 47.3793 43.9543 47.9003 43.9543 48.543C43.9543 49.1856 43.4333 49.7067 42.7906 49.7067Z"
    fill="#636462" />
  <path
    d="M56.2138 30.6544H44.3063C43.6636 30.6544 43.1426 30.1334 43.1426 29.4907C43.1426 28.8481 43.6636 28.327 44.3063 28.327H56.2138C56.8564 28.327 57.3775 28.8481 57.3775 29.4907C57.3775 30.1334 56.8564 30.6544 56.2138 30.6544Z"
    fill="#618365" />
</svg>