<svg xmlns="http://www.w3.org/2000/svg" width="45" height="63" viewBox="0 0 45 63" fill="none">
  <path
    d="M22.1998 62.3121C19.4935 62.3121 17.4715 61.4828 16.1901 59.8471C15.0454 58.3863 14.8426 56.6659 14.8741 55.48L14.9016 54.4415H29.4985L29.526 55.48C29.5573 56.6661 29.3545 58.3863 28.2098 59.8471C26.9287 61.4827 24.9066 62.3121 22.1998 62.3121ZM17.0679 56.575C17.1654 57.2207 17.3932 57.9234 17.8695 58.5314C18.7258 59.6244 20.1827 60.1786 22.1998 60.1786C24.2171 60.1786 25.6742 59.6244 26.5304 58.5314C27.0068 57.9234 27.2345 57.2209 27.3321 56.575H17.0679Z"
    fill="#618365" />
  <path
    d="M22.1998 18.3447C17.3318 18.3447 13.3715 14.3842 13.3715 9.51634C13.3715 4.64845 17.3318 0.687988 22.1998 0.687988C27.0677 0.687988 31.0281 4.64845 31.0281 9.51634C31.0281 14.3842 27.0677 18.3447 22.1998 18.3447ZM22.1998 3.0154C18.6151 3.0154 15.6989 5.93166 15.6989 9.51634C15.6989 13.101 18.6151 16.0173 22.1998 16.0173C25.7844 16.0173 28.7007 13.101 28.7007 9.51634C28.7007 5.93166 25.7844 3.0154 22.1998 3.0154Z"
    fill="#636462" />
  <path d="M23.3635 6.7887H21.0361V26.3743H23.3635V6.7887Z" fill="#636462" />
  <path d="M32.8467 32.0842H11.5535V24.1761H32.8467V32.0842ZM13.8809 29.7568H30.5192V26.5035H13.8809V29.7568Z"
    fill="#636462" />
  <path
    d="M40.9085 56.6332H3.49106C2.32631 56.6332 1.27417 56.0362 0.676685 55.0361C0.0789194 54.0353 0.0520267 52.8256 0.604804 51.8L11.5102 31.5471C12.0826 30.4836 13.1887 29.8228 14.3967 29.8228H30.0029C31.2109 29.8228 32.3171 30.4836 32.8895 31.5477L43.795 51.8002C44.3477 52.8258 44.321 54.0353 43.7234 55.0356C43.1259 56.036 42.0736 56.6332 40.9085 56.6332ZM14.3967 32.1502C14.0463 32.1502 13.7255 32.3418 13.5594 32.6504L2.6538 52.9038C2.491 53.2059 2.49877 53.548 2.67473 53.8425C2.85059 54.1369 3.14814 54.3058 3.49106 54.3058H40.9085C41.2516 54.3058 41.5493 54.1369 41.7254 53.842C41.9011 53.5476 41.9087 53.2059 41.746 52.904L30.8402 32.6508C30.674 32.3418 30.3532 32.1502 30.0029 32.1502H14.3967Z"
    fill="#636462" />
  <path d="M41.9662 48.2214H3.45166V50.5488H41.9662V48.2214Z" fill="#636462" />
</svg>