<svg xmlns="http://www.w3.org/2000/svg" width="101" height="65" viewBox="0 0 101 65" fill="none">
  <path
    d="M80.6264 62.8302H54.6038C53.7897 62.8302 53.1298 62.1703 53.1298 61.3562V38.3678C53.1298 37.7251 53.6508 37.2041 54.2935 37.2041C54.9362 37.2041 55.4572 37.7251 55.4572 38.3678V60.5028H80.6264V62.8302Z"
    fill="#636462" />
  <path
    d="M79.3862 62.8298H78.5328V4.49709H22.5271V26.6522C22.5271 29.5217 24.6709 32.0462 27.5323 32.2614C30.7021 32.4997 33.359 29.9947 33.3716 26.8771C33.3799 24.8281 31.6448 23.2596 29.5965 23.3174C26.727 23.3982 26.2906 24.9682 26.2906 25.9139C26.2906 28.0511 27.6203 28.5136 27.9494 28.5136V30.841C26.2942 30.841 23.9632 29.3124 23.9632 25.9139C23.9632 23.6506 25.4871 21.0091 29.7764 20.9868C32.9132 20.9705 35.5493 23.3634 35.691 26.497C35.8998 31.1131 32.0454 34.9028 27.408 34.586C23.2983 34.3052 20.1997 30.7016 20.1997 26.5823L20.1997 3.6437C20.1997 2.82962 20.8596 2.16968 21.6737 2.16968H79.3862C80.2003 2.16968 80.8602 2.82962 80.8602 3.6437V61.3558C80.8602 62.1699 80.2003 62.8298 79.3862 62.8298Z"
    fill="#636462" />
  <path
    d="M54.2935 34.6045H27.9495V32.2771H54.2935C56.7646 32.2771 58.7749 30.2668 58.7749 27.7956C58.7749 25.3244 56.7646 23.3141 54.2935 23.3141H29.8312V20.9867H54.2935C58.0479 20.9867 61.1023 24.0412 61.1023 27.7956C61.1023 31.55 58.0479 34.6045 54.2935 34.6045Z"
    fill="#636462" />
  <path
    d="M27.9494 10.8891C26.6445 10.8891 25.5073 9.78943 25.382 9.66405L26.7534 8.29276L26.0677 8.97841L26.7507 8.28992C27.0212 8.55603 27.5892 8.94961 27.9494 8.94961C28.3097 8.94961 28.8777 8.55604 29.1482 8.28992L30.5169 9.66405C30.3915 9.78944 29.2543 10.8891 27.9494 10.8891Z"
    fill="#618365" />
  <path
    d="M39.2397 10.6952C38.0129 10.6952 36.9289 9.64647 36.8093 9.52696L37.9047 8.42822C38.1851 8.70475 38.7952 9.1436 39.2397 9.1436C39.6841 9.1436 40.2943 8.70475 40.5744 8.42822L41.6699 9.52696C41.5504 9.64647 40.4665 10.6952 39.2397 10.6952Z"
    fill="#636462" />
  <path
    d="M50.53 10.6952C49.3031 10.6952 48.2192 9.64647 48.0997 9.52696L49.1952 8.42822C49.4754 8.70475 50.0855 9.1436 50.53 9.1436C50.9744 9.1436 51.5846 8.70475 51.8649 8.42822L52.9603 9.52696C52.8407 9.64647 51.7568 10.6952 50.53 10.6952Z"
    fill="#636462" />
  <path
    d="M61.8203 10.8891C60.5154 10.8891 59.3782 9.78943 59.2528 9.66405L60.6243 8.29276L59.9385 8.97841L60.6215 8.28992C60.892 8.55603 61.46 8.94961 61.8203 8.94961C62.1805 8.94961 62.7486 8.55604 63.019 8.28992L64.3878 9.66405C64.2624 9.78944 63.1252 10.8891 61.8203 10.8891Z"
    fill="#618365" />
  <path
    d="M73.1106 10.6952C71.8837 10.6952 70.7998 9.64647 70.6803 9.52696L71.7758 8.42822C72.0559 8.70475 72.6661 9.1436 73.1106 9.1436C73.555 9.1436 74.1652 8.70475 74.4455 8.42822L75.5409 9.52696C75.4213 9.64647 74.3373 10.6952 73.1106 10.6952Z"
    fill="#636462" />
  <path
    d="M33.5946 17.2811C32.3679 17.2811 31.2839 16.2324 31.1643 16.1129L32.2597 15.0142C32.5401 15.2907 33.1502 15.7295 33.5946 15.7295C34.039 15.7295 34.6492 15.2907 34.9295 15.0142L36.0249 16.1129C35.9053 16.2324 34.8213 17.2811 33.5946 17.2811Z"
    fill="#636462" />
  <path
    d="M44.8849 17.4751C43.58 17.4751 42.4428 16.3754 42.3174 16.25L43.6889 14.8787L43.0031 15.5643L43.6861 14.8759C43.9566 15.142 44.5246 15.5356 44.8849 15.5356C45.2451 15.5356 45.8131 15.142 46.0836 14.8759L47.4523 16.25C47.327 16.3754 46.1898 17.4751 44.8849 17.4751Z"
    fill="#618365" />
  <path
    d="M56.1752 17.2811C54.9484 17.2811 53.8645 16.2324 53.7449 16.1129L54.8403 15.0142C55.1206 15.2907 55.7308 15.7295 56.1752 15.7295C56.6196 15.7295 57.2297 15.2907 57.5101 15.0142L58.6055 16.1129C58.4859 16.2324 57.4019 17.2811 56.1752 17.2811Z"
    fill="#636462" />
  <path
    d="M67.4654 17.2811C66.2386 17.2811 65.1546 16.2324 65.035 16.1129L66.1305 15.0142C66.4108 15.2907 67.0209 15.7295 67.4654 15.7295C67.9098 15.7295 68.52 15.2907 68.8003 15.0142L69.8957 16.1129C69.7761 16.2324 68.6922 17.2811 67.4654 17.2811Z"
    fill="#636462" />
  <path
    d="M61.8203 24.0611V22.1216C62.1806 22.1216 62.7486 21.728 63.0191 21.4619L64.3878 22.836C64.2624 22.9614 63.1252 24.0611 61.8203 24.0611Z"
    fill="#618365" />
  <path
    d="M73.1106 24.0611C71.8057 24.0611 70.6685 22.9614 70.5432 22.836L71.9147 21.4648L71.229 22.1504L71.9119 21.4619C72.1824 21.728 72.7504 22.1216 73.1106 22.1216C73.4708 22.1216 74.0389 21.728 74.3093 21.4619L75.6781 22.836C75.5527 22.9614 74.4155 24.0611 73.1106 24.0611Z"
    fill="#618365" />
  <path
    d="M67.4654 30.4531C66.2386 30.4531 65.1546 29.4044 65.035 29.2849L66.1305 28.1862C66.4108 28.4627 67.0209 28.9015 67.4654 28.9015C67.9098 28.9015 68.52 28.4627 68.8003 28.1862L69.8957 29.2849C69.7761 29.4044 68.6922 30.4531 67.4654 30.4531Z"
    fill="#636462" />
  <path
    d="M61.8203 37.2331C60.5154 37.2331 59.3782 36.1334 59.2528 36.008L60.6243 34.6368L59.9385 35.3224L60.6215 34.6339C60.892 34.9 61.46 35.2936 61.8203 35.2936C62.1805 35.2936 62.7486 34.9 63.019 34.6339L64.3878 36.008C64.2624 36.1334 63.1252 37.2331 61.8203 37.2331Z"
    fill="#618365" />
  <path
    d="M73.1106 37.0391C71.8837 37.0391 70.7998 35.9903 70.6803 35.8708L71.7758 34.7721C72.0559 35.0486 72.6661 35.4875 73.1106 35.4875C73.555 35.4875 74.1652 35.0486 74.4455 34.7721L75.5409 35.8708C75.4213 35.9903 74.3373 37.0391 73.1106 37.0391Z"
    fill="#636462" />
  <path
    d="M56.1751 43.6251C54.9484 43.6251 53.8644 42.5768 53.7449 42.4571L54.8402 41.3582C55.1204 41.6347 55.7307 42.0735 56.1751 42.0735C56.6196 42.0735 57.2297 41.6347 57.51 41.3582L58.6053 42.4571C58.4858 42.5768 57.4018 43.6251 56.1751 43.6251Z"
    fill="#636462" />
  <path
    d="M67.4654 43.6251C66.2386 43.6251 65.1547 42.5768 65.0352 42.4571L66.1305 41.3582C66.4107 41.6347 67.021 42.0735 67.4654 42.0735C67.9099 42.0735 68.5201 41.6347 68.8003 41.3582L69.8957 42.4571C69.7762 42.5768 68.6922 43.6251 67.4654 43.6251Z"
    fill="#636462" />
  <path
    d="M78.7558 17.2811C77.529 17.2811 76.445 16.2324 76.3254 16.1129L77.4209 15.0142C77.7012 15.2907 78.3114 15.7295 78.7558 15.7295C78.9164 15.7295 79.119 15.6689 79.3417 15.5545L80.0514 16.9342C79.6039 17.1645 79.1679 17.2811 78.7558 17.2811Z"
    fill="#636462" />
  <path
    d="M78.7558 30.4531C77.529 30.4531 76.445 29.4044 76.3254 29.2849L77.4209 28.1862C77.7012 28.4627 78.3114 28.9015 78.7558 28.9015C78.9164 28.9015 79.119 28.8409 79.3417 28.7265L80.0514 30.1062C79.6039 30.3365 79.1679 30.4531 78.7558 30.4531Z"
    fill="#636462" />
  <path
    d="M78.7557 43.6251C77.5289 43.6251 76.445 42.5768 76.3254 42.4571L77.4208 41.3582C77.701 41.6347 78.3113 42.0735 78.7557 42.0735C78.9162 42.0735 79.119 42.0129 79.342 41.8985L80.051 43.2785C79.6033 43.5085 79.1676 43.6251 78.7557 43.6251Z"
    fill="#636462" />
  <path
    d="M61.8203 50.4051C60.5155 50.4051 59.3782 49.3056 59.2529 49.1804L60.6215 47.806C60.8919 48.072 61.4601 48.4655 61.8203 48.4655C62.1806 48.4655 62.7487 48.072 63.0191 47.806L64.3877 49.1804C64.2624 49.3056 63.1251 50.4051 61.8203 50.4051Z"
    fill="#636462" />
  <path
    d="M73.1106 50.405C71.8057 50.405 70.6686 49.3055 70.5432 49.1802L71.9119 47.806C72.1823 48.072 72.7503 48.4655 73.1106 48.4655C73.4708 48.4655 74.039 48.072 74.3094 47.806L75.678 49.1804C75.5527 49.3055 74.4154 50.405 73.1106 50.405Z"
    fill="#618365" />
  <path
    d="M56.1751 56.7971C54.9484 56.7971 53.8644 55.7488 53.7449 55.6291L54.8402 54.5302C55.1204 54.8067 55.7307 55.2455 56.1751 55.2455C56.6196 55.2455 57.2297 54.8067 57.51 54.5302L58.6053 55.6291C58.4858 55.7488 57.4018 56.7971 56.1751 56.7971Z"
    fill="#636462" />
  <path
    d="M67.4655 56.9911C66.1606 56.9911 65.0234 55.8916 64.8981 55.7664L66.2666 54.3921C66.5371 54.658 67.1052 55.0516 67.4655 55.0516C67.8257 55.0516 68.3938 54.658 68.6643 54.3921L70.0328 55.7664C69.9075 55.8916 68.7703 56.9911 67.4655 56.9911Z"
    fill="#618365" />
  <path
    d="M78.7557 56.7971C77.5289 56.7971 76.445 55.7488 76.3254 55.6291L77.4208 54.5302C77.701 54.8067 78.3113 55.2455 78.7557 55.2455C78.9165 55.2455 79.1192 55.1851 79.3416 55.0707L80.0513 56.4504C79.6041 56.6805 79.1681 56.7971 78.7557 56.7971Z"
    fill="#636462" />
  <path
    d="M22.3043 17.2812C21.892 17.2812 21.4561 17.1645 21.0085 16.9342L21.7182 15.5545C21.941 15.6689 22.1435 15.7295 22.3043 15.7295C22.7677 15.7295 23.4138 15.2394 23.6374 15.0159L24.7346 16.1129C24.615 16.2324 23.531 17.2812 22.3043 17.2812Z"
    fill="#636462" />
</svg>