<svg xmlns="http://www.w3.org/2000/svg" width="62" height="61" viewBox="0 0 62 61" fill="none">
  <path
    d="M42.2144 60.967C41.4944 60.967 40.9084 60.381 40.9084 59.661V57.717C40.9084 57.3646 40.6227 57.0789 40.2703 57.0789H26.6619C26.3095 57.0789 26.0238 57.3646 26.0238 57.717V59.661C26.0238 60.381 25.4378 60.967 24.7178 60.967H1.38904C0.669013 60.967 0.0830078 60.381 0.0830078 59.661V1.33911C0.0830078 0.619121 0.669013 0.0330811 1.38904 0.0330811H24.7178C25.4378 0.0330811 26.0238 0.619121 26.0238 1.33911V36.3323C26.0238 36.6846 26.3095 36.9703 26.6618 36.9703H51.9347C52.287 36.9703 52.5727 36.6846 52.5727 36.3323V10.0874C52.5727 7.05573 50.1062 4.58919 47.0745 4.58919C44.0428 4.58919 41.5763 7.05573 41.5763 10.0874V11.0594C41.5763 11.4118 41.862 11.6975 42.2143 11.6975H44.1584C44.8784 11.6975 45.4644 12.2835 45.4644 13.0035C45.4644 13.7235 44.8784 14.3095 44.1584 14.3095H36.3822C35.6622 14.3095 35.0761 13.7235 35.0761 13.0035C35.0761 12.2835 35.6622 11.6975 36.3822 11.6975H38.3262C38.6786 11.6975 38.9643 11.4118 38.9643 11.0594V10.0874C38.9643 5.61543 42.6026 1.97717 47.0745 1.97717C51.5465 1.97717 55.1847 5.61543 55.1847 10.0874V36.3323C55.1847 36.6846 55.4704 36.9703 55.8228 36.9703H59.7109C60.4309 36.9703 61.0169 37.5563 61.0169 38.2763C61.0169 38.9963 60.4309 39.5823 59.7109 39.5823H55.8228C55.4704 39.5823 55.1847 39.868 55.1847 40.2204V46.214C55.1847 52.2051 50.3109 57.0789 44.3198 57.0789H44.1584C43.806 57.0789 43.5204 57.3646 43.5204 57.717V59.661C43.5204 60.381 42.9343 60.967 42.2144 60.967ZM14.9974 2.64511C14.6451 2.64511 14.3594 2.93082 14.3594 3.28316V57.717C14.3594 58.0693 14.6451 58.355 14.9974 58.355H22.7737C23.1261 58.355 23.4118 58.0693 23.4118 57.717V3.28316C23.4118 2.93082 23.1261 2.64511 22.7737 2.64511H14.9974ZM3.33309 2.64511C2.98074 2.64511 2.69504 2.93082 2.69504 3.28316V57.717C2.69504 58.0693 2.98074 58.355 3.33309 58.355H11.1093C11.4617 58.355 11.7474 58.0693 11.7474 57.717V3.28316C11.7474 2.93082 11.4617 2.64511 11.1093 2.64511H3.33309ZM26.6619 39.5823C26.3095 39.5823 26.0238 39.868 26.0238 40.2204V53.8288C26.0238 54.1812 26.3095 54.4669 26.6619 54.4669H44.3198C48.8706 54.4669 52.5727 50.7648 52.5727 46.214V40.2204C52.5727 39.868 52.287 39.5823 51.9347 39.5823H26.6619Z"
    fill="#636462" />
  <path d="M37.6882 19.4738H35.0762V22.0858H37.6882V19.4738Z" fill="#618365" />
  <path d="M37.6882 27.25H35.0762V29.862H37.6882V27.25Z" fill="#618365" />
  <path d="M45.4644 19.4738H42.8524V22.0858H45.4644V19.4738Z" fill="#618365" />
  <path d="M45.4644 27.25H42.8524V29.862H45.4644V27.25Z" fill="#618365" />
</svg>